<svg width="861" height="611" xmlns="http://www.w3.org/2000/svg" xmlns:xlink="http://www.w3.org/1999/xlink" xml:space="preserve" overflow="hidden"><defs><clipPath id="clip0"><rect x="635" y="490" width="861" height="611"/></clipPath></defs><g clip-path="url(#clip0)" transform="translate(-635 -490)"><path d="M720 490 720 964 1050 964" stroke="#000000" stroke-width="10.3125" stroke-miterlimit="8" fill="none" fill-rule="evenodd"/><path d="M814.5 577.5C814.5 540.497 843.601 510.5 879.5 510.5 915.399 510.5 944.5 540.497 944.5 577.5 944.5 614.503 915.399 644.5 879.5 644.5 843.601 644.5 814.5 614.503 814.5 577.5Z" stroke="#000000" stroke-width="6.875" stroke-miterlimit="8" fill="none" fill-rule="evenodd"/><path d="M881.5 644.5 881.5 964.165" stroke="#000000" stroke-width="6.875" stroke-miterlimit="8" fill="none" fill-rule="evenodd"/><path d="M635 490 719.87 490 719.87 963.639 1050 963.639 1050 1036 635 1036Z" fill="#E7E6E6" fill-rule="evenodd"/><path d="M942.154 770.348 943.649 772.34C940.68 774.762 938.356 777.501 936.676 780.558 934.996 783.614 934.156 786.773 934.156 790.035 934.156 792.281 934.581 794.005 935.431 795.206 936.28 796.407 937.477 797.008 939.02 797.008 940.465 797.008 941.695 796.422 942.711 795.25 943.727 794.078 944.479 792.359 944.967 790.094L947.369 779.049 952.291 779.049 950.065 789.127C949.811 790.279 949.684 791.353 949.684 792.35 949.684 793.912 950.021 795.079 950.694 795.851 951.368 796.622 952.32 797.008 953.551 797.008 955.172 797.008 956.608 796.417 957.858 795.235 959.108 794.054 960.079 792.33 960.773 790.064 961.466 787.799 961.813 785.162 961.813 782.154 961.813 780.377 961.568 778.556 961.08 776.69 960.592 774.825 959.908 773.277 959.029 772.047L961.022 770.348C962.975 772.203 964.444 774.244 965.431 776.471 966.417 778.697 966.91 781.09 966.91 783.648 966.91 786.519 966.344 789.166 965.211 791.588 964.078 794.01 962.472 795.904 960.392 797.271 958.312 798.639 955.934 799.322 953.258 799.322 950.016 799.322 947.799 797.721 946.608 794.518L946.49 794.518C945.807 795.592 945.089 796.456 944.337 797.11 943.585 797.765 942.643 798.297 941.51 798.707 940.377 799.117 939.029 799.322 937.467 799.322 935.963 799.322 934.581 798.985 933.321 798.311 932.062 797.638 931.041 796.583 930.26 795.147 929.479 793.712 929.088 791.949 929.088 789.859 929.088 786.305 930.231 782.818 932.516 779.4 934.801 775.982 938.014 772.965 942.154 770.348Z" fill-rule="evenodd"/><text fill="#000000" fill-opacity="0" font-family="Arial,Arial_MSFontService,sans-serif" font-size="28.9746" x="929.088" y="795.7">ğœ”</text><path d="M974.756 789.087C975.816 789.087 976.636 789.434 977.216 790.129 977.796 790.823 978.086 791.736 978.086 792.868 978.086 793.154 978.061 793.455 978.011 793.77 977.961 794.085 977.872 794.386 977.743 794.673L978.043 794.78C979.433 792.875 980.804 791.45 982.158 790.505 983.511 789.559 984.911 789.087 986.358 789.087 987.876 789.087 989.011 789.495 989.763 790.311 990.515 791.128 990.891 792.273 990.891 793.749 990.891 794.193 990.827 794.809 990.698 795.596 990.569 796.384 990.404 797.244 990.204 798.175 990.003 799.106 989.788 800.062 989.559 801.043 989.33 802.024 989.115 802.93 988.915 803.76 988.714 804.591 988.549 805.3 988.42 805.887 988.292 806.475 988.227 806.84 988.227 806.983 988.227 807.527 988.327 807.921 988.528 808.165 988.728 808.408 989.051 808.53 989.495 808.53 989.767 808.53 990.035 808.48 990.3 808.38 990.565 808.279 990.841 808.122 991.127 807.907 991.414 807.692 991.729 807.416 992.073 807.08 992.417 806.743 992.803 806.339 993.233 805.866L994.715 807.284C994.013 808 993.369 808.616 992.782 809.132 992.195 809.647 991.625 810.073 991.074 810.41 990.522 810.747 989.974 810.997 989.43 811.162 988.886 811.327 988.306 811.409 987.69 811.409 987.174 811.409 986.698 811.309 986.261 811.108 985.824 810.908 985.448 810.632 985.133 810.281 984.818 809.93 984.575 809.515 984.403 809.035 984.231 808.555 984.145 808.029 984.145 807.456 984.145 806.883 984.206 806.213 984.328 805.447 984.449 804.681 984.632 803.839 984.875 802.923 985.133 801.992 985.373 801.1 985.595 800.248 985.817 799.396 986.011 798.608 986.175 797.885 986.34 797.161 986.469 796.517 986.562 795.951 986.655 795.385 986.702 794.916 986.702 794.544 986.702 793.656 986.533 793.004 986.197 792.589 985.86 792.173 985.32 791.966 984.575 791.966 984.145 791.966 983.683 792.077 983.189 792.299 982.695 792.521 982.197 792.829 981.696 793.222 981.195 793.616 980.704 794.082 980.224 794.619 979.744 795.156 979.304 795.729 978.903 796.338 978.502 796.946 978.147 797.584 977.839 798.25 977.531 798.916 977.306 799.578 977.163 800.237L974.756 811.022 970.545 811.022 973.768 797.014C973.954 796.27 974.09 795.604 974.176 795.016 974.262 794.429 974.305 793.949 974.305 793.577 974.305 792.531 973.883 792.009 973.038 792.009 972.78 792.009 972.518 792.062 972.253 792.17 971.988 792.277 971.709 792.438 971.416 792.653 971.122 792.868 970.803 793.14 970.459 793.469 970.116 793.799 969.729 794.186 969.299 794.63L967.817 793.233C968.533 792.503 969.188 791.876 969.783 791.353 970.377 790.831 970.943 790.401 971.48 790.064 972.017 789.728 972.551 789.481 973.081 789.323 973.611 789.165 974.169 789.087 974.756 789.087Z" fill-rule="evenodd"/><text fill="#000000" fill-opacity="0" font-family="Arial,Arial_MSFontService,sans-serif" font-size="22.3223" x="967.817" y="808.619">ğ‘›</text><path d="M1002.14 792.057 1007.27 792.057C1007.54 793.424 1007.68 794.771 1007.68 796.1 1007.68 797.467 1007.45 798.717 1006.98 799.85 1006.51 800.982 1005.76 802.11 1004.74 803.233 1003.71 804.356 1002.3 805.592 1000.5 806.939L998.92 805.152C999.917 804.215 1000.64 803.37 1001.09 802.618 1001.54 801.866 1001.86 801.012 1002.06 800.055 1002.25 799.098 1002.35 797.896 1002.35 796.451 1002.35 794.967 1002.28 793.502 1002.14 792.057Z" fill-rule="evenodd"/><text fill="#000000" fill-opacity="0" font-family="Arial,Arial_MSFontService,sans-serif" font-size="14.8828" x="998.92" y="805.079">,</text><path d="M1050.67 758.365 1068.08 758.365 1067.61 760.299C1062.47 764.654 1058.54 768.341 1055.82 771.358 1053.09 774.376 1051.09 777.179 1049.81 779.767 1048.53 782.354 1047.89 784.859 1047.89 787.281 1047.89 788.434 1048.07 789.4 1048.43 790.182 1048.8 790.963 1049.34 791.651 1050.06 792.247 1050.78 792.843 1052.03 793.56 1053.81 794.4 1056.06 795.475 1057.66 796.51 1058.63 797.506 1059.6 798.502 1060.08 799.684 1060.08 801.051 1060.08 803.023 1059.33 804.806 1057.82 806.397 1056.32 807.989 1054.02 809.596 1050.94 811.217L1049.62 809.078C1051.92 807.769 1053.51 806.642 1054.38 805.694 1055.25 804.747 1055.68 803.707 1055.68 802.574 1055.68 801.91 1055.54 801.344 1055.26 800.875 1054.98 800.406 1054.51 799.957 1053.87 799.527 1053.22 799.098 1052.14 798.531 1050.62 797.828 1047.82 796.559 1045.8 795.152 1044.55 793.609 1043.3 792.066 1042.68 790.211 1042.68 788.043 1042.68 786.637 1042.89 785.206 1043.32 783.751 1043.75 782.296 1044.43 780.748 1045.37 779.107 1046.31 777.467 1047.53 775.777 1049.02 774.039 1050.51 772.301 1052.18 770.567 1054.01 768.839 1055.85 767.11 1058.34 764.957 1061.49 762.379L1061.54 762.057 1049.88 762.057Z" fill-rule="evenodd"/><text fill="#000000" fill-opacity="0" font-family="Arial,Arial_MSFontService,sans-serif" font-size="52.8516" x="1042.68" y="804.61">ğœ</text><path d="M41.25-3.43736 105.986-3.43714 105.986 3.43786 41.25 3.43764ZM45.8333 22.9168 0 0 45.8334-22.9165Z" transform="matrix(-1 0 0 1 1050.49 577.5)"/><path d="M944.5 606.74 944.5 548.5" stroke="#000000" stroke-width="6.875" stroke-miterlimit="8" fill="none" fill-rule="evenodd"/><path d="M1090.56 566.457C1091.81 566.457 1092.8 566.877 1093.52 567.716 1094.24 568.556 1094.6 569.689 1094.6 571.115 1094.6 572.658 1094.3 574.582 1093.7 576.886L1092.41 581.955C1092.07 583.244 1091.83 584.25 1091.69 584.972 1091.54 585.695 1091.43 586.32 1091.37 586.847 1091.3 587.375 1091.26 587.814 1091.26 588.166 1091.26 589.513 1091.49 590.485 1091.94 591.081 1092.39 591.676 1093.12 591.974 1094.13 591.974 1094.96 591.974 1095.84 591.647 1096.79 590.993 1097.73 590.338 1098.74 589.352 1099.8 588.034 1100.87 586.715 1101.72 585.436 1102.37 584.196 1103.01 582.956 1103.54 581.427 1103.95 579.611L1106.73 566.925 1111.8 566.925 1107.52 585.5C1107.09 587.375 1106.88 588.82 1106.88 589.836 1106.88 590.617 1107.01 591.183 1107.26 591.535 1107.51 591.886 1107.91 592.062 1108.46 592.062 1109.05 592.062 1109.67 591.823 1110.34 591.344 1111 590.866 1111.94 589.953 1113.15 588.605L1114.82 590.246C1113.04 592.14 1111.53 593.478 1110.28 594.259 1109.03 595.041 1107.7 595.431 1106.29 595.431 1105.08 595.431 1104.12 595.031 1103.39 594.23 1102.67 593.429 1102.31 592.365 1102.31 591.037 1102.31 589.982 1102.54 588.83 1103.01 587.58L1102.66 587.462C1100.73 590.177 1098.9 592.179 1097.17 593.468 1095.44 594.757 1093.67 595.402 1091.85 595.402 1090.03 595.402 1088.64 594.879 1087.66 593.835 1086.68 592.79 1086.2 591.339 1086.2 589.484 1086.2 588.253 1086.48 586.505 1087.04 584.24L1088.95 576.564C1089.48 574.435 1089.74 572.931 1089.74 572.052 1089.74 571.271 1089.61 570.705 1089.36 570.353 1089.11 570.002 1088.71 569.826 1088.16 569.826 1087.55 569.826 1086.91 570.075 1086.24 570.573 1085.57 571.071 1084.64 571.974 1083.47 573.283L1081.8 571.642C1083.46 569.962 1084.71 568.81 1085.55 568.185 1086.39 567.56 1087.2 567.116 1087.97 566.852 1088.74 566.588 1089.6 566.457 1090.56 566.457Z" fill-rule="evenodd"/><text fill="#000000" fill-opacity="0" font-family="Arial,Arial_MSFontService,sans-serif" font-size="28.9746" x="1081.8" y="591.809">ğ‘¢</text><path d="M1105.8 554.211C1106.72 554.211 1107.49 554.538 1108.12 555.192 1108.74 555.846 1109.05 556.671 1109.05 557.668 1109.05 558.664 1108.74 559.489 1108.12 560.143 1107.49 560.797 1106.72 561.125 1105.8 561.125 1104.86 561.125 1104.08 560.797 1103.46 560.143 1102.83 559.489 1102.52 558.664 1102.52 557.668 1102.52 556.671 1102.83 555.846 1103.46 555.192 1104.08 554.538 1104.86 554.211 1105.8 554.211ZM1093.53 554.211C1094.46 554.211 1095.25 554.538 1095.87 555.192 1096.5 555.846 1096.81 556.671 1096.81 557.668 1096.81 558.664 1096.5 559.489 1095.87 560.143 1095.25 560.797 1094.46 561.125 1093.53 561.125 1092.61 561.125 1091.84 560.797 1091.21 560.143 1090.59 559.489 1090.27 558.664 1090.27 557.668 1090.27 556.671 1090.59 555.846 1091.21 555.192 1091.84 554.538 1092.61 554.211 1093.53 554.211Z" fill-rule="evenodd"/><text fill="#000000" fill-opacity="0" font-family="Arial,Arial_MSFontService,sans-serif" font-size="6.91406" x="1090.27" y="560.26">áˆ·</text><path d="M1133.51 577.096C1134.3 577.096 1134.99 577.135 1135.59 577.214 1136.2 577.293 1136.78 577.39 1137.33 577.504L1136.45 581.5 1134.33 581.5C1134.23 580.684 1133.98 580.086 1133.6 579.706 1133.21 579.327 1132.69 579.137 1132.05 579.137 1131.3 579.137 1130.68 579.298 1130.17 579.62 1129.66 579.943 1129.22 580.43 1128.84 581.081 1128.46 581.733 1128.13 582.496 1127.86 583.37 1127.59 584.243 1127.4 585.002 1127.3 585.647L1133.25 585.647 1132.78 588.032 1126.81 588.032 1122.92 606.444C1122.24 609.58 1121.15 611.904 1119.64 613.415 1118.13 614.926 1116.11 615.682 1113.59 615.682 1112.93 615.682 1112.45 615.639 1112.15 615.553 1112.24 615.195 1112.32 614.826 1112.39 614.447 1112.46 614.067 1112.55 613.698 1112.65 613.34 1112.73 613.369 1112.86 613.383 1113.01 613.383 1113.17 613.383 1113.39 613.383 1113.68 613.383 1114.24 613.383 1114.75 613.294 1115.22 613.115 1115.68 612.936 1116.11 612.613 1116.49 612.148 1116.88 611.682 1117.24 611.045 1117.56 610.236 1117.88 609.426 1118.18 608.384 1118.47 607.11L1122.77 588.032 1119.07 588.032 1119.46 586.377C1120.25 586.334 1120.87 586.284 1121.34 586.227 1121.8 586.17 1122.2 586.044 1122.52 585.851 1122.84 585.658 1123.08 585.332 1123.24 584.873 1124.07 582.252 1125.32 580.301 1126.99 579.019 1128.66 577.737 1130.83 577.096 1133.51 577.096Z" fill-rule="evenodd"/><text fill="#000000" fill-opacity="0" font-family="Arial,Arial_MSFontService,sans-serif" font-size="38.5859" x="1112.15" y="610.859">ğ‘“</text><path d="M1193.44 550.039C1199.14 551.543 1203.52 554.79 1206.58 559.78 1209.63 564.77 1211.16 570.791 1211.16 577.842 1211.16 584.912 1209.64 590.932 1206.59 595.903 1203.54 600.874 1199.16 604.111 1193.44 605.615L1192.73 603.359C1197.25 601.855 1200.6 598.887 1202.8 594.453 1204.99 590.019 1206.09 584.385 1206.09 577.549 1206.09 570.947 1205 565.464 1202.81 561.099 1200.62 556.733 1197.24 553.799 1192.65 552.295ZM1164.87 550.039 1165.66 552.295C1161.09 553.799 1157.71 556.733 1155.51 561.099 1153.31 565.464 1152.21 570.947 1152.21 577.549 1152.21 584.385 1153.31 590.019 1155.51 594.453 1157.71 598.887 1161.06 601.855 1165.57 603.359L1164.87 605.615C1159.15 604.111 1154.76 600.874 1151.72 595.903 1148.67 590.932 1147.15 584.912 1147.15 577.842 1147.15 570.791 1148.67 564.77 1151.73 559.78 1154.79 554.79 1159.17 551.543 1164.87 550.039Z" fill-rule="evenodd"/><path d="M1178.05 559.718 1182.1 559.718 1180.49 566.955 1189.39 566.955 1188.75 569.914 1179.84 569.914 1177.23 581.281C1176.73 583.488 1176.4 585.075 1176.27 586.042 1176.13 587.008 1176.06 587.785 1176.06 588.371 1176.06 590.793 1177.07 592.003 1179.08 592.003 1179.94 592.003 1180.85 591.676 1181.82 591.022 1182.79 590.368 1183.93 589.25 1185.26 587.668L1186.96 589.425C1185.26 591.476 1183.63 592.99 1182.05 593.966 1180.48 594.943 1178.84 595.431 1177.12 595.431 1173.04 595.431 1170.99 593.371 1170.99 589.25 1170.99 587.941 1171.16 586.564 1171.49 585.119L1174.95 569.914 1170.03 569.914 1170.47 567.892C1171.62 567.873 1172.49 567.785 1173.09 567.628 1173.68 567.472 1174.18 567.257 1174.58 566.984 1174.98 566.711 1175.35 566.32 1175.68 565.812 1176.01 565.304 1176.34 564.655 1176.65 563.864 1176.96 563.073 1177.43 561.691 1178.05 559.718Z" fill-rule="evenodd"/><text fill="#000000" fill-opacity="0" font-family="Arial,Arial_MSFontService,sans-serif" font-size="35.7129" x="1170.03" y="590.967">ğ‘¡</text><text font-family="Calibri,Calibri_MSFontService,sans-serif" font-weight="400" font-size="60" transform="matrix(1 0 0 1 1230.01 595)">(output)</text><path d="M1042.87 1020.2C1044.12 1020.2 1045.11 1020.62 1045.83 1021.46 1046.55 1022.3 1046.91 1023.43 1046.91 1024.86 1046.91 1026.4 1046.61 1028.33 1046.01 1030.63L1044.72 1035.7C1044.38 1036.99 1044.15 1037.99 1044 1038.72 1043.85 1039.44 1043.74 1040.06 1043.68 1040.59 1043.61 1041.12 1043.57 1041.56 1043.57 1041.91 1043.57 1043.26 1043.8 1044.23 1044.25 1044.83 1044.7 1045.42 1045.43 1045.72 1046.45 1045.72 1047.27 1045.72 1048.15 1045.39 1049.1 1044.74 1050.04 1044.08 1051.05 1043.1 1052.11 1041.78 1053.18 1040.46 1054.03 1039.18 1054.68 1037.94 1055.32 1036.7 1055.85 1035.17 1056.26 1033.36L1059.04 1020.67 1064.11 1020.67 1059.83 1039.24C1059.4 1041.12 1059.19 1042.56 1059.19 1043.58 1059.19 1044.36 1059.32 1044.93 1059.57 1045.28 1059.82 1045.63 1060.22 1045.81 1060.77 1045.81 1061.36 1045.81 1061.98 1045.57 1062.65 1045.09 1063.31 1044.61 1064.25 1043.7 1065.46 1042.35L1067.13 1043.99C1065.35 1045.88 1063.84 1047.22 1062.59 1048 1061.34 1048.79 1060.01 1049.18 1058.6 1049.18 1057.39 1049.18 1056.43 1048.78 1055.7 1047.97 1054.98 1047.17 1054.62 1046.11 1054.62 1044.78 1054.62 1043.73 1054.85 1042.57 1055.32 1041.32L1054.97 1041.21C1053.04 1043.92 1051.21 1045.92 1049.48 1047.21 1047.75 1048.5 1045.98 1049.15 1044.16 1049.15 1042.34 1049.15 1040.95 1048.62 1039.97 1047.58 1038.99 1046.53 1038.51 1045.08 1038.51 1043.23 1038.51 1042 1038.79 1040.25 1039.36 1037.98L1041.26 1030.31C1041.79 1028.18 1042.05 1026.68 1042.05 1025.8 1042.05 1025.02 1041.92 1024.45 1041.67 1024.1 1041.42 1023.75 1041.02 1023.57 1040.47 1023.57 1039.86 1023.57 1039.22 1023.82 1038.55 1024.32 1037.88 1024.82 1036.95 1025.72 1035.78 1027.03L1034.11 1025.39C1035.77 1023.71 1037.02 1022.55 1037.86 1021.93 1038.7 1021.3 1039.51 1020.86 1040.28 1020.6 1041.05 1020.33 1041.91 1020.2 1042.87 1020.2Z" fill-rule="evenodd"/><text fill="#000000" fill-opacity="0" font-family="Arial,Arial_MSFontService,sans-serif" font-size="28.9746" x="1034.11" y="1045.55">ğ‘¢</text><path d="M1058.11 1007.95C1059.03 1007.95 1059.8 1008.28 1060.43 1008.94 1061.05 1009.59 1061.36 1010.42 1061.36 1011.41 1061.36 1012.41 1061.05 1013.23 1060.43 1013.89 1059.8 1014.54 1059.03 1014.87 1058.11 1014.87 1057.17 1014.87 1056.39 1014.54 1055.77 1013.89 1055.14 1013.23 1054.83 1012.41 1054.83 1011.41 1054.83 1010.42 1055.14 1009.59 1055.77 1008.94 1056.39 1008.28 1057.17 1007.95 1058.11 1007.95ZM1045.84 1007.95C1046.77 1007.95 1047.56 1008.28 1048.18 1008.94 1048.81 1009.59 1049.12 1010.42 1049.12 1011.41 1049.12 1012.41 1048.81 1013.23 1048.18 1013.89 1047.56 1014.54 1046.77 1014.87 1045.84 1014.87 1044.92 1014.87 1044.15 1014.54 1043.52 1013.89 1042.9 1013.23 1042.58 1012.41 1042.58 1011.41 1042.58 1010.42 1042.9 1009.59 1043.52 1008.94 1044.15 1008.28 1044.92 1007.95 1045.84 1007.95Z" fill-rule="evenodd"/><text fill="#000000" fill-opacity="0" font-family="Arial,Arial_MSFontService,sans-serif" font-size="6.91406" x="1042.58" y="1014">áˆ·</text><path d="M1082.83 1041.07C1082 1041.07 1081.22 1041.25 1080.49 1041.63 1079.76 1042 1079.1 1042.5 1078.49 1043.13 1077.89 1043.76 1077.36 1044.5 1076.88 1045.34 1076.41 1046.19 1076.01 1047.08 1075.69 1048.03 1075.37 1048.97 1075.12 1049.95 1074.95 1050.95 1074.78 1051.95 1074.69 1052.92 1074.69 1053.85 1074.69 1056.9 1075.62 1058.43 1077.46 1058.43 1078.24 1058.43 1079.01 1058.19 1079.77 1057.73 1080.54 1057.26 1081.37 1056.49 1082.25 1055.4 1082.73 1054.82 1083.14 1054.29 1083.48 1053.79 1083.82 1053.28 1084.12 1052.78 1084.36 1052.27 1084.6 1051.76 1084.81 1051.22 1084.98 1050.65 1085.16 1050.08 1085.31 1049.43 1085.46 1048.72 1085.61 1047.9 1085.77 1047.1 1085.92 1046.33 1086.07 1045.56 1086.14 1044.87 1086.14 1044.27 1086.14 1043.11 1085.87 1042.28 1085.33 1041.8 1084.78 1041.31 1083.95 1041.07 1082.83 1041.07ZM1082.45 1038.94C1083.57 1038.94 1084.55 1039.07 1085.41 1039.34 1086.27 1039.6 1087.05 1039.96 1087.75 1040.42L1089.86 1038.94 1091.49 1039.39C1091.11 1041.22 1090.72 1043.03 1090.33 1044.82 1089.95 1046.6 1089.55 1048.41 1089.15 1050.24 1088.69 1052.4 1088.29 1054.4 1087.95 1056.22 1087.6 1058.05 1087.22 1059.67 1086.81 1061.09 1086.39 1062.51 1085.9 1063.73 1085.32 1064.76 1084.74 1065.8 1083.99 1066.65 1083.08 1067.34 1082.17 1068.03 1081.05 1068.56 1079.72 1068.93 1078.39 1069.3 1076.75 1069.5 1074.82 1069.51 1071.84 1069.51 1069.6 1069.15 1068.09 1068.43 1066.57 1067.7 1065.82 1066.59 1065.82 1065.09 1065.82 1064.7 1065.88 1064.33 1066 1063.99 1066.12 1063.65 1066.31 1063.32 1066.57 1063 1066.83 1062.69 1067.16 1062.38 1067.57 1062.07 1067.98 1061.76 1068.46 1061.43 1069.02 1061.09L1070.98 1062.57C1070.47 1063 1070.13 1063.41 1069.95 1063.8 1069.78 1064.18 1069.69 1064.59 1069.69 1065.02 1069.69 1065.82 1070.09 1066.43 1070.91 1066.85 1071.73 1067.26 1073 1067.47 1074.74 1067.47 1075.62 1067.47 1076.43 1067.41 1077.14 1067.28 1077.86 1067.15 1078.51 1066.93 1079.11 1066.62 1079.7 1066.31 1080.24 1065.89 1080.73 1065.34 1081.22 1064.8 1081.67 1064.12 1082.08 1063.31 1082.5 1062.5 1082.89 1061.48 1083.26 1060.23 1083.64 1058.98 1084 1057.51 1084.36 1055.81L1084.04 1055.68C1083.28 1056.66 1082.56 1057.51 1081.87 1058.22 1081.18 1058.93 1080.5 1059.51 1079.84 1059.96 1079.17 1060.41 1078.5 1060.74 1077.83 1060.95 1077.16 1061.16 1076.45 1061.26 1075.72 1061.26 1074.05 1061.26 1072.75 1060.65 1071.82 1059.44 1070.9 1058.22 1070.44 1056.44 1070.44 1054.09 1070.44 1052.75 1070.58 1051.45 1070.87 1050.18 1071.15 1048.9 1071.56 1047.7 1072.09 1046.57 1072.62 1045.44 1073.26 1044.4 1073.99 1043.46 1074.73 1042.52 1075.55 1041.72 1076.44 1041.05 1077.34 1040.37 1078.29 1039.85 1079.3 1039.49 1080.31 1039.12 1081.36 1038.94 1082.45 1038.94Z" fill-rule="evenodd"/><text fill="#000000" fill-opacity="0" font-family="Arial,Arial_MSFontService,sans-serif" font-size="30.5723" x="1065.82" y="1065.69">ğ‘”</text><path d="M1148.66 1003.78C1154.36 1005.29 1158.74 1008.53 1161.8 1013.52 1164.85 1018.51 1166.38 1024.54 1166.38 1031.59 1166.38 1038.66 1164.86 1044.68 1161.81 1049.65 1158.77 1054.62 1154.38 1057.86 1148.66 1059.36L1147.95 1057.1C1152.47 1055.6 1155.82 1052.63 1158.02 1048.2 1160.22 1043.76 1161.31 1038.13 1161.31 1031.29 1161.31 1024.69 1160.22 1019.21 1158.03 1014.84 1155.85 1010.48 1152.46 1007.54 1147.87 1006.04ZM1120.09 1003.78 1120.88 1006.04C1116.31 1007.54 1112.93 1010.48 1110.73 1014.84 1108.53 1019.21 1107.44 1024.69 1107.44 1031.29 1107.44 1038.13 1108.53 1043.76 1110.73 1048.2 1112.93 1052.63 1116.28 1055.6 1120.79 1057.1L1120.09 1059.36C1114.37 1057.86 1109.98 1054.62 1106.94 1049.65 1103.89 1044.68 1102.37 1038.66 1102.37 1031.59 1102.37 1024.54 1103.9 1018.51 1106.95 1013.52 1110.01 1008.53 1114.39 1005.29 1120.09 1003.78Z" fill-rule="evenodd"/><path d="M1133.28 1013.46 1137.32 1013.46 1135.71 1020.7 1144.61 1020.7 1143.97 1023.66 1135.06 1023.66 1132.46 1035.03C1131.95 1037.23 1131.63 1038.82 1131.49 1039.79 1131.35 1040.75 1131.28 1041.53 1131.28 1042.12 1131.28 1044.54 1132.29 1045.75 1134.3 1045.75 1135.16 1045.75 1136.07 1045.42 1137.04 1044.77 1138.01 1044.11 1139.15 1042.99 1140.48 1041.41L1142.18 1043.17C1140.48 1045.22 1138.85 1046.73 1137.27 1047.71 1135.7 1048.69 1134.06 1049.18 1132.34 1049.18 1128.26 1049.18 1126.21 1047.12 1126.21 1042.99 1126.21 1041.69 1126.38 1040.31 1126.71 1038.86L1130.17 1023.66 1125.25 1023.66 1125.69 1021.64C1126.84 1021.62 1127.71 1021.53 1128.31 1021.37 1128.91 1021.22 1129.4 1021 1129.8 1020.73 1130.2 1020.45 1130.57 1020.06 1130.9 1019.56 1131.23 1019.05 1131.56 1018.4 1131.87 1017.61 1132.18 1016.82 1132.65 1015.44 1133.28 1013.46Z" fill-rule="evenodd"/><text fill="#000000" fill-opacity="0" font-family="Arial,Arial_MSFontService,sans-serif" font-size="35.7129" x="1125.25" y="1044.71">ğ‘¡</text><text font-family="Calibri,Calibri_MSFontService,sans-serif" font-weight="400" font-size="60" transform="matrix(1 0 0 1 1185.23 1049)">(input)</text><path d="M41.25-3.43736 107.022-3.43714 107.022 3.43786 41.25 3.43764ZM45.8333 22.9168 0 0 45.8334-22.9165Z" transform="matrix(-1 0 0 1 988.522 1035.5)"/><path d="M881.5 1065.74 881.5 1007.5" stroke="#000000" stroke-width="6.875" stroke-miterlimit="8" fill="none" fill-rule="evenodd"/></g></svg>