<?xml version="1.0" encoding="UTF-8" standalone="no"?>
<svg
   width="297mm"
   height="210mm"
   xml:space="preserve"
   overflow="hidden"
   version="1.1"
   id="svg12"
   xmlns="http://www.w3.org/2000/svg"
   xmlns:svg="http://www.w3.org/2000/svg"><defs
     id="defs1"><clipPath
       clipPathUnits="userSpaceOnUse"
       id="clipPath13"><g
         id="g14"><rect
           x="0"
           y="0"
           width="3025"
           height="805"
           id="rect13" /></g></clipPath><clipPath
       clipPathUnits="userSpaceOnUse"
       id="clipPath14"><g
         id="g15"><rect
           x="0"
           y="0"
           width="3025"
           height="805"
           id="rect14" /></g></clipPath><clipPath
       clipPathUnits="userSpaceOnUse"
       id="clipPath15"><g
         id="g16"><rect
           x="0"
           y="0"
           width="3025"
           height="805"
           id="rect15" /></g></clipPath><clipPath
       clipPathUnits="userSpaceOnUse"
       id="clipPath16"><g
         id="g17"><rect
           x="0"
           y="0"
           width="3025"
           height="805"
           id="rect16" /></g></clipPath><clipPath
       clipPathUnits="userSpaceOnUse"
       id="clipPath17"><g
         id="g18"><rect
           x="0"
           y="0"
           width="3025"
           height="805"
           id="rect17" /></g></clipPath><clipPath
       clipPathUnits="userSpaceOnUse"
       id="clipPath18"><g
         id="g19"><rect
           x="0"
           y="0"
           width="3025"
           height="805"
           id="rect18" /></g></clipPath><clipPath
       clipPathUnits="userSpaceOnUse"
       id="clipPath19"><g
         id="g20"><rect
           x="0"
           y="0"
           width="3025"
           height="805"
           id="rect19" /></g></clipPath><clipPath
       clipPathUnits="userSpaceOnUse"
       id="clipPath20"><g
         id="g21"><rect
           x="0"
           y="0"
           width="3025"
           height="805"
           id="rect20" /></g></clipPath><clipPath
       clipPathUnits="userSpaceOnUse"
       id="clipPath21"><g
         id="g22"><rect
           x="0"
           y="0"
           width="3025"
           height="805"
           id="rect21" /></g></clipPath><clipPath
       clipPathUnits="userSpaceOnUse"
       id="clipPath22"><g
         id="g23"><rect
           x="0"
           y="0"
           width="3025"
           height="805"
           id="rect22" /></g></clipPath><clipPath
       clipPathUnits="userSpaceOnUse"
       id="clipPath23"><g
         id="g24"><rect
           x="0"
           y="0"
           width="3025"
           height="805"
           id="rect23" /></g></clipPath></defs><rect
     x="103"
     y="120"
     width="129"
     height="547"
     fill="#a6a6a6"
     id="rect3"
     clip-path="url(#clipPath23)" /><rect
     x="422.5"
     y="273.5"
     width="352"
     height="245"
     stroke="#000000"
     stroke-width="6.875"
     stroke-miterlimit="8"
     fill="none"
     id="rect4"
     clip-path="url(#clipPath22)" /><path
     d="m 547.94,378.695 c 2.63,0 4.7,0.865 6.22,2.594 1.52,1.729 2.28,3.99 2.28,6.781 0,2.292 -0.48,4.729 -1.43,7.313 l 0.75,0.25 c 3.83,-5.709 7.64,-9.948 11.43,-12.719 3.79,-2.771 7.63,-4.156 11.5,-4.156 4,0 7.04,1.135 9.13,3.406 2.08,2.271 3.12,5.552 3.12,9.844 v 0.875 c 0,0.291 -0.02,0.604 -0.06,0.937 3.58,-5.083 7.16,-8.864 10.72,-11.343 3.56,-2.48 7.26,-3.719 11.09,-3.719 3.84,0 6.79,1.104 8.88,3.312 2.08,2.209 3.12,5.313 3.12,9.313 0,2.625 -0.6,6.354 -1.81,11.187 l -4.06,16.375 c -1.13,4.542 -1.69,7.75 -1.69,9.625 0,1.667 0.27,2.875 0.81,3.625 0.54,0.75 1.4,1.125 2.57,1.125 1.25,0 2.58,-0.51 4,-1.531 1.41,-1.021 3.41,-2.969 6,-5.844 l 3.56,3.5 c -3.59,3.792 -6.71,6.584 -9.38,8.375 -2.66,1.792 -5.71,2.688 -9.12,2.688 -2.71,0 -4.88,-0.969 -6.5,-2.906 -1.63,-1.938 -2.44,-4.407 -2.44,-7.407 0,-2.708 0.69,-6.687 2.06,-11.937 l 2.75,-10.813 c 1,-3.916 1.66,-6.812 1.97,-8.687 0.31,-1.875 0.47,-3.396 0.47,-4.563 0,-2.875 -0.48,-4.948 -1.44,-6.218 -0.96,-1.271 -2.52,-1.907 -4.68,-1.907 -1.75,0 -3.63,0.657 -5.63,1.969 -2,1.313 -4.1,3.354 -6.31,6.125 -2.21,2.771 -4.01,5.5 -5.41,8.188 -1.39,2.687 -2.51,5.968 -3.34,9.843 l -5.69,27.313 h -10.81 l 7.19,-31.75 c 0.87,-3.875 1.46,-6.74 1.78,-8.594 0.31,-1.854 0.47,-3.448 0.47,-4.781 0,-3 -0.54,-5.136 -1.6,-6.406 -1.06,-1.271 -2.72,-1.907 -4.97,-1.907 -1.58,0 -3.38,0.657 -5.4,1.969 -2.02,1.313 -4.18,3.417 -6.47,6.313 -2.29,2.895 -4.09,5.677 -5.38,8.343 -1.29,2.667 -2.37,5.917 -3.25,9.75 l -5.93,27.063 h -10.82 l 9.13,-39.625 c 0.91,-4 1.37,-7.084 1.37,-9.25 0,-1.667 -0.27,-2.875 -0.81,-3.625 -0.54,-0.75 -1.4,-1.125 -2.56,-1.125 -1.29,0 -2.66,0.531 -4.1,1.594 -1.43,1.062 -3.4,2.989 -5.9,5.781 l -3.56,-3.5 c 3.66,-3.834 6.82,-6.636 9.46,-8.406 2.65,-1.771 5.56,-2.657 8.72,-2.657 z"
     fill-rule="evenodd"
     id="path4"
     clip-path="url(#clipPath21)" /><text
     fill="#000000"
     fill-opacity="0"
     font-family="Arial, Arial_MSFontService, sans-serif"
     font-size="61.8125px"
     x="529.76001"
     y="432.78101"
     id="text4">𝑚</text><path
     d="M 232.5,120.5 V 667.73"
     stroke="#000000"
     stroke-width="6.875"
     stroke-miterlimit="8"
     fill="none"
     fill-rule="evenodd"
     id="path5"
     clip-path="url(#clipPath20)" /><path
     d="m 232.5,335.846 h 40.515 l 13.621,-40.346 27.126,80.692 27.243,-80.538 26.893,80.846 13.505,-40.5 H 422.5"
     stroke="#000000"
     stroke-width="6.875"
     stroke-miterlimit="8"
     fill="none"
     fill-rule="evenodd"
     id="path6"
     clip-path="url(#clipPath19)" /><path
     d="M 312.734,416.5 H 386.5 v 81 h -74"
     stroke="#000000"
     stroke-width="6.875"
     stroke-miterlimit="8"
     fill="none"
     fill-rule="evenodd"
     id="path7"
     clip-path="url(#clipPath18)" /><path
     d="M 232.5,457.5 H 339.098"
     stroke="#000000"
     stroke-width="6.875"
     stroke-miterlimit="8"
     fill="none"
     fill-rule="evenodd"
     id="path8"
     clip-path="url(#clipPath17)" /><path
     d="m 340.5,431.5 v 52.087"
     stroke="#000000"
     stroke-width="6.875"
     stroke-miterlimit="8"
     fill="none"
     fill-rule="evenodd"
     id="path9"
     clip-path="url(#clipPath16)" /><path
     d="m 386.5,457.5 h 36.29"
     stroke="#000000"
     stroke-width="6.875"
     stroke-miterlimit="8"
     fill="none"
     fill-rule="evenodd"
     id="path10"
     clip-path="url(#clipPath15)" /><path
     d="m 346.682,548.436 c 5.541,0 10.646,0.625 15.312,1.875 l -3.062,14.129 h -6.563 c -0.083,-3.17 -0.344,-5.46 -0.781,-6.88 -0.438,-1.42 -1.146,-2.48 -2.125,-3.19 -0.979,-0.71 -2.365,-1.06 -4.156,-1.06 -4.209,0 -7.99,1.68 -11.344,5.03 -3.354,3.36 -6.094,8.11 -8.219,14.25 -2.125,6.15 -3.187,12.05 -3.187,17.72 0,4.25 0.833,7.41 2.5,9.47 1.666,2.06 4.166,3.09 7.5,3.09 3.791,0 7.073,-0.72 9.843,-2.15 2.771,-1.44 5.698,-3.7 8.782,-6.78 l 3.812,3.81 c -3.916,4.33 -7.864,7.5 -11.844,9.5 -3.979,2 -8.26,3 -12.843,3 -6.042,0 -10.625,-1.79 -13.75,-5.38 -3.125,-3.58 -4.688,-8.79 -4.688,-15.62 0,-4.46 0.834,-9.36 2.5,-14.69 1.667,-5.33 4.104,-10.02 7.313,-14.06 3.208,-4.04 6.958,-7.06 11.25,-9.06 4.291,-2.004 8.875,-3.004 13.75,-3.004 z"
     fill-rule="evenodd"
     id="path11"
     clip-path="url(#clipPath14)" /><text
     fill="#000000"
     fill-opacity="0"
     font-family="Arial, Arial_MSFontService, sans-serif"
     font-size="61.8125px"
     x="311.86902"
     y="602.52002"
     id="text11">𝑐</text><path
     d="m 332.014,167.935 h 3.625 l -12.25,54.563 h 2 c 3.125,0 6.636,-1.365 10.532,-4.094 3.896,-2.729 7.01,-5.261 9.343,-7.594 2.334,-2.333 3.5,-4.583 3.5,-6.75 0,-2.042 -1.416,-3.187 -4.25,-3.437 l 0.688,-3.063 h 20.25 l 1.187,3.063 c -3.458,3.125 -7.125,6.187 -11,9.187 l -15.5,12 6.125,22.563 c 0.5,1.916 0.948,3.302 1.344,4.156 0.396,0.854 0.854,1.489 1.375,1.906 0.521,0.417 1.219,0.625 2.094,0.625 1.083,0 2.375,-0.583 3.875,-1.75 1.5,-1.167 3.208,-2.854 5.125,-5.062 l 3.562,3.5 c -3.75,3.958 -6.854,6.708 -9.312,8.25 -2.458,1.541 -4.833,2.312 -7.125,2.312 -2.833,0 -5.083,-0.802 -6.75,-2.406 -1.667,-1.604 -2.979,-4.281 -3.938,-8.031 l -4.125,-16.25 c -0.416,-1.625 -0.833,-2.75 -1.25,-3.375 -0.416,-0.625 -0.895,-1.042 -1.437,-1.25 -0.542,-0.209 -1.5,-0.313 -2.875,-0.313 h -4.313 l -6.5,30.625 h -10.812 l 16.062,-71.437 c 0.542,-2.417 0.928,-4.303 1.157,-5.657 0.229,-1.354 0.343,-2.552 0.343,-3.593 0,-1.75 -0.531,-2.98 -1.593,-3.688 -1.063,-0.708 -2.969,-1.104 -5.719,-1.187 l 0.75,-3.25 z"
     fill-rule="evenodd"
     id="path12"
     clip-path="url(#clipPath13)" /><text
     fill="#000000"
     fill-opacity="0"
     font-family="Arial, Arial_MSFontService, sans-serif"
     font-size="90.375px"
     x="305.20203"
     y="247.013"
     id="text12">𝑘</text></svg>
