<svg width="3700" height="950" xmlns="http://www.w3.org/2000/svg" xmlns:xlink="http://www.w3.org/1999/xlink" xml:space="preserve" overflow="hidden"><defs><clipPath id="clip0"><rect x="350" y="448" width="3700" height="950"/></clipPath></defs><g clip-path="url(#clip0)" transform="translate(-350 -448)"><rect x="350" y="448" width="3700" height="950" fill="#FFFFFF"/><path d="M2160.5 1123.5C2160.5 1151.11 2135.49 1173.5 2104.64 1173.5L1400.86 1173.5C1370.01 1173.5 1345 1195.89 1345 1223.5 1345 1195.89 1319.99 1173.5 1289.14 1173.5L585.365 1173.5C554.511 1173.5 529.5 1151.11 529.5 1123.5" stroke="#000000" stroke-width="6.875" stroke-miterlimit="8" fill="none" fill-rule="evenodd"/><path d="M1131.45 1252.5C1134.59 1252.5 1136.91 1253.29 1138.39 1254.88 1139.87 1256.46 1140.61 1258.77 1140.61 1261.79 1140.61 1263.92 1140.18 1266.69 1139.31 1270.1L1137.33 1277.65C1136.1 1282.35 1135.49 1285.78 1135.49 1287.94 1135.49 1290.6 1136.54 1291.94 1138.64 1291.94 1139.59 1291.94 1140.63 1291.58 1141.73 1290.86 1142.84 1290.14 1144.08 1289.04 1145.44 1287.56 1146.8 1286.07 1147.92 1284.43 1148.79 1282.64 1149.66 1280.84 1150.36 1278.71 1150.9 1276.26L1155.93 1253.21 1168.78 1253.21 1161.46 1284.34C1161.1 1285.87 1160.92 1287.38 1160.92 1288.88 1160.92 1289.87 1161.08 1290.63 1161.41 1291.17 1161.74 1291.71 1162.31 1291.98 1163.12 1291.98 1164.05 1291.98 1165.05 1291.56 1166.13 1290.72 1167.21 1289.89 1168.46 1288.64 1169.9 1287L1173.14 1290.23C1169.99 1293.37 1167.28 1295.54 1165 1296.72 1162.73 1297.9 1160.33 1298.5 1157.82 1298.5 1155.3 1298.5 1153.31 1297.8 1151.84 1296.41 1150.37 1295.01 1149.64 1293.18 1149.64 1290.9 1149.64 1290.15 1149.73 1289.44 1149.91 1288.75L1149.46 1288.39C1146.68 1291.83 1144 1294.38 1141.44 1296.02 1138.88 1297.67 1135.92 1298.5 1132.57 1298.5 1129.52 1298.5 1127.13 1297.63 1125.41 1295.89 1123.68 1294.15 1122.82 1291.79 1122.82 1288.79 1122.82 1287.83 1122.92 1286.64 1123.11 1285.2 1123.31 1283.76 1123.54 1282.49 1123.81 1281.38L1127.36 1267.36C1127.87 1265.36 1128.12 1263.61 1128.12 1262.11 1128.12 1260.94 1127.93 1260.13 1127.54 1259.68 1127.15 1259.23 1126.6 1259.01 1125.88 1259.01 1125.01 1259.01 1124.04 1259.42 1122.98 1260.24 1121.92 1261.07 1120.64 1262.32 1119.14 1264L1115.9 1260.76C1118.99 1257.68 1121.67 1255.53 1123.95 1254.31 1126.22 1253.1 1128.72 1252.5 1131.45 1252.5Z" fill-rule="evenodd"/><text fill="#000000" fill-opacity="0" font-family="Arial,Arial_MSFontService,sans-serif" font-size="46" x="1115.9" y="1292.75">ğ’–</text><path d="M1153.65 1233.85C1155.06 1233.85 1156.24 1234.35 1157.2 1235.35 1158.16 1236.35 1158.64 1237.62 1158.64 1239.15 1158.64 1240.67 1158.16 1241.94 1157.2 1242.94 1156.24 1243.95 1155.06 1244.45 1153.65 1244.45 1152.21 1244.45 1151.02 1243.95 1150.06 1242.94 1149.1 1241.94 1148.62 1240.67 1148.62 1239.15 1148.62 1237.62 1149.1 1236.35 1150.06 1235.35 1151.02 1234.35 1152.21 1233.85 1153.65 1233.85ZM1134.83 1233.85C1136.27 1233.85 1137.46 1234.35 1138.42 1235.35 1139.38 1236.35 1139.86 1237.62 1139.86 1239.15 1139.86 1240.67 1139.38 1241.94 1138.42 1242.94 1137.46 1243.95 1136.27 1244.45 1134.83 1244.45 1133.42 1244.45 1132.24 1243.95 1131.28 1242.94 1130.32 1241.94 1129.84 1240.67 1129.84 1239.15 1129.84 1237.62 1130.32 1236.35 1131.28 1235.35 1132.24 1234.35 1133.42 1233.85 1134.83 1233.85Z" fill-rule="evenodd"/><text fill="#000000" fill-opacity="0" font-family="Arial,Arial_MSFontService,sans-serif" font-size="10.6016" x="1129.84" y="1243.12">áˆ·</text><path d="M1200.86 1286.9C1198.9 1286.9 1197.13 1287.88 1195.56 1289.85 1193.99 1291.81 1192.71 1294.54 1191.72 1298.03 1190.72 1301.51 1190.23 1304.66 1190.23 1307.45 1190.23 1309.04 1190.46 1310.23 1190.93 1311.01 1191.4 1311.8 1192.12 1312.19 1193.11 1312.19 1194.04 1312.19 1194.99 1311.89 1195.95 1311.29 1196.91 1310.69 1197.92 1309.76 1198.98 1308.51 1200.04 1307.26 1200.92 1305.75 1201.64 1303.98 1202.36 1302.21 1203.01 1299.99 1203.57 1297.31L1203.84 1296.09C1204.19 1294.48 1204.36 1292.91 1204.36 1291.38 1204.36 1289.88 1204.09 1288.76 1203.54 1288.01 1203 1287.27 1202.1 1286.9 1200.86 1286.9ZM1200.53 1283.5C1202.08 1283.5 1203.5 1283.67 1204.8 1284.01 1206.1 1284.34 1207.42 1284.96 1208.78 1285.86L1211.72 1283.5 1215.38 1284.02 1212.57 1296.81C1212.11 1298.91 1211.7 1300.91 1211.33 1302.83 1210.15 1308.81 1209.33 1312.79 1208.87 1314.78 1208.07 1318.16 1207.24 1320.71 1206.39 1322.43 1205.49 1324.24 1204.34 1325.78 1202.92 1327.06 1201.5 1328.34 1199.73 1329.3 1197.59 1329.95 1195.15 1330.72 1192.18 1331.1 1188.69 1331.1 1184.07 1331.1 1180.6 1330.48 1178.29 1329.25 1175.97 1328.02 1174.82 1326.17 1174.82 1323.71 1174.82 1322.35 1175.3 1321.08 1176.26 1319.88 1177.22 1318.68 1178.64 1317.53 1180.51 1316.44L1183.91 1319.19C1183.32 1319.91 1182.92 1320.59 1182.69 1321.22 1182.46 1321.85 1182.34 1322.54 1182.34 1323.28 1182.34 1324.76 1182.86 1325.87 1183.9 1326.6 1184.93 1327.33 1186.49 1327.7 1188.56 1327.7 1191.9 1327.7 1194.53 1326.45 1196.48 1323.95 1198.42 1321.45 1200.07 1316.89 1201.45 1310.26L1201.02 1309.97C1199.1 1312.41 1197.26 1314.19 1195.49 1315.31 1193.73 1316.44 1191.61 1317 1189.15 1317 1186.7 1317 1184.79 1316.11 1183.41 1314.32 1182.02 1312.53 1181.33 1309.94 1181.33 1306.56 1181.33 1303.58 1181.76 1300.63 1182.64 1297.71 1183.51 1294.8 1184.75 1292.3 1186.35 1290.21 1187.95 1288.11 1189.95 1286.47 1192.34 1285.28 1194.73 1284.09 1197.46 1283.5 1200.53 1283.5Z" fill-rule="evenodd"/><text fill="#000000" fill-opacity="0" font-family="Arial,Arial_MSFontService,sans-serif" font-size="47.6001" x="1174.82" y="1325.15">ğ’ˆ</text><path d="M1302.2 1228.9C1310.95 1231.21 1317.66 1236.18 1322.35 1243.84 1327.04 1251.49 1329.38 1260.72 1329.38 1271.53 1329.38 1282.37 1327.04 1291.6 1322.37 1299.22 1317.7 1306.85 1310.98 1311.81 1302.2 1314.12L1301.12 1310.66C1308.04 1308.35 1313.19 1303.8 1316.56 1297 1319.92 1290.2 1321.61 1281.56 1321.61 1271.08 1321.61 1260.96 1319.93 1252.55 1316.58 1245.86 1313.22 1239.16 1308.03 1234.66 1300.99 1232.36ZM1258.17 1228.9 1259.38 1232.36C1252.37 1234.66 1247.18 1239.16 1243.81 1245.86 1240.44 1252.55 1238.76 1260.96 1238.76 1271.08 1238.76 1281.56 1240.44 1290.2 1243.81 1297 1247.18 1303.8 1252.33 1308.35 1259.24 1310.66L1258.17 1314.12C1249.39 1311.81 1242.67 1306.85 1238 1299.22 1233.32 1291.6 1230.99 1282.37 1230.99 1271.53 1230.99 1260.72 1233.33 1251.49 1238.02 1243.84 1242.7 1236.18 1249.42 1231.21 1258.17 1228.9Z" fill-rule="evenodd"/><path d="M1278.51 1243.74 1284.71 1243.74 1282.24 1254.83 1295.89 1254.83 1294.9 1259.37 1281.25 1259.37 1277.25 1276.8C1276.47 1280.18 1275.98 1282.62 1275.77 1284.1 1275.56 1285.58 1275.45 1286.77 1275.45 1287.67 1275.45 1291.38 1277 1293.24 1280.08 1293.24 1281.4 1293.24 1282.8 1292.74 1284.28 1291.73 1285.76 1290.73 1287.52 1289.02 1289.56 1286.59L1292.16 1289.29C1289.56 1292.43 1287.05 1294.75 1284.64 1296.25 1282.23 1297.75 1279.71 1298.5 1277.07 1298.5 1270.81 1298.5 1267.68 1295.34 1267.68 1289.02 1267.68 1287.01 1267.94 1284.9 1268.45 1282.68L1273.75 1259.37 1266.2 1259.37 1266.87 1256.27C1268.64 1256.24 1269.98 1256.1 1270.89 1255.86 1271.81 1255.62 1272.57 1255.3 1273.18 1254.88 1273.8 1254.46 1274.36 1253.86 1274.87 1253.08 1275.38 1252.3 1275.87 1251.3 1276.35 1250.09 1276.83 1248.88 1277.55 1246.76 1278.51 1243.74Z" fill-rule="evenodd"/><text fill="#000000" fill-opacity="0" font-family="Arial,Arial_MSFontService,sans-serif" font-size="54.7598" x="1266.2" y="1291.65">ğ‘¡</text><text font-family="Calibri,Calibri_MSFontService,sans-serif" font-weight="400" font-size="92" transform="matrix(1 0 0 1 1357.95 1298)">(input)</text><path d="M2450.13 721.729C2453.27 721.729 2455.59 722.523 2457.07 724.11 2458.55 725.698 2459.29 728.004 2459.29 731.028 2459.29 733.155 2458.86 735.925 2457.99 739.339L2456.01 746.886C2454.79 751.588 2454.17 755.017 2454.17 757.173 2454.17 759.838 2455.22 761.171 2457.32 761.171 2458.27 761.171 2459.31 760.811 2460.42 760.093 2461.52 759.374 2462.76 758.273 2464.12 756.791 2465.48 755.309 2466.6 753.669 2467.47 751.872 2468.34 750.075 2469.04 747.949 2469.58 745.493L2474.61 722.448 2487.46 722.448 2480.14 753.579C2479.78 755.106 2479.6 756.619 2479.6 758.116 2479.6 759.104 2479.76 759.868 2480.09 760.407 2480.42 760.946 2480.99 761.216 2481.8 761.216 2482.73 761.216 2483.73 760.797 2484.81 759.958 2485.89 759.119 2487.14 757.877 2488.58 756.229L2491.82 759.464C2488.67 762.608 2485.96 764.772 2483.68 765.955 2481.41 767.138 2479.01 767.729 2476.5 767.729 2473.98 767.729 2471.99 767.033 2470.52 765.641 2469.06 764.248 2468.32 762.414 2468.32 760.138 2468.32 759.389 2468.41 758.67 2468.59 757.981L2468.14 757.622C2465.36 761.066 2462.68 763.612 2460.12 765.259 2457.56 766.906 2454.61 767.729 2451.25 767.729 2448.2 767.729 2445.81 766.861 2444.09 765.124 2442.36 763.387 2441.5 761.021 2441.5 758.026 2441.5 757.068 2441.6 755.87 2441.8 754.433 2441.99 752.995 2442.22 751.722 2442.49 750.614L2446.04 736.599C2446.55 734.592 2446.8 732.84 2446.8 731.343 2446.8 730.175 2446.61 729.366 2446.22 728.917 2445.83 728.468 2445.28 728.243 2444.56 728.243 2443.69 728.243 2442.72 728.655 2441.66 729.478 2440.6 730.302 2439.32 731.552 2437.82 733.229L2434.59 729.995C2437.67 726.91 2440.35 724.762 2442.63 723.549 2444.9 722.336 2447.4 721.729 2450.13 721.729Z" fill-rule="evenodd"/><text fill="#000000" fill-opacity="0" font-family="Arial,Arial_MSFontService,sans-serif" font-size="46" x="2434.59" y="761.979">ğ’–</text><path d="M2472.33 703.081C2473.74 703.081 2474.92 703.582 2475.88 704.586 2476.84 705.589 2477.32 706.854 2477.32 708.381 2477.32 709.909 2476.84 711.174 2475.88 712.177 2474.92 713.181 2473.74 713.682 2472.33 713.682 2470.89 713.682 2469.7 713.181 2468.74 712.177 2467.78 711.174 2467.3 709.909 2467.3 708.381 2467.3 706.854 2467.78 705.589 2468.74 704.586 2469.7 703.582 2470.89 703.081 2472.33 703.081ZM2453.51 703.081C2454.95 703.081 2456.14 703.582 2457.1 704.586 2458.06 705.589 2458.54 706.854 2458.54 708.381 2458.54 709.909 2458.06 711.174 2457.1 712.177 2456.14 713.181 2454.95 713.682 2453.51 713.682 2452.1 713.682 2450.92 713.181 2449.96 712.177 2449 711.174 2448.52 709.909 2448.52 708.381 2448.52 706.854 2449 705.589 2449.96 704.586 2450.92 703.582 2452.1 703.081 2453.51 703.081Z" fill-rule="evenodd"/><text fill="#000000" fill-opacity="0" font-family="Arial,Arial_MSFontService,sans-serif" font-size="10.6016" x="2448.52" y="712.357">áˆ·</text><path d="M2523.63 738.732C2525.81 738.732 2527.86 738.928 2529.78 739.321L2528.31 745.864 2524.09 745.864C2524 744.512 2523.78 743.552 2523.43 742.985 2523.08 742.418 2522.54 742.135 2521.8 742.135 2520.93 742.135 2520.22 742.44 2519.67 743.051 2519.13 743.661 2518.67 744.49 2518.3 745.537 2517.93 746.584 2517.56 747.958 2517.18 749.659L2516.37 753.258 2523.37 753.258 2522.48 757.347 2515.45 757.347 2509.53 784.697C2508.37 789.996 2506.51 793.928 2503.94 796.49 2501.36 799.053 2498.14 800.334 2494.28 800.334 2493.35 800.334 2492.59 800.28 2492.03 800.171L2492.81 796.507C2493.25 796.572 2493.64 796.605 2493.99 796.605 2495.23 796.605 2496.26 795.918 2497.08 794.544 2497.9 793.17 2498.62 791.109 2499.26 788.361L2506.26 757.347 2501.32 757.347 2501.91 754.697C2503.41 754.675 2504.47 754.566 2505.1 754.37 2505.72 754.174 2506.23 753.814 2506.63 753.29 2507.04 752.767 2507.42 751.796 2507.8 750.379 2508.34 748.307 2509.03 746.589 2509.86 745.226 2510.69 743.863 2511.76 742.674 2513.1 741.66 2514.43 740.646 2515.98 739.904 2517.76 739.436 2519.53 738.967 2521.49 738.732 2523.63 738.732Z" fill-rule="evenodd"/><text fill="#000000" fill-opacity="0" font-family="Arial,Arial_MSFontService,sans-serif" font-size="61.6021" x="2492.03" y="792.634">ğ’‡</text><path d="M2613.44 698.134C2622.18 700.44 2628.9 705.419 2633.58 713.071 2638.27 720.722 2640.61 729.954 2640.61 740.765 2640.61 751.606 2638.28 760.837 2633.61 768.459 2628.93 776.081 2622.21 781.045 2613.44 783.351L2612.36 779.892C2619.28 777.586 2624.42 773.034 2627.79 766.236 2631.16 759.437 2632.84 750.797 2632.84 740.316 2632.84 730.193 2631.16 721.785 2627.81 715.092 2624.46 708.399 2619.26 703.899 2612.22 701.593ZM2569.4 698.134 2570.61 701.593C2563.6 703.899 2558.41 708.399 2555.05 715.092 2551.68 721.785 2549.99 730.193 2549.99 740.316 2549.99 750.797 2551.68 759.437 2555.05 766.236 2558.41 773.034 2563.56 777.586 2570.48 779.892L2569.4 783.351C2560.62 781.045 2553.9 776.081 2549.23 768.459 2544.56 760.837 2542.22 751.606 2542.22 740.765 2542.22 729.954 2544.56 720.722 2549.25 713.071 2553.94 705.419 2560.65 700.44 2569.4 698.134Z" fill-rule="evenodd"/><path d="M2589.74 712.97 2595.94 712.97 2593.47 724.065 2607.13 724.065 2606.14 728.602 2592.48 728.602 2588.48 746.032C2587.7 749.416 2587.21 751.85 2587 753.332 2586.79 754.814 2586.69 756.005 2586.69 756.903 2586.69 760.617 2588.23 762.474 2591.31 762.474 2592.63 762.474 2594.03 761.972 2595.51 760.969 2597 759.965 2598.75 758.251 2600.79 755.825L2603.4 758.52C2600.79 761.665 2598.28 763.986 2595.87 765.483 2593.46 766.981 2590.94 767.729 2588.3 767.729 2582.04 767.729 2578.91 764.57 2578.91 758.251 2578.91 756.244 2579.17 754.133 2579.68 751.917L2584.98 728.602 2577.43 728.602 2578.11 725.503C2579.87 725.473 2581.21 725.338 2582.13 725.099 2583.04 724.859 2583.8 724.53 2584.42 724.11 2585.03 723.691 2585.59 723.092 2586.1 722.313 2586.61 721.535 2587.1 720.539 2587.58 719.326 2588.06 718.113 2588.78 715.994 2589.74 712.97Z" fill-rule="evenodd"/><text fill="#000000" fill-opacity="0" font-family="Arial,Arial_MSFontService,sans-serif" font-size="54.7598" x="2577.43" y="760.884">ğ‘¡</text><text font-family="Calibri,Calibri_MSFontService,sans-serif" font-weight="400" font-size="92" transform="matrix(1 0 0 1 2385.77 886)">(output)</text><path d="M2274.5 548.5C2301.84 548.5 2324 576.427 2324 610.876L2324 721.124C2324 755.573 2346.16 783.5 2373.5 783.5 2346.16 783.5 2324 811.427 2324 845.876L2324 956.124C2324 990.573 2301.84 1018.5 2274.5 1018.5" stroke="#000000" stroke-width="6.875" stroke-miterlimit="8" fill="none" fill-rule="evenodd"/><path d="M529.5 845.5 529.5 1072.1" stroke="#000000" stroke-width="6.875" stroke-miterlimit="8" fill="none" fill-rule="evenodd"/><rect x="507.5" y="801.5" width="45.0001" height="45.0001" stroke="#000000" stroke-width="6.875" stroke-miterlimit="8" fill="#FFFFFF"/><path d="M529.5 573.5 529.5 800.103" stroke="#000000" stroke-width="6.875" stroke-miterlimit="8" fill="none" fill-rule="evenodd"/><rect x="507.5" y="527.5" width="45.0001" height="45.9997" stroke="#000000" stroke-width="6.875" stroke-miterlimit="8" fill="#FFFFFF"/><path d="M1095.5 550.5 1322.1 550.5" stroke="#000000" stroke-width="6.875" stroke-miterlimit="8" fill="none" fill-rule="evenodd"/><rect x="1322.5" y="527.5" width="45" height="45.9997" stroke="#000000" stroke-width="6.875" stroke-miterlimit="8" fill="#FFFFFF"/><path d="M823.5 550.5 1050.1 550.5" stroke="#000000" stroke-width="6.875" stroke-miterlimit="8" fill="none" fill-rule="evenodd"/><rect x="1050.5" y="527.5" width="45" height="45.9997" stroke="#000000" stroke-width="6.875" stroke-miterlimit="8" fill="#FFFFFF"/><path d="M551.5 550.5 778.103 550.5" stroke="#000000" stroke-width="6.875" stroke-miterlimit="8" fill="none" fill-rule="evenodd"/><rect x="778.5" y="527.5" width="45.0001" height="45.9997" stroke="#000000" stroke-width="6.875" stroke-miterlimit="8" fill="#FFFFFF"/><path d="M801.5 847.5 801.5 1074.1" stroke="#000000" stroke-width="6.875" stroke-miterlimit="8" fill="none" fill-rule="evenodd"/><rect x="779.5" y="801.5" width="45.0001" height="45.0001" stroke="#000000" stroke-width="6.875" stroke-miterlimit="8" fill="#FFFFFF"/><path d="M801.5 575.5 801.5 802.103" stroke="#000000" stroke-width="6.875" stroke-miterlimit="8" fill="none" fill-rule="evenodd"/><path d="M1910.5 550.5 2137.1 550.5" stroke="#000000" stroke-width="6.875" stroke-miterlimit="8" fill="none" fill-rule="evenodd"/><rect x="2137.5" y="527.5" width="45" height="45.9997" stroke="#000000" stroke-width="6.875" stroke-miterlimit="8" fill="#FFFFFF"/><path d="M1638.5 550.5 1865.1 550.5" stroke="#000000" stroke-width="6.875" stroke-miterlimit="8" fill="none" fill-rule="evenodd"/><rect x="1865.5" y="527.5" width="45" height="45.9997" stroke="#000000" stroke-width="6.875" stroke-miterlimit="8" fill="#FFFFFF"/><path d="M1366.5 550.5 1593.1 550.5" stroke="#000000" stroke-width="6.875" stroke-miterlimit="8" fill="none" fill-rule="evenodd"/><rect x="1593.5" y="527.5" width="45" height="45.9997" stroke="#000000" stroke-width="6.875" stroke-miterlimit="8" fill="#FFFFFF"/><path d="M2160.5 845.5 2160.5 1072.1" stroke="#000000" stroke-width="6.875" stroke-miterlimit="8" fill="none" fill-rule="evenodd"/><rect x="2137.5" y="801.5" width="45" height="45.0001" stroke="#000000" stroke-width="6.875" stroke-miterlimit="8" fill="#FFFFFF"/><path d="M2160.5 573.5 2160.5 800.103" stroke="#000000" stroke-width="6.875" stroke-miterlimit="8" fill="none" fill-rule="evenodd"/><rect x="450" y="1065" width="159" height="54" fill="#E7E6E6"/><path d="M450 1065 608.622 1065" stroke="#000000" stroke-width="2.29167" stroke-miterlimit="8" fill="none" fill-rule="evenodd"/><rect x="722" y="1065" width="159" height="54" fill="#E7E6E6"/><path d="M722 1065 880.622 1065" stroke="#000000" stroke-width="2.29167" stroke-miterlimit="8" fill="none" fill-rule="evenodd"/><rect x="2080" y="1065" width="159" height="54" fill="#E7E6E6"/><path d="M2080 1066 2238.62 1066" stroke="#000000" stroke-width="2.29167" stroke-miterlimit="8" fill="none" fill-rule="evenodd"/><path d="M1884.5 845.5 1884.5 1072.1" stroke="#000000" stroke-width="6.875" stroke-miterlimit="8" fill="none" fill-rule="evenodd"/><rect x="1861.5" y="801.5" width="46.0001" height="45.0001" stroke="#000000" stroke-width="6.875" stroke-miterlimit="8" fill="#FFFFFF"/><path d="M1884.5 573.5 1884.5 800.103" stroke="#000000" stroke-width="6.875" stroke-miterlimit="8" fill="none" fill-rule="evenodd"/><rect x="1805" y="1065" width="158" height="54" fill="#E7E6E6"/><path d="M1805 1065 1963.62 1065" stroke="#000000" stroke-width="2.29167" stroke-miterlimit="8" fill="none" fill-rule="evenodd"/><path d="M1242.65 821.816 1243.82 821.816 1243.82 825.23 1243.15 825.23C1238.81 825.23 1235.41 826.36 1232.95 828.621 1230.49 830.883 1229.27 834.604 1229.27 839.785 1229.27 841.881 1229.57 844.471 1230.17 847.556 1230.76 850.641 1231.06 852.842 1231.06 854.16 1231.06 856.705 1230.32 858.794 1228.82 860.426 1227.32 862.058 1225.54 863.264 1223.47 864.042L1223.47 864.851C1225.54 865.63 1227.32 866.835 1228.82 868.467 1230.32 870.099 1231.06 872.188 1231.06 874.734 1231.06 876.051 1230.76 878.253 1230.17 881.337 1229.57 884.422 1229.27 887.012 1229.27 889.109 1229.27 894.559 1230.49 898.415 1232.95 900.676 1235.41 902.937 1238.81 904.068 1243.15 904.068L1243.82 904.068 1243.82 907.482 1242.65 907.482C1235.62 907.362 1230.35 905.752 1226.86 902.653 1223.37 899.553 1221.63 894.769 1221.63 888.3 1221.63 885.815 1221.98 882.984 1222.69 879.81 1223.39 876.635 1223.74 874.509 1223.74 873.431 1223.74 871.365 1223.03 869.68 1221.61 868.377 1220.19 867.075 1218.04 866.378 1215.16 866.288L1215.16 862.605C1218.04 862.515 1220.19 861.819 1221.61 860.516 1223.03 859.213 1223.74 857.529 1223.74 855.462 1223.74 854.384 1223.39 852.258 1222.69 849.083 1221.98 845.909 1221.63 843.079 1221.63 840.593 1221.63 834.394 1223.37 829.745 1226.86 826.645 1230.35 823.545 1235.62 821.936 1242.65 821.816Z" fill-rule="evenodd"/><text fill="#000000" fill-opacity="0" font-family="Arial,Arial_MSFontService,sans-serif" font-size="85.666" x="1215.16" y="896.774">{</text><path d="M1270.72 843.199 1273.01 846.253C1268.46 849.967 1264.89 854.167 1262.32 858.854 1259.74 863.541 1258.45 868.385 1258.45 873.386 1258.45 876.83 1259.11 879.473 1260.41 881.315 1261.71 883.157 1263.54 884.078 1265.91 884.078 1268.13 884.078 1270.01 883.179 1271.57 881.382 1273.13 879.585 1274.28 876.95 1275.03 873.476L1278.71 856.54 1286.26 856.54 1282.85 871.994C1282.46 873.76 1282.26 875.408 1282.26 876.935 1282.26 879.331 1282.78 881.12 1283.81 882.303 1284.85 883.486 1286.31 884.078 1288.19 884.078 1290.68 884.078 1292.88 883.172 1294.8 881.36 1296.71 879.548 1298.2 876.905 1299.27 873.431 1300.33 869.957 1300.86 865.914 1300.86 861.302 1300.86 858.577 1300.49 855.784 1299.74 852.924 1298.99 850.064 1297.94 847.691 1296.59 845.804L1299.65 843.199C1302.64 846.044 1304.9 849.173 1306.41 852.587 1307.92 856.001 1308.68 859.67 1308.68 863.593 1308.68 867.995 1307.81 872.053 1306.07 875.767 1304.33 879.481 1301.87 882.385 1298.68 884.482 1295.49 886.578 1291.85 887.626 1287.74 887.626 1282.77 887.626 1279.37 885.171 1277.55 880.259L1277.37 880.259C1276.32 881.906 1275.22 883.232 1274.06 884.235 1272.91 885.238 1271.47 886.054 1269.73 886.683 1267.99 887.312 1265.93 887.626 1263.53 887.626 1261.22 887.626 1259.11 887.11 1257.17 886.077 1255.24 885.043 1253.68 883.426 1252.48 881.225 1251.28 879.024 1250.68 876.321 1250.68 873.117 1250.68 867.666 1252.43 862.32 1255.94 857.079 1259.44 851.839 1264.37 847.212 1270.72 843.199Z" fill-rule="evenodd"/><text fill="#000000" fill-opacity="0" font-family="Arial,Arial_MSFontService,sans-serif" font-size="44.4277" x="1250.68" y="882.073">ğœ”</text><path d="M1328.58 872.533 1330.18 872.533 1325.34 894.321C1325.03 895.608 1324.82 896.633 1324.7 897.396 1324.58 898.16 1324.52 898.847 1324.52 899.457 1324.52 900.286 1324.69 900.886 1325.03 901.257 1325.36 901.627 1325.87 901.813 1326.55 901.813 1326.94 901.813 1327.33 901.736 1327.73 901.584 1328.12 901.431 1328.54 901.191 1328.99 900.864 1329.43 900.537 1329.92 900.117 1330.46 899.604 1330.99 899.092 1331.59 898.476 1332.24 897.756L1334.46 899.915C1333.33 901.071 1332.3 902.047 1331.37 902.843 1330.45 903.639 1329.57 904.288 1328.74 904.79 1327.91 905.291 1327.1 905.651 1326.3 905.869 1325.51 906.087 1324.66 906.196 1323.77 906.196 1322.94 906.196 1322.19 906.044 1321.53 905.738 1320.86 905.433 1320.29 905.013 1319.81 904.479 1319.33 903.945 1318.96 903.307 1318.7 902.565 1318.43 901.824 1318.3 901.006 1318.3 900.112 1318.3 899.392 1318.39 898.498 1318.57 897.429 1318.74 896.36 1318.96 895.199 1319.24 893.945 1319.51 892.691 1319.81 891.377 1320.14 890.003 1320.46 888.629 1320.78 887.266 1321.1 885.913 1321.42 884.561 1321.7 883.258 1321.95 882.004 1322.2 880.75 1322.38 879.61 1322.49 878.585 1322.53 878.411 1322.56 878.242 1322.56 878.078 1322.56 877.914 1322.56 877.767 1322.56 877.636 1322.51 876.786 1322.21 876.164 1321.66 875.772 1321.1 875.379 1320.11 875.161 1318.7 875.117L1319.09 872.893ZM1326.68 859.349 1333.22 859.349 1331.62 866.383 1325.14 866.383Z" fill-rule="evenodd"/><text fill="#000000" fill-opacity="0" font-family="Arial,Arial_MSFontService,sans-serif" font-size="46.8477" x="1318.3" y="900.341">ğ‘–</text><path d="M1348.48 876.486 1356.34 876.486C1356.76 878.582 1356.97 880.648 1356.97 882.685 1356.97 884.781 1356.61 886.698 1355.89 888.435 1355.17 890.172 1354.03 891.901 1352.45 893.623 1350.88 895.345 1348.72 897.24 1345.96 899.306L1343.54 896.566C1345.06 895.128 1346.17 893.833 1346.86 892.68 1347.55 891.527 1348.04 890.217 1348.34 888.749 1348.64 887.282 1348.79 885.44 1348.79 883.224 1348.79 880.948 1348.69 878.702 1348.48 876.486Z" fill-rule="evenodd"/><text fill="#000000" fill-opacity="0" font-family="Arial,Arial_MSFontService,sans-serif" font-size="22.8203" x="1343.54" y="896.453">,</text><path d="M1423.5 824.826 1450.19 824.826 1449.47 827.79C1441.59 834.469 1435.57 840.121 1431.39 844.748 1427.21 849.375 1424.14 853.673 1422.18 857.641 1420.22 861.609 1419.24 865.45 1419.24 869.163 1419.24 870.93 1419.51 872.413 1420.07 873.611 1420.62 874.809 1421.45 875.864 1422.56 876.778 1423.67 877.691 1425.59 878.792 1428.31 880.079 1431.76 881.727 1434.22 883.314 1435.7 884.841 1437.18 886.369 1437.92 888.18 1437.92 890.277 1437.92 893.301 1436.77 896.034 1434.47 898.475 1432.16 900.916 1428.64 903.379 1423.91 905.865L1421.89 902.585C1425.42 900.579 1427.85 898.849 1429.19 897.397 1430.52 895.944 1431.19 894.35 1431.19 892.613 1431.19 891.594 1430.97 890.726 1430.53 890.007 1430.1 889.288 1429.39 888.6 1428.4 887.941 1427.41 887.282 1425.75 886.413 1423.41 885.335 1419.13 883.389 1416.03 881.232 1414.12 878.867 1412.2 876.501 1411.24 873.656 1411.24 870.331 1411.24 868.175 1411.57 865.982 1412.23 863.75 1412.89 861.519 1413.94 859.146 1415.37 856.63 1416.81 854.115 1418.68 851.524 1420.97 848.859 1423.26 846.193 1425.81 843.536 1428.63 840.885 1431.44 838.235 1435.26 834.933 1440.08 830.98L1440.17 830.486 1422.29 830.486Z" fill-rule="evenodd"/><text fill="#000000" fill-opacity="0" font-family="Arial,Arial_MSFontService,sans-serif" font-size="81.0391" x="1411.24" y="895.735">ğœ</text><path d="M1461.24 872.533 1462.84 872.533 1458 894.321C1457.7 895.608 1457.48 896.633 1457.36 897.396 1457.24 898.16 1457.18 898.847 1457.18 899.457 1457.18 900.286 1457.35 900.886 1457.69 901.257 1458.03 901.627 1458.54 901.813 1459.21 901.813 1459.6 901.813 1460 901.736 1460.39 901.584 1460.78 901.431 1461.2 901.191 1461.65 900.864 1462.1 900.537 1462.59 900.117 1463.12 899.604 1463.66 899.092 1464.25 898.476 1464.9 897.756L1467.13 899.915C1466 901.071 1464.96 902.047 1464.04 902.843 1463.11 903.639 1462.23 904.288 1461.4 904.79 1460.58 905.291 1459.76 905.651 1458.97 905.869 1458.17 906.087 1457.33 906.196 1456.43 906.196 1455.6 906.196 1454.86 906.044 1454.19 905.738 1453.53 905.433 1452.95 905.013 1452.47 904.479 1451.99 903.945 1451.62 903.307 1451.36 902.565 1451.1 901.824 1450.97 901.006 1450.97 900.112 1450.97 899.392 1451.06 898.498 1451.23 897.429 1451.4 896.36 1451.63 895.199 1451.9 893.945 1452.17 892.691 1452.47 891.377 1452.8 890.003 1453.13 888.629 1453.45 887.266 1453.77 885.913 1454.08 884.561 1454.37 883.258 1454.62 882.004 1454.87 880.75 1455.05 879.61 1455.16 878.585 1455.2 878.411 1455.22 878.242 1455.22 878.078 1455.22 877.914 1455.22 877.767 1455.22 877.636 1455.18 876.786 1454.88 876.164 1454.32 875.772 1453.77 875.379 1452.78 875.161 1451.36 875.117L1451.75 872.893ZM1459.34 859.349 1465.89 859.349 1464.28 866.383 1457.81 866.383Z" fill-rule="evenodd"/><text fill="#000000" fill-opacity="0" font-family="Arial,Arial_MSFontService,sans-serif" font-size="46.8477" x="1450.97" y="900.341">ğ‘–</text><path d="M1477.82 821.816 1478.99 821.816C1486.02 821.936 1491.29 823.545 1494.78 826.645 1498.27 829.745 1500.01 834.409 1500.01 840.638 1500.01 843.124 1499.66 845.954 1498.95 849.128 1498.25 852.303 1497.9 854.429 1497.9 855.507 1497.9 857.574 1498.61 859.258 1500.03 860.561 1501.45 861.864 1503.6 862.56 1506.48 862.65L1506.48 866.333C1503.6 866.423 1501.45 867.12 1500.03 868.422 1498.61 869.725 1497.9 871.41 1497.9 873.476 1497.9 874.554 1498.25 876.68 1498.95 879.855 1499.66 883.029 1500.01 885.859 1500.01 888.345 1500.01 894.784 1498.27 899.553 1494.78 902.653 1491.29 905.752 1486.02 907.362 1478.99 907.482L1477.82 907.482 1477.82 904.068 1478.49 904.068C1482.83 904.068 1486.23 902.937 1488.69 900.676 1491.15 898.415 1492.37 894.574 1492.37 889.154 1492.37 887.057 1492.07 884.467 1491.47 881.382 1490.88 878.298 1490.58 876.096 1490.58 874.779 1490.58 872.233 1491.32 870.144 1492.82 868.512 1494.32 866.88 1496.1 865.674 1498.17 864.896L1498.17 864.087C1496.1 863.309 1494.32 862.103 1492.82 860.471 1491.32 858.839 1490.58 856.75 1490.58 854.204 1490.58 852.887 1490.88 850.686 1491.47 847.601 1492.07 844.516 1492.37 841.926 1492.37 839.829 1492.37 834.619 1491.15 830.883 1488.69 828.621 1486.23 826.36 1482.83 825.23 1478.49 825.23L1477.82 825.23Z" fill-rule="evenodd"/><text fill="#000000" fill-opacity="0" font-family="Arial,Arial_MSFontService,sans-serif" font-size="85.666" x="1477.82" y="896.774">}</text></g></svg>