<?xml version="1.0" encoding="UTF-8"?>
<svg id="Layer_1" data-name="Layer 1" xmlns="http://www.w3.org/2000/svg" viewBox="0 0 207.65 63.75">
  <defs>
    <style>
      .cls-1 {
        fill: #fff;
        fill-rule: evenodd;
      }
    </style>
  </defs>
  <g id="Page-1">
    <g id="About---Desktop">
      <g id="Imported-Layers-Copy-4-_-Imported-Layers-Copy-5" data-name="Imported-Layers-Copy-4-+-Imported-Layers-Copy-5">
        <g id="Imported-Layers-Copy-5">
          <path id="Fill-1" class="cls-1" d="M22.56,0c1.03.17,2.08.3,3.1.51,2.7.56,5.16,1.63,7.01,3.77,3.34,3.85,3.06,9.89-.72,13.61-1.24,1.22-2.77,2.14-4.18,3.18-.49.36-1.03.67-1.71,1.1.52.23.89.37,1.23.55,1.72.9,3.49,1.71,5.13,2.74,6.84,4.29,6.34,15.6-1.59,19.29-2.79,1.3-5.72,2.02-8.77,2.06-2.77.03-5.55-.33-8.32-.39-3.29-.07-6.59,0-9.88.02-.59,0-1.2.05-1.77-.05-.25-.04-.62-.44-.61-.65.02-.28.33-.74.57-.77.9-.13,1.83-.15,2.74-.17,2.2-.04,2.3-.13,2.3-2.28,0-11.08.01-22.16-.02-33.23,0-1.61-.11-3.25-.38-4.83-.34-1.96-1.17-2.52-3.15-2.52-.65,0-1.3.05-1.94-.03-.54-.07-1.07-.28-1.61-.43v-.81c.69-.08,1.38-.21,2.07-.22,3.21-.05,6.43-.03,9.64-.1,1.83-.04,3.66-.22,5.49-.33h5.36ZM13.36,32.54c0,1.78-.07,3.57.02,5.35.09,1.8.34,3.59.54,5.39.08.74.54,1.26,1.22,1.48.94.31,1.9.63,2.88.75,3.25.4,6.32-.06,8.85-2.37,3.11-2.84,4.09-8.24,2.28-12.54-2.35-5.59-8.23-7.92-13.74-7.64-1.72.09-2.03.47-2.05,2.22-.02,2.46,0,4.92,0,7.37h0ZM13.36,12.03h0c0,2.65,0,5.29,0,7.94,0,1.29.28,1.55,1.56,1.61,2.89.12,5.77.25,8.66.36.23,0,.51,0,.69-.13,1.92-1.3,3.49-2.89,4.06-5.25.54-2.25.65-4.49-.09-6.71-1.19-3.53-3.16-6.38-6.87-7.64-2.06-.7-4.17-.49-6.26-.19-1.39.2-1.73.66-1.74,2.07-.02,2.65,0,5.29,0,7.94h0Z"/>
          <path id="Fill-2" class="cls-1" d="M17.2,0c-1.83.12-3.66.29-5.49.33-3.21.07-6.43.05-9.64.1-.69.01-1.38.14-2.07.22v-.65h17.2"/>
          <path id="Fill-3" class="cls-1" d="M115.91,19.82c-1.11,1.39-2,2.77-3.15,3.87-2.39,2.31-4.91,4.48-7.38,6.7-1.65,1.48-1.85,1.19-.32,3.08,2.54,3.13,5.12,6.22,7.71,9.3.5.59,1.06,1.2,1.72,1.59.67.39,1.49.55,2.25.76.39.11.82.07,1.19.22.22.09.36.4.53.62-.19.15-.37.4-.58.44-.5.09-1.02.11-1.53.11-1.59,0-3.19-.07-4.78.02-1.11.07-1.84-.36-2.49-1.19-2.54-3.23-5.1-6.44-7.66-9.66-1.38-1.73-.97-1.51-2.7-.47-.7.42-1.37.87-2.05,1.31-.54.35-.81.8-.79,1.48.04,1.65,0,3.3.03,4.95.02,1.33.42,1.74,1.74,1.82.78.04,1.57,0,2.35.03.35.01.74,0,1.03.16.25.13.48.47.52.75.02.13-.42.47-.65.47-1.43.03-2.87-.01-4.3-.01-3,0-6,.04-9,.03-.48,0-1.23.24-1.24-.61-.01-.78.72-.71,1.21-.76.72-.08,1.46-.02,2.19-.05,1.04-.05,1.29-.31,1.3-1.33.06-12.03.12-24.06.16-36.09,0-.96-.15-1.94-.33-2.89-.15-.79-.69-1.25-1.55-1.28-.81-.03-1.62-.07-2.43-.12-.46-.03-.95-.07-.91-.75.04-.61.43-.66.9-.66,2.8-.01,5.53-.54,8.22-1.27,1.25-.34,1.29-.29,1.27.99-.16,10.78-.33,21.57-.49,32.35-.02,1.59.27,1.81,1.6.85,2.45-1.77,4.82-3.65,7.16-5.57,1.31-1.08,2.56-2.26,3.68-3.53.69-.78,1.24-1.77,1.56-2.76.42-1.28-.03-1.74-1.37-1.8-.76-.03-1.52,0-2.26-.11-.24-.03-.43-.42-.64-.65.22-.18.44-.51.67-.51,3-.04,5.99-.03,8.99-.02.1,0,.2.06.61.2"/>
          <path id="Fill-4" class="cls-1" d="M178.7,63.23c.33-.15.65-.32.99-.46,1.92-.79,3.55-1.95,4.74-3.67,2.18-3.15,4.35-6.31,6.52-9.47,1.06-1.54,1.16-3.04.38-4.84-3.02-6.9-5.88-13.85-8.81-20.79-.21-.5-.48-.97-.71-1.45-.48-1-1.24-1.52-2.38-1.46-.4.02-.92.11-.93-.58,0-.64.39-.87.94-.86,1.24.02,2.48.12,3.73.1,2.11-.03,4.22-.12,6.32-.17.48-.01,1-.05,1.44.1.26.09.52.5.57.8.02.17-.38.51-.64.57-.52.12-1.07.09-1.61.13-.78.05-1.24.51-1.24,1.24,0,.79.04,1.65.33,2.37,1.83,4.5,3.73,8.96,5.62,13.44.13.3.27.6.47.85.26.32.59.57.89.85.24-.31.51-.6.73-.92.14-.22.23-.49.31-.74,1.51-4.56,3.03-9.11,4.5-13.68.22-.68.24-1.43.25-2.15,0-.95-.38-1.31-1.32-1.38-.84-.06-1.67-.08-2.51-.11-.45-.02-.71-.19-.69-.69.02-.49.29-.66.73-.66.22,0,.43,0,.65,0,2.67-.04,5.35-.08,8.02-.11.38,0,.76-.04,1.13.03.2.04.49.22.53.39.05.22-.04.54-.19.71-.16.18-.46.35-.7.35-1.25.01-1.81.88-2.24,1.82-1.45,3.16-2.93,6.31-4.23,9.54-3.91,9.72-8,19.35-12.81,28.66-.66,1.29-1.53,1.97-2.98,2.12-1.63.17-3.19.84-4.87.61-.31-.04-.61-.15-.91-.22,0-.09,0-.17,0-.26"/>
          <path id="Fill-5" class="cls-1" d="M146.26,24.56c0-6.02,0-12.05,0-18.07,0-2.96-.29-3.24-3.2-3.35-.46-.02-.94,0-1.36-.14-.26-.09-.57-.47-.57-.72,0-.21.4-.6.64-.61,2.92-.21,5.8-.59,8.6-1.46.63-.19.95.13.92.93-.04,1.08-.2,2.15-.21,3.23-.07,7.32-.12,14.64-.18,21.96-.04,5.05-.11,10.1-.14,15.15,0,.67.11,1.35.26,2,.23.99.58,1.22,1.59,1.27.73.03,1.46.03,2.17.17.26.05.45.46.68.7-.26.18-.5.5-.77.53-.72.08-1.46.04-2.19.04-3.27,0-6.54,0-9.81,0-.35,0-.72.07-1.05-.03-.31-.09-.73-.3-.8-.55-.14-.48.27-.71.72-.76.43-.05.86-.07,1.29-.08.76-.03,1.51-.01,2.27-.08.79-.07,1.16-.5,1.16-1.35-.03-3.86-.01-7.73-.01-11.59v-7.21h0"/>
          <path id="Fill-6" class="cls-1" d="M63.94,42.91c-2.65,2.13-5.59,3.7-8.94,4.17-4.71.67-8.98-.41-12.33-4.04-1.64-1.78-2.45-3.98-2.8-6.35-.61-4.16-.12-8.15,2.09-11.79,1.85-3.04,4.47-5.11,8.03-5.81,2.82-.56,5.4.22,7.86,1.56,2.43,1.33,4.32,3.21,5.73,5.59.6,1,.54,1.23-.62,1.45-3.76.74-7.52,1.48-11.29,2.1-2.05.34-4.13.46-6.2.64-.81.07-1.14.46-1.19,1.23-.51,6.64,3.69,11.55,10.34,12.18,2.87.27,5.59-.14,8.23-1.25.39-.16.81-.45,1.1.32h0ZM46.37,29.25c3.52-.57,7.03-1.12,10.55-1.7,1.36-.22,1.54-.57.91-1.85-.89-1.84-2.24-3.31-3.91-4.46-2.36-1.62-4.78-1.26-6.63.92-1.25,1.47-1.97,3.21-2.46,5.05-.5,1.91-.48,1.93,1.54,2.04h0Z"/>
          <path id="Fill-7" class="cls-1" d="M154.52,33.69c.02-4.65,1.36-8.79,4.95-11.95,3.94-3.46,8.86-3.72,13.66-.84,2.25,1.35,4.02,3.18,5.34,5.43.54.92.49,1.12-.51,1.33-3.41.7-6.82,1.41-10.25,1.97-2.42.39-4.88.58-7.33.79-.89.08-1.27.5-1.3,1.32-.19,4.75,1.57,9.56,7.35,11.44,3.67,1.2,7.29.99,10.85-.43.25-.1.49-.24.75-.29.18-.03.38.06.57.1-.06.2-.09.42-.19.6-.07.13-.24.22-.37.31-2.75,1.95-5.72,3.45-9.11,3.72-6.61.52-14.09-2.73-14.42-12.54-.01-.32,0-.65,0-.97h0ZM161.25,29.25c3.56-.58,7.12-1.15,10.68-1.75,1.14-.19,1.31-.51.82-1.6-.87-1.94-2.27-3.48-4.01-4.67-2.39-1.64-4.81-1.26-6.67.98-1.22,1.46-1.94,3.16-2.4,4.98-.49,1.94-.48,1.94,1.57,2.06h0Z"/>
          <path id="Fill-8" class="cls-1" d="M141.08,27.35c-1.26.32-2.26.61-3.27.84-5.09,1.15-10.25,1.85-15.45,2.25-.94.07-1.23.36-1.27,1.33-.21,5.77,2.42,10.54,9.1,11.88,3.19.64,6.29.27,9.29-.97.22-.09.44-.23.68-.26.15-.02.39.07.46.19.06.11,0,.34-.09.48-.1.15-.27.26-.43.37-2.84,2.02-5.91,3.57-9.43,3.77-6.53.38-13.59-2.85-14.12-12.11-.24-4.14.48-8.04,3.08-11.39,2.66-3.44,6.15-5.35,10.57-4.66,3.92.61,7.07,2.71,9.41,5.95.48.67.89,1.39,1.49,2.34h0ZM123.21,29.26c3.72-.61,7.44-1.22,11.16-1.84.49-.08.72-.39.57-.87-.13-.44-.27-.88-.49-1.27-.9-1.6-2.11-2.94-3.61-3.99-2.43-1.7-4.9-1.34-6.8.95-1.19,1.44-1.9,3.12-2.36,4.91q-.51,1.98,1.52,2.1h0Z"/>
          <path id="Fill-9" class="cls-1" d="M75.14,35.13c0,2.4-.01,4.81,0,7.21.01,1.9.5,2.39,2.4,2.47,1.22.05,2.43.08,3.65.11.52.01.81.2.78.78-.03.6-.45.52-.81.51-2.03-.07-4.05-.19-6.08-.2-2.08,0-4.15.09-6.23.14-.81.02-1.62.08-2.43.03-.22-.01-.62-.39-.59-.54.05-.26.33-.65.56-.68.94-.11,1.89-.13,2.83-.15.76-.01,1.12-.3,1.12-1.12-.03-6.78-.02-13.56-.04-20.34,0-1.63-.42-2.05-2.04-2.17-.67-.05-1.35-.07-2.03-.06-.5,0-.65-.21-.64-.69.01-.46.07-.82.63-.82.62,0,1.24.02,1.86,0,2.07-.07,4.15-.13,6.22-.23.75-.03.99.14.96.91-.02.67-.13,1.35-.12,2.02.01.81.33.98,1.01.56.9-.55,1.75-1.18,2.64-1.74.52-.33,1.08-.62,1.63-.89,2.11-1.02,3.93-.42,5.59,1.02.75.65,1.02,1.44.66,2.4-.26.71-.53,1.41-.81,2.11-.26.66-.65.64-1.09.16-.11-.12-.23-.23-.34-.35-1.89-2.21-4.28-2.31-6.81-1.51-1.66.52-2.47,1.82-2.5,3.77-.03,2.43,0,4.86,0,7.29h0"/>
          <path id="Fill-10" class="cls-1" d="M19.51,59.63v-5.53h1.37v8.58c-.82.27-1.33.03-1.78-.73-.96-1.65-2.02-3.25-3.19-4.85v5.62h-1.43v-8.39q1.26-.4,1.91.65c.97,1.58,1.95,3.15,2.92,4.72.07-.02.13-.04.2-.06"/>
          <path id="Fill-11" class="cls-1" d="M158.06,62.67c-.89.28-1.37-.03-1.79-.74-.96-1.65-2.02-3.25-3.2-4.84v5.62h-1.42v-8.38q1.25-.42,1.94.69c.82,1.33,1.65,2.66,2.47,3.99.13.22.29.42.59.59v-5.49h1.41v8.57"/>
          <path id="Fill-12" class="cls-1" d="M142.71,58.52c-.07.48-.1.96-.21,1.43-.45,1.95-1.69,2.96-3.59,2.96-1.9,0-3.26-1-3.6-2.92-.19-1.04-.19-2.16,0-3.2.36-1.97,1.89-3.01,3.89-2.87,2,.15,3.25,1.46,3.44,3.62.03.32,0,.65,0,.97.02,0,.05,0,.07,0h0ZM136.5,58.35c.16.69.24,1.42.49,2.09.31.82.97,1.26,1.89,1.26.92,0,1.55-.43,1.9-1.25.57-1.33.56-2.68.03-4.01-.33-.82-.97-1.28-1.88-1.3-.93-.02-1.63.43-1.96,1.29-.23.59-.31,1.24-.47,1.92h0Z"/>
          <path id="Fill-13" class="cls-1" d="M80.95,58.4c.07-.51.1-1.02.2-1.52.43-1.99,1.76-3.02,3.74-2.96,1.96.06,3.27,1.22,3.53,3.21.1.76.12,1.56.02,2.33-.3,2.36-1.69,3.53-3.97,3.45-1.94-.07-3.32-1.57-3.46-3.78-.02-.24,0-.49,0-.73-.02,0-.04,0-.06,0h0ZM87.15,58.42c-.17-.7-.26-1.4-.5-2.04-.3-.79-.96-1.22-1.83-1.24-.9-.02-1.57.38-1.93,1.2-.61,1.38-.6,2.78,0,4.15.36.82,1.01,1.21,1.93,1.2.89-.02,1.51-.45,1.82-1.23.25-.64.34-1.34.51-2.04h0Z"/>
          <path id="Fill-14" class="cls-1" d="M144.18,54.13c1.17,0,2.3-.09,3.42.02,1.24.13,1.86.81,2.08,1.93.22,1.16-.16,2.04-1.16,2.71-.11.07-.21.14-.28.19.67,1.24,1.32,2.44,1.98,3.66-1.43.29-1.44.29-2.04-.92-.28-.56-.55-1.11-.84-1.66-.36-.69-.92-.93-1.75-.73v3.36h-1.4v-8.56h0ZM145.59,58.06c.91-.05,1.9.31,2.41-.61.24-.43.25-1.25-.01-1.65-.55-.86-1.53-.45-2.39-.51v2.77h0Z"/>
          <path id="Fill-15" class="cls-1" d="M49.15,62.67q-1.48.23-2.06-.95c-.26-.53-.52-1.07-.8-1.59-.44-.8-.76-.94-1.82-.77v3.36h-1.4v-8.57c1.2,0,2.35-.07,3.49.02,1.11.09,1.81.78,2.04,1.88.24,1.1-.17,2.08-1.13,2.72-.11.07-.22.14-.32.21.67,1.23,1.32,2.45,2,3.7h0ZM44.52,55.27v2.8c.9-.06,1.89.31,2.4-.62.23-.42.25-1.18.02-1.59-.53-.92-1.53-.48-2.42-.59h0Z"/>
          <path id="Fill-16" class="cls-1" d="M5.81,54.09h1.32c.03.3.07.61.07.92.02,1.7,0,3.4.05,5.1.03,1.07.6,1.55,1.65,1.57,1.19.02,1.79-.54,1.82-1.77.03-1.62,0-3.24,0-4.86,0-.29,0-.59,0-.95h1.35c.02.15.07.33.07.51,0,1.78.02,3.56,0,5.35-.03,1.75-1.1,2.86-2.79,2.94-2.13.1-3.4-.71-3.52-2.57-.14-2.06-.03-4.14-.03-6.25"/>
          <path id="Fill-17" class="cls-1" d="M170.7,62.69c-1.32.16-1.37.17-1.71-1.05-.22-.78-.58-1.16-1.41-1.01-.21.04-.43,0-.65,0-1.8,0-1.83,0-2.47,1.64-.32.83-.93.34-1.51.46,1-2.8,1.93-5.52,2.99-8.2.12-.31.95-.37,1.47-.47.13-.02.41.22.47.39.95,2.64,1.88,5.28,2.81,7.92.02.07,0,.16,0,.29h0ZM168.25,59.62c-.49-1.41-.93-2.69-1.37-3.96-.06.01-.11.02-.17.03-.43,1.28-.86,2.57-1.31,3.93h2.85Z"/>
          <path id="Fill-18" class="cls-1" d="M109.4,62.76c1-2.81,1.94-5.53,3-8.21.12-.31.96-.37,1.47-.46.14-.02.42.27.5.47.94,2.59,1.85,5.18,2.77,7.78.03.1.03.21.05.31-1.29.28-1.4.27-1.72-.92-.23-.84-.62-1.25-1.51-1.09-.18.03-.38,0-.57,0-1.82,0-1.84,0-2.47,1.64-.32.84-.93.33-1.51.47h0ZM113.36,55.72c-.07,0-.13-.02-.2-.02-.43,1.28-.86,2.56-1.31,3.89h2.83c-.46-1.36-.89-2.61-1.32-3.87h0Z"/>
          <path id="Fill-19" class="cls-1" d="M40.2,57.76v1.22h-3.16v2.57h3.71c.18,1.17.14,1.22-.9,1.22-1.4,0-2.8,0-4.26,0v-8.67h5.05v1.17h-3.61v2.5h3.17"/>
          <path id="Fill-20" class="cls-1" d="M26.39,54.07q1.41-.06,1.82,1.15c.63,1.88,1.26,3.76,1.94,5.8.81-2.41,1.57-4.67,2.34-6.94h1.42c-.55,1.6-1.09,3.15-1.62,4.69-.4,1.17-.83,2.34-1.2,3.52-.16.5-.5.51-.88.46-.38-.05-.87.23-1.08-.39-.91-2.71-1.85-5.41-2.77-8.12-.01-.04.02-.1.03-.18"/>
          <path id="Fill-21" class="cls-1" d="M50.4,61.95c.2-.36.37-.65.49-.86.87.21,1.63.47,2.41.57.66.08,1.24-.2,1.42-.93.18-.72-.27-1.11-.84-1.39-.41-.2-.84-.37-1.25-.58-1.42-.7-1.94-1.65-1.65-2.97.24-1.11,1.28-1.9,2.71-1.85.83.03,1.64.35,2.54.56-.15.37-.21.55-.29.71-.07.14-.17.26-.25.39-.58-.16-1.11-.36-1.66-.45-.69-.11-1.35.03-1.58.79-.22.73.16,1.26.81,1.58.41.2.84.37,1.26.55,1.33.59,1.92,1.47,1.75,2.59-.17,1.13-1.2,2.06-2.49,2.2-1.2.13-2.3-.13-3.37-.94"/>
          <path id="Fill-22" class="cls-1" d="M107.8,60.77c.23.29.43.54.67.85-1.2,1.13-2.57,1.5-4.11,1.2-1.53-.3-2.43-1.33-2.66-2.8-.16-1.02-.2-2.12,0-3.12.62-3.01,4.06-3.99,6.54-1.86-.21.28-.43.57-.64.86-.5-.23-.94-.5-1.42-.64-1.43-.43-2.66.22-2.97,1.67-.18.85-.22,1.78-.1,2.64.28,1.87,1.82,2.63,3.56,1.85.36-.16.7-.4,1.13-.64"/>
          <path id="Fill-23" class="cls-1" d="M90.65,54.07h4.95v1.2h-3.5v2.47h3.13v1.23h-3.16v3.73h-1.42v-8.63"/>
          <path id="Fill-24" class="cls-1" d="M130.48,55.24v2.52h3.14v1.24h-3.18v3.65c-1.42.29-1.47.25-1.47-.99,0-2.18,0-4.37,0-6.55v-1.01h5.02v1.15h-3.51"/>
          <path id="Fill-25" class="cls-1" d="M72.88,62.73h-1.44c0-.96.05-1.9-.02-2.83-.04-.54-.17-1.11-.41-1.6-.58-1.18-1.26-2.32-1.89-3.48-.13-.23-.23-.47-.36-.72q1.52-.15,2.12,1.13c.39.84.8,1.69,1.27,2.68.51-1.02.93-1.89,1.36-2.75q.6-1.22,2.1-1.05c-.67,1.23-1.28,2.45-2,3.62-.56.91-.83,1.84-.74,2.9.05.67.01,1.34.01,2.1"/>
          <path id="Fill-26" class="cls-1" d="M67.53,54.11c-.02.41-.04.75-.07,1.17h-2.2v7.41h-1.44v-7.39h-2.29v-1.19h5.99"/>
          <path id="Fill-27" class="cls-1" d="M118.71,54.08h1.33v7.47h3.72v1.14h-5.05v-8.61"/>
          <path id="Fill-28" class="cls-1" d="M161.56,62.72h-1.34v-8.62h1.34v8.62"/>
          <path id="Fill-29" class="cls-1" d="M23.27,62.72v-8.62h1.34v8.62h-1.34"/>
          <path id="Fill-30" class="cls-1" d="M126.85,62.73h-1.33v-8.63h1.33v8.63"/>
          <path id="Fill-31" class="cls-1" d="M58.24,54.08h1.32c.02.31.07.62.07.93,0,2.19,0,4.37,0,6.56q0,1.28-1.39,1.13v-8.62"/>
        </g>
      </g>
    </g>
  </g>
</svg>