<?xml version="1.0" encoding="utf-8" standalone="no"?>
<!DOCTYPE svg PUBLIC "-//W3C//DTD SVG 1.1//EN"
  "http://www.w3.org/Graphics/SVG/1.1/DTD/svg11.dtd">
<svg xmlns:xlink="http://www.w3.org/1999/xlink" width="230.4pt" height="118.08pt" viewBox="0 0 230.4 118.08" xmlns="http://www.w3.org/2000/svg" version="1.1">
 <metadata>
  <rdf:RDF xmlns:dc="http://purl.org/dc/elements/1.1/" xmlns:cc="http://creativecommons.org/ns#" xmlns:rdf="http://www.w3.org/1999/02/22-rdf-syntax-ns#">
   <cc:Work>
    <dc:type rdf:resource="http://purl.org/dc/dcmitype/StillImage"/>
    <dc:date>2023-11-16T13:37:40.411594</dc:date>
    <dc:format>image/svg+xml</dc:format>
    <dc:creator>
     <cc:Agent>
      <dc:title>Matplotlib v3.8.0, https://matplotlib.org/</dc:title>
     </cc:Agent>
    </dc:creator>
   </cc:Work>
  </rdf:RDF>
 </metadata>
 <defs>
  <style type="text/css">*{stroke-linejoin: round; stroke-linecap: butt}</style>
 </defs>
 <g id="figure_1">
  <g id="patch_1">
   <path d="M 0 118.08 
L 230.4 118.08 
L 230.4 0 
L 0 0 
L 0 118.08 
z
" style="fill: none"/>
  </g>
  <g id="axes_1">
   <g id="line2d_1">
    <path d="M 13.745455 58.669986 
L 13.796258 58.607953 
L 13.897865 56.326535 
L 13.999472 56.470119 
L 14.355096 56.569034 
L 15.523576 56.578641 
L 16.031611 56.487303 
L 16.184021 56.499215 
L 16.488842 56.943564 
L 16.692056 56.511563 
L 16.74286 56.616039 
L 16.844467 56.691678 
L 17.149288 56.208332 
L 17.352501 56.579178 
L 17.403305 56.513028 
L 17.555715 56.451466 
L 17.708126 56.820991 
L 18.368571 59.255465 
L 18.419375 59.20599 
L 18.774999 58.098714 
L 18.825802 58.168346 
L 19.029016 59.687466 
L 19.333837 61.545523 
L 19.435444 61.261931 
L 19.740265 59.457914 
L 19.841872 56.976709 
L 20.045086 50.912674 
L 20.553121 58.930248 
L 20.857941 64.568801 
L 21.213566 72.46363 
L 21.467583 66.160331 
L 21.56919 66.972749 
L 21.619994 67.434109 
L 21.670797 67.395639 
L 21.823208 66.546453 
L 21.975618 69.678634 
L 22.026421 70.719943 
L 22.077225 70.258939 
L 22.178832 56.896528 
L 22.331242 29.994944 
L 22.382046 30.167293 
L 22.534456 36.114151 
L 22.636063 34.423774 
L 22.686867 34.736186 
L 22.788474 36.344778 
L 22.839277 36.296771 
L 23.042491 34.490434 
L 23.093294 34.572318 
L 23.194901 37.099079 
L 23.855347 67.661872 
L 24.668202 109.44 
L 24.719006 108.659774 
L 24.871416 94.305131 
L 25.023827 30.276527 
L 25.07463 12.681525 
L 25.125434 13.547826 
L 25.277844 38.865326 
L 25.328648 37.570206 
L 25.379451 36.244655 
L 25.481058 42.814106 
L 25.735075 62.069851 
L 26.141503 86.203329 
L 26.192307 80.211496 
L 26.344717 8.64 
L 26.395521 10.913737 
L 26.547931 43.749877 
L 26.598734 43.086131 
L 26.649538 42.101488 
L 26.751145 50.450885 
L 26.852752 61.753447 
L 26.903555 57.15119 
L 27.055966 19.530581 
L 27.106769 21.324427 
L 27.25918 35.86058 
L 27.309983 34.843382 
L 27.360787 33.897267 
L 27.41159 34.729079 
L 28.021232 60.969615 
L 28.072035 61.414983 
L 28.224446 51.420047 
L 28.42766 41.73706 
L 28.529267 44.996397 
L 29.138908 68.608404 
L 29.189712 67.703112 
L 29.342122 49.185258 
L 29.392926 49.516283 
L 29.646943 62.515014 
L 29.799354 69.0859 
L 30.053371 80.716881 
L 30.104174 78.721564 
L 30.256585 55.588781 
L 30.307388 59.665745 
L 30.510602 74.925609 
L 30.612209 78.205726 
L 30.76462 88.947415 
L 30.815423 84.280851 
L 30.967834 21.573326 
L 31.018637 26.475404 
L 31.171047 57.01965 
L 31.221851 56.326347 
L 31.272654 55.924935 
L 31.425065 65.684424 
L 31.577475 25.414638 
L 31.679082 34.75898 
L 31.780689 44.750995 
L 31.831493 43.843429 
L 31.882296 42.65882 
L 31.9331 43.381984 
L 32.187117 56.592579 
L 32.339527 45.874342 
L 32.390331 47.064711 
L 32.593545 55.597006 
L 32.644348 55.879596 
L 32.745955 58.799334 
L 32.999973 67.998708 
L 33.10158 63.537347 
L 33.304794 53.021851 
L 33.406401 56.69323 
L 34.016042 86.147354 
L 34.117649 73.59862 
L 34.27006 53.473393 
L 34.42247 66.481254 
L 34.473274 64.686749 
L 34.625684 52.061299 
L 34.676487 53.862657 
L 34.879701 63.743136 
L 34.981308 65.677476 
L 35.641754 90.45807 
L 35.692557 90.025773 
L 35.844967 88.893013 
L 35.946574 82.195781 
L 36.149788 33.697916 
L 36.200592 43.366202 
L 36.302199 59.872014 
L 36.353002 58.423174 
L 36.708627 17.544126 
L 36.810234 23.371396 
L 37.572286 87.112403 
L 37.623089 83.404942 
L 37.7755 45.920342 
L 37.826303 49.644473 
L 38.029517 71.114988 
L 38.08032 71.717269 
L 38.232731 84.176471 
L 38.435945 99.671461 
L 38.486748 95.690119 
L 38.689962 23.443871 
L 38.740766 33.098372 
L 38.842373 49.257561 
L 38.893176 48.100504 
L 39.147194 33.414693 
L 39.2488 19.859708 
L 39.299604 23.342588 
L 39.452014 35.004781 
L 39.502818 34.975974 
L 39.553621 35.489244 
L 39.858442 50.49404 
L 39.960049 46.625476 
L 40.11246 34.085702 
L 40.163263 35.746144 
L 40.366477 40.857595 
L 40.518887 49.25277 
L 40.671298 57.616145 
L 40.772905 41.386259 
L 40.874512 27.756029 
L 41.128529 49.040196 
L 41.230136 53.23701 
L 41.534957 72.484133 
L 41.58576 71.601236 
L 41.839778 56.947121 
L 41.890581 58.070818 
L 42.551027 88.437838 
L 42.60183 88.061682 
L 42.906651 59.952945 
L 42.957454 61.812012 
L 43.109865 65.657147 
L 43.160668 65.638726 
L 43.262275 62.877134 
L 43.465489 53.52815 
L 43.516293 54.255124 
L 43.6179 55.904178 
L 43.77031 52.828132 
L 43.821113 52.855667 
L 44.125934 60.945974 
L 44.278345 66.943224 
L 44.329148 66.835963 
L 44.633969 50.493651 
L 44.684773 52.547736 
L 44.887987 62.380292 
L 45.0912 53.864629 
L 45.142004 55.799346 
L 45.345218 62.291044 
L 45.497628 65.545892 
L 45.548432 65.349533 
L 45.751646 54.782053 
L 45.802449 54.786644 
L 46.056467 59.208637 
L 46.25968 55.514839 
L 46.310484 55.881901 
L 46.513698 58.146889 
L 46.666108 58.582135 
L 46.767715 55.618695 
L 46.920126 49.833691 
L 46.970929 50.259124 
L 47.12334 54.772447 
L 47.174143 54.559673 
L 47.224947 54.151919 
L 47.27575 54.185007 
L 47.42816 56.624846 
L 47.580571 60.538147 
L 47.732981 54.201495 
L 47.783785 54.805303 
L 47.885392 57.440199 
L 47.936195 57.216111 
L 48.088606 54.934727 
L 48.139409 55.253514 
L 48.545837 63.201743 
L 48.749051 71.961341 
L 48.799854 70.022489 
L 49.003068 50.696184 
L 49.053872 52.554038 
L 49.257086 59.90737 
L 49.307889 59.901648 
L 49.409496 57.128553 
L 49.61271 48.677918 
L 49.663513 49.039043 
L 50.171548 64.593907 
L 50.222352 64.019971 
L 50.476369 52.911404 
L 50.527173 54.366868 
L 50.62878 56.667749 
L 50.679583 55.839148 
L 50.78119 53.862536 
L 50.831993 54.457554 
L 51.136814 60.358686 
L 51.289225 62.180584 
L 51.492439 57.003413 
L 51.543242 57.389489 
L 51.79726 66.895184 
L 51.848063 65.264301 
L 52.051277 57.435414 
L 52.10208 57.631675 
L 52.152884 57.547876 
L 52.203687 57.35592 
L 52.406901 59.006143 
L 52.610115 63.585276 
L 52.813329 67.09011 
L 53.016543 63.875422 
L 53.067346 64.344872 
L 53.219757 70.586195 
L 53.27056 70.471717 
L 53.524578 61.393591 
L 53.829399 52.063118 
L 54.083416 49.88719 
L 54.235826 50.26749 
L 54.337433 53.963693 
L 54.43904 61.58207 
L 54.489844 61.432246 
L 54.693058 46.822647 
L 54.743861 47.341208 
L 54.896272 52.884127 
L 54.947075 52.44269 
L 55.048682 51.409478 
L 55.099486 51.752961 
L 55.3027 53.371159 
L 55.404306 53.431985 
L 55.505913 52.917154 
L 55.60752 52.08868 
L 55.658324 52.122266 
L 55.861538 56.257868 
L 56.166359 63.661064 
L 56.267966 63.47432 
L 56.318769 63.51765 
L 56.420376 63.921087 
L 56.471179 63.868198 
L 56.725197 62.072379 
L 56.877607 60.12035 
L 57.080821 62.598359 
L 57.131625 60.149797 
L 57.334839 30.899048 
L 57.385642 33.135727 
L 57.538053 37.74832 
L 57.588856 37.376703 
L 57.639659 37.622653 
L 57.893677 46.653155 
L 58.249301 57.358821 
L 58.300105 57.274099 
L 58.452515 54.127647 
L 58.503319 54.381736 
L 58.706533 61.548117 
L 58.757336 61.09975 
L 58.858943 58.469614 
L 58.909746 59.628187 
L 59.366978 86.649144 
L 59.417781 84.078617 
L 59.570192 35.28981 
L 59.620995 36.343221 
L 59.773406 59.462973 
L 59.824209 57.524121 
L 59.976619 39.294542 
L 60.027423 40.478507 
L 60.179833 50.663908 
L 60.230637 49.117763 
L 60.332244 45.762312 
L 60.535458 64.262636 
L 60.789475 86.365971 
L 60.840279 81.550482 
L 60.992689 61.212641 
L 61.094296 67.723344 
L 61.145099 66.889637 
L 61.551527 39.542696 
L 61.653134 36.966653 
L 61.754741 42.121042 
L 62.262776 84.980535 
L 62.364383 65.909848 
L 62.46599 46.687995 
L 62.516793 51.320857 
L 62.6184 62.026723 
L 62.669204 61.706144 
L 62.770811 58.658095 
L 62.821614 59.922715 
L 62.974025 72.027366 
L 63.024828 70.005895 
L 63.177239 43.826237 
L 63.228042 44.143105 
L 63.380452 59.40924 
L 63.431256 58.629564 
L 63.532863 55.867182 
L 63.583666 56.961405 
L 63.939291 70.640681 
L 63.990094 71.334208 
L 64.040898 70.840001 
L 64.599736 47.972715 
L 64.650539 49.181927 
L 64.95536 65.932685 
L 65.158574 54.520947 
L 65.209378 56.466927 
L 65.260181 58.250151 
L 65.310985 58.151236 
L 65.514199 50.032247 
L 65.565002 50.045349 
L 65.869823 57.125299 
L 66.276251 76.527641 
L 66.428661 62.534778 
L 66.581072 49.955991 
L 66.631875 50.530231 
L 66.733482 55.646615 
L 66.784286 54.127499 
L 66.936696 37.929681 
L 66.987499 39.493165 
L 67.241517 57.625466 
L 67.495534 66.650782 
L 67.546338 65.992212 
L 67.851159 55.409201 
L 68.003569 52.722001 
L 68.054372 53.06523 
L 68.105176 53.529875 
L 68.155979 53.030665 
L 68.4608 44.143068 
L 68.562407 47.372582 
L 68.867228 59.486463 
L 68.918032 59.17509 
L 69.070442 56.695046 
L 69.121246 56.877779 
L 69.172049 56.681964 
L 69.324459 51.204747 
L 69.375263 53.160699 
L 69.680084 67.120581 
L 69.781691 69.875818 
L 69.883298 64.766678 
L 70.137315 49.68116 
L 70.188119 50.137534 
L 70.64535 64.387537 
L 70.696153 63.953915 
L 71.051778 46.678126 
L 71.102581 46.366429 
L 71.153385 46.743331 
L 71.610616 53.449631 
L 71.712223 50.387072 
L 72.017044 39.521376 
L 72.067847 39.126351 
L 72.575882 52.617988 
L 72.880703 62.526401 
L 73.388738 76.228001 
L 73.744362 79.881442 
L 74.049183 91.525164 
L 74.099986 90.484426 
L 74.557218 46.565011 
L 74.658825 47.745639 
L 74.811235 38.974544 
L 74.912842 34.995107 
L 74.963645 35.944005 
L 75.217663 42.75912 
L 75.31927 44.688604 
L 75.370073 44.651697 
L 75.522484 42.364903 
L 75.573287 42.42267 
L 75.725698 42.944937 
L 75.928912 42.370127 
L 75.979715 42.462999 
L 76.081322 45.89381 
L 76.284536 62.594907 
L 76.335339 62.060119 
L 76.386143 61.02257 
L 76.436946 61.577982 
L 76.538553 66.495452 
L 76.589357 66.445606 
L 76.741767 60.579031 
L 76.944981 69.095763 
L 76.995785 67.827704 
L 77.249802 60.451548 
L 77.300605 60.679856 
L 77.453016 66.08527 
L 77.503819 65.787337 
L 77.65623 61.519159 
L 77.757837 64.088351 
L 77.80864 63.658734 
L 78.062658 57.174779 
L 78.215068 54.884111 
L 78.265872 55.581681 
L 78.469085 58.774671 
L 78.519889 58.514102 
L 78.773906 51.086811 
L 78.82471 51.760392 
L 79.231138 65.228711 
L 79.281941 65.192333 
L 79.332745 65.179779 
L 79.485155 65.391207 
L 79.535958 65.202315 
L 79.637565 62.470038 
L 79.739172 59.634078 
L 79.789976 60.360303 
L 80.094797 66.321745 
L 80.348814 69.595529 
L 80.552028 72.373922 
L 80.602832 71.261498 
L 80.907652 54.493917 
L 81.110866 49.212018 
L 81.16167 49.505343 
L 81.517294 59.978161 
L 81.618901 64.172203 
L 81.771312 47.639008 
L 81.822115 48.073962 
L 82.076132 64.253277 
L 82.126936 63.985398 
L 82.279346 47.798268 
L 82.380953 40.530391 
L 82.584167 58.324834 
L 82.685774 57.190245 
L 82.838185 54.378797 
L 82.990595 51.384868 
L 83.041398 51.560406 
L 83.193809 52.896911 
L 83.244612 52.80524 
L 83.295416 53.071526 
L 83.854254 65.577784 
L 84.006665 75.874639 
L 84.108271 64.546784 
L 84.362289 40.774635 
L 84.514699 45.784185 
L 84.81952 54.434696 
L 85.175145 65.120839 
L 85.276751 55.442092 
L 85.378358 46.550024 
L 85.429162 47.853568 
L 85.479965 49.729984 
L 85.530769 49.716237 
L 85.632376 46.89021 
L 85.683179 47.660054 
L 85.886393 61.579145 
L 86.140411 76.048313 
L 86.292821 81.488477 
L 86.445231 71.483016 
L 86.699249 54.479964 
L 86.750052 53.692346 
L 86.851659 56.862353 
L 87.105677 66.078304 
L 87.15648 66.065827 
L 87.410498 54.385837 
L 87.461301 54.559022 
L 87.664515 57.974939 
L 87.715318 57.539178 
L 88.223353 44.571277 
L 88.274157 45.512704 
L 88.528174 55.761013 
L 88.934602 61.712643 
L 89.036209 64.607027 
L 89.137816 56.763636 
L 89.290226 44.453068 
L 89.696654 63.776277 
L 89.747458 64.251619 
L 90.001475 53.420367 
L 90.103082 55.401869 
L 90.458706 70.550881 
L 90.50951 69.952367 
L 90.915938 53.546242 
L 90.966741 53.510293 
L 91.068348 54.273479 
L 91.220758 57.435276 
L 91.373169 61.113328 
L 91.67799 49.191833 
L 91.728793 49.988323 
L 92.084418 59.608765 
L 92.236828 55.437528 
L 92.592452 67.286418 
L 92.643256 67.03679 
L 92.84647 63.129837 
L 92.897273 63.514402 
L 93.151291 69.776963 
L 93.252898 63.223348 
L 93.506915 47.629424 
L 93.557718 46.315608 
L 93.608522 46.717114 
L 93.964146 58.586538 
L 94.01495 58.731617 
L 94.268967 48.430805 
L 94.370574 50.59435 
L 94.675395 59.352107 
L 94.726198 60.176792 
L 94.777002 59.739084 
L 95.18343 51.061609 
L 95.285037 54.28803 
L 95.589858 64.96326 
L 95.742268 68.16191 
L 95.793071 68.124662 
L 95.945482 61.5327 
L 96.148696 43.173546 
L 96.250303 46.729535 
L 96.453517 55.161054 
L 96.605927 61.550402 
L 96.707534 64.370784 
L 96.859944 59.038168 
L 96.910748 60.624842 
L 97.012355 64.604278 
L 97.063158 64.357876 
L 97.215569 60.406743 
L 97.266372 60.410449 
L 97.367979 61.168424 
L 97.418783 61.065001 
L 97.52039 58.877208 
L 97.825211 51.414166 
L 98.180835 59.936106 
L 98.231638 58.303694 
L 98.384049 51.922441 
L 98.434852 52.177434 
L 98.485656 52.497319 
L 98.536459 52.313183 
L 98.587263 52.044636 
L 98.68887 53.314997 
L 98.790477 54.54836 
L 98.84128 54.506074 
L 98.892084 54.416075 
L 98.942887 54.500898 
L 99.044494 55.995097 
L 99.146101 57.926431 
L 99.349315 53.997528 
L 99.400118 55.525099 
L 99.806546 73.597775 
L 99.85735 73.0417 
L 100.162171 62.282882 
L 100.416188 54.570879 
L 100.466991 54.520382 
L 100.873419 61.122179 
L 100.924223 60.94002 
L 101.432257 45.649366 
L 101.483061 46.455991 
L 101.889489 57.332751 
L 101.940292 57.559625 
L 102.245113 50.08407 
L 102.295917 50.70061 
L 102.448327 52.642626 
L 102.499131 52.583434 
L 102.753148 48.690533 
L 102.803951 49.18039 
L 103.108772 52.528406 
L 103.36279 55.258566 
L 103.464397 58.437164 
L 103.667611 72.386223 
L 103.718414 72.296568 
L 103.972431 69.391367 
L 104.124842 60.038706 
L 104.277252 56.834867 
L 104.378859 56.508144 
L 104.480466 57.382877 
L 104.734484 59.432984 
L 104.83609 60.16721 
L 104.937697 61.541162 
L 104.988501 61.17424 
L 105.242518 55.775973 
L 105.496536 60.087526 
L 105.547339 59.973379 
L 105.648946 58.144139 
L 105.85216 53.751386 
L 106.00457 58.693491 
L 106.106177 61.03387 
L 106.156981 60.480883 
L 106.410998 51.670954 
L 106.461802 51.862281 
L 106.665016 57.64653 
L 106.715819 57.607408 
L 106.817426 57.363972 
L 108.03671 65.733525 
L 108.087513 65.322445 
L 108.493941 55.39795 
L 108.544744 55.959961 
L 108.697155 59.694339 
L 108.798762 55.146016 
L 109.001976 46.173995 
L 109.20519 50.136543 
L 109.51001 63.759796 
L 109.560814 61.668498 
L 109.713224 55.224073 
L 109.764028 55.703462 
L 109.865635 56.471983 
L 110.018045 51.319462 
L 110.119652 48.59911 
L 110.170456 49.346165 
L 110.424473 59.909606 
L 110.475277 59.392539 
L 110.52608 59.174642 
L 110.627687 60.295293 
L 110.932508 64.25472 
L 110.983311 64.001427 
L 111.288132 51.702497 
L 111.389739 53.376743 
L 111.440543 53.778607 
L 111.491346 53.587242 
L 111.643757 51.908583 
L 111.69456 52.030447 
L 111.84697 56.037883 
L 112.151791 65.323687 
L 112.202595 64.447127 
L 112.609023 54.519665 
L 112.761433 52.259696 
L 112.86304 54.768103 
L 113.218664 67.796506 
L 113.320271 64.174532 
L 113.523485 56.545775 
L 113.625092 55.404934 
L 113.828306 51.461634 
L 113.87911 51.501229 
L 113.929913 51.565919 
L 114.03152 51.158512 
L 114.285537 49.10194 
L 114.336341 49.564703 
L 114.488751 51.162223 
L 114.539555 51.064232 
L 114.590358 51.173081 
L 114.742769 55.22658 
L 114.945983 58.458312 
L 115.250803 54.967746 
L 115.301607 55.271542 
L 115.504821 63.65219 
L 115.758838 70.446058 
L 115.962052 70.004426 
L 116.165266 64.941721 
L 116.673301 49.790476 
L 116.724104 49.879408 
L 116.927318 52.278574 
L 117.130532 60.821082 
L 117.38455 67.573826 
L 117.486157 64.718432 
L 117.943388 50.407912 
L 117.994191 50.653228 
L 118.502226 68.877452 
L 118.603833 66.67484 
L 119.315082 41.915038 
L 119.365885 41.987236 
L 119.619903 53.730576 
L 119.924723 67.893627 
L 119.975527 68.573207 
L 120.077134 65.536193 
L 120.178741 62.577771 
L 120.229544 62.769969 
L 120.331151 63.403619 
L 120.432758 61.371746 
L 120.635972 53.483946 
L 120.686776 53.886184 
L 121.19481 66.803441 
L 121.245614 67.648596 
L 121.296417 67.631552 
L 122.160076 48.670641 
L 122.261683 50.070774 
L 122.515701 54.079403 
L 122.718915 55.033774 
L 122.820522 55.697785 
L 123.176146 58.785165 
L 123.37936 55.323883 
L 123.684181 51.228855 
L 123.734984 51.694769 
L 123.887395 53.338295 
L 123.989002 52.092436 
L 124.344626 47.254386 
L 124.39543 46.96514 
L 124.497036 48.574499 
L 124.649447 55.413639 
L 124.852661 64.689539 
L 125.055875 68.921073 
L 125.106678 67.878596 
L 125.309892 63.944673 
L 125.411499 64.364707 
L 125.462303 64.250106 
L 125.56391 63.597643 
L 125.665516 60.251251 
L 125.919534 49.594735 
L 125.970337 49.655584 
L 126.325962 61.219904 
L 126.529176 66.254228 
L 127.03721 57.187373 
L 127.443638 59.954547 
L 127.900869 57.076116 
L 127.951673 57.256206 
L 128.05328 57.902156 
L 128.104083 57.753345 
L 128.307297 53.972281 
L 128.612118 46.5721 
L 128.662922 46.620607 
L 129.170956 66.738838 
L 129.22176 67.042736 
L 129.424974 62.691541 
L 129.526581 63.18101 
L 129.577384 63.250498 
L 129.780598 61.88496 
L 129.933009 58.412594 
L 130.187026 51.233513 
L 130.39024 53.238096 
L 130.441043 53.069851 
L 130.491847 53.019351 
L 130.644257 53.529674 
L 130.898275 51.253612 
L 130.999882 51.675457 
L 131.203096 55.317721 
L 131.406309 61.609344 
L 131.457113 61.319972 
L 131.609523 59.342641 
L 131.761934 60.103398 
L 132.015951 59.249645 
L 132.066755 59.248288 
L 132.117558 59.10646 
L 132.219165 57.497092 
L 132.574789 49.709349 
L 132.778003 54.562457 
L 133.133628 60.604829 
L 133.184431 60.331211 
L 133.438449 58.539293 
L 133.692466 52.886095 
L 133.794073 57.006949 
L 133.946483 63.35323 
L 133.997287 62.968259 
L 134.352911 54.227988 
L 134.505322 58.194885 
L 134.911749 66.285476 
L 135.06416 58.896011 
L 135.318177 49.4146 
L 135.419784 52.331569 
L 135.724605 62.578427 
L 135.826212 60.368927 
L 136.38505 44.127048 
L 136.486657 48.104977 
L 136.943889 75.145518 
L 136.994692 76.509336 
L 137.045496 75.572895 
L 137.604334 36.701668 
L 137.655137 39.464009 
L 138.061565 64.585801 
L 138.112369 65.818218 
L 138.163172 64.80788 
L 138.366386 59.128941 
L 138.417189 59.288984 
L 138.823617 67.412839 
L 138.874421 66.749354 
L 138.976028 65.865613 
L 139.179242 68.133488 
L 139.230045 67.992375 
L 139.382456 65.885182 
L 139.839687 52.171976 
L 140.042901 50.606731 
L 140.500132 43.167124 
L 140.550935 43.376032 
L 140.703346 52.748694 
L 140.957363 64.394049 
L 141.008167 65.423729 
L 141.05897 65.350709 
L 141.312988 59.856684 
L 141.363791 60.432539 
L 141.617809 68.904608 
L 142.07504 57.425781 
L 142.176647 55.505564 
L 142.430664 49.657693 
L 142.481468 49.556538 
L 142.583075 47.707043 
L 142.684682 43.915052 
L 142.735485 44.143361 
L 143.24352 70.524328 
L 143.497537 64.307509 
L 143.548341 65.259296 
L 143.802358 70.115861 
L 144.056375 73.610651 
L 144.107179 73.601159 
L 144.259589 71.329593 
L 144.412 58.977118 
L 144.716821 34.692966 
L 145.174052 71.215836 
L 145.275659 68.688355 
L 145.631283 50.340801 
L 145.682087 49.901756 
L 145.986908 65.555399 
L 146.190122 77.183227 
L 146.240925 76.979949 
L 146.545746 70.045908 
L 146.850567 59.458343 
L 147.256995 34.296931 
L 147.561815 41.124884 
L 147.866636 49.578192 
L 147.968243 50.68622 
L 148.222261 55.349694 
L 148.323868 55.521589 
L 148.476278 57.042234 
L 148.679492 59.042793 
L 148.781099 57.975081 
L 148.933509 56.450714 
L 149.035116 56.899844 
L 149.289134 59.394205 
L 149.695562 67.732343 
L 149.746365 67.761526 
L 149.898775 64.562571 
L 150.2544 57.119703 
L 150.356007 56.881532 
L 150.508417 55.535253 
L 150.660828 53.918079 
L 150.813238 59.028273 
L 151.016452 61.89026 
L 151.118059 62.228564 
L 151.168862 62.181643 
L 151.270469 61.113711 
L 151.57529 54.774713 
L 151.626094 54.359985 
L 151.676897 54.456437 
L 151.880111 56.754348 
L 151.930915 56.708337 
L 152.235735 54.455634 
L 152.388146 53.589965 
L 152.438949 53.853964 
L 152.642163 55.864318 
L 153.201002 49.933209 
L 153.251805 50.580533 
L 153.658233 58.543393 
L 153.709036 58.381517 
L 153.91225 55.861951 
L 153.963054 55.981122 
L 154.013857 55.922079 
L 154.217071 54.219068 
L 154.521892 49.998783 
L 154.572695 50.182766 
L 155.029927 56.859361 
L 155.334748 63.790043 
L 155.385551 64.076909 
L 155.436355 64.005092 
L 155.588765 61.6819 
L 155.944389 54.393045 
L 156.045996 53.418527 
L 156.503228 59.773645 
L 156.808048 63.917269 
L 156.909655 62.692455 
L 157.316083 52.307839 
L 157.366887 52.921509 
L 157.824118 62.999448 
L 157.874921 62.759942 
L 158.128939 58.944105 
L 158.230546 58.279283 
L 158.382956 57.287515 
L 158.484563 57.297496 
L 158.636974 56.804469 
L 158.890991 54.78101 
L 158.941795 55.232817 
L 159.145008 57.985629 
L 159.195812 57.776593 
L 159.60224 51.138366 
L 159.75465 54.21488 
L 160.313488 64.647465 
L 160.364292 64.436056 
L 160.567506 62.716641 
L 160.821523 59.098253 
L 160.92313 58.190196 
L 161.177148 55.35413 
L 161.227951 55.364358 
L 161.481968 56.045869 
L 161.532772 56.125802 
L 161.583575 56.052158 
L 161.786789 53.676221 
L 162.040807 51.33321 
L 162.09161 51.629311 
L 162.294824 54.933523 
L 162.548841 60.672523 
L 162.701252 61.947456 
L 163.006073 59.564356 
L 163.056876 59.93633 
L 163.26009 61.712 
L 163.310894 61.504278 
L 163.666518 55.814338 
L 163.717321 56.069875 
L 164.072946 59.44312 
L 164.326963 57.201571 
L 164.580981 55.784074 
L 164.682588 55.799978 
L 164.784194 55.574581 
L 164.987408 54.28015 
L 165.038212 54.393587 
L 165.59705 61.225016 
L 165.952674 59.437339 
L 166.054281 59.794196 
L 166.155888 60.275409 
L 166.206692 60.191476 
L 166.61312 57.57766 
L 166.816334 56.315083 
L 166.917941 55.157473 
L 167.273565 48.758825 
L 167.324368 48.988067 
L 167.629189 54.830978 
L 167.883207 60.066082 
L 167.984814 60.123908 
L 168.188027 61.131662 
L 168.442045 63.486842 
L 168.645259 60.533799 
L 169.254901 52.41383 
L 169.610525 55.393639 
L 169.712132 55.251059 
L 169.762935 55.148769 
L 169.813739 55.251195 
L 170.220167 58.558068 
L 170.27097 58.426458 
L 170.423381 58.247335 
L 170.524987 58.796218 
L 170.982219 62.836558 
L 171.337843 60.284128 
L 171.388647 60.405869 
L 171.693467 62.60748 
L 171.795074 61.367459 
L 172.303109 51.255562 
L 172.557127 55.853721 
L 172.709537 57.791111 
L 172.760341 57.606471 
L 173.014358 55.256842 
L 173.115965 55.239809 
L 173.217572 55.125536 
L 173.420786 56.095213 
L 173.77641 59.150173 
L 174.132034 63.314044 
L 174.182838 63.207323 
L 174.284445 62.361158 
L 174.589266 57.214482 
L 174.640069 57.237858 
L 174.741676 56.921954 
L 175.0973 54.700197 
L 175.198907 55.60674 
L 175.402121 57.39058 
L 175.605335 57.283828 
L 176.570601 61.468024 
L 176.723012 62.996465 
L 176.773815 62.809994 
L 177.027833 58.596729 
L 177.180243 56.962919 
L 177.28185 57.062454 
L 177.43426 56.184827 
L 177.535867 55.814031 
L 177.688278 57.188108 
L 178.145509 60.997803 
L 178.755151 55.697793 
L 179.212382 57.345911 
L 179.313989 57.46722 
L 179.364793 57.419938 
L 179.61881 57.236554 
L 179.923631 57.623487 
L 180.177648 59.242875 
L 180.380862 60.169801 
L 180.533273 59.356091 
L 181.041307 55.817425 
L 181.092111 56.110527 
L 181.396932 58.120805 
L 181.600146 58.667506 
L 181.650949 58.62284 
L 182.006573 57.365096 
L 182.158984 56.963953 
L 182.463805 57.544018 
L 182.870233 57.064324 
L 183.022643 57.711618 
L 183.327464 58.851668 
L 183.429071 58.70811 
L 183.581481 57.921457 
L 183.835499 56.271141 
L 183.987909 56.704586 
L 184.089516 56.091564 
L 184.29273 54.445752 
L 184.394337 55.318075 
L 184.597551 56.95931 
L 184.749961 57.236632 
L 185.105586 59.050193 
L 185.207193 59.828244 
L 185.257996 59.782612 
L 185.664424 57.17081 
L 185.969245 56.917995 
L 186.070852 56.478309 
L 186.223262 55.513586 
L 186.578887 56.295752 
L 186.62969 56.363865 
L 186.680493 56.280078 
L 186.985314 54.906528 
L 187.391742 55.992102 
L 187.64576 56.606925 
L 188.204598 61.197588 
L 188.306205 60.643858 
L 188.96665 55.780918 
L 189.068257 55.613328 
L 189.220667 54.760539 
L 189.474685 52.98527 
L 189.728702 55.191142 
L 190.033523 58.042416 
L 190.592361 62.182224 
L 190.643165 62.289563 
L 190.693968 62.213093 
L 190.846379 61.342649 
L 191.202003 57.414811 
L 191.506824 53.649656 
L 191.608431 53.427635 
L 191.659234 53.505585 
L 191.862448 54.115395 
L 192.522893 59.482929 
L 192.6245 59.418539 
L 192.827714 59.550449 
L 192.980125 60.118988 
L 193.030928 60.092743 
L 193.386553 57.930326 
L 193.843784 54.313437 
L 193.996194 55.714357 
L 194.250212 57.126045 
L 194.555033 56.978271 
L 194.65664 57.04162 
L 194.859853 57.496228 
L 194.910657 57.474552 
L 195.063067 57.516935 
L 195.317085 57.698334 
L 195.621906 59.746774 
L 195.672709 59.610907 
L 196.180744 56.0644 
L 196.637975 56.349582 
L 197.044403 58.36324 
L 197.095206 58.31625 
L 197.29842 58.137581 
L 197.400027 58.263521 
L 197.806455 59.230354 
L 198.162079 58.719125 
L 198.212883 58.799029 
L 198.517704 59.468494 
L 198.568507 59.43196 
L 198.873328 58.477263 
L 198.924132 58.516431 
L 199.381363 59.705477 
L 200.397433 54.868299 
L 200.702253 53.570283 
L 200.956271 53.4191 
L 201.057878 53.508214 
L 201.515109 54.969958 
L 201.81993 56.586567 
L 201.97234 56.719033 
L 202.378768 57.646646 
L 202.581982 58.360959 
L 202.734392 58.846538 
L 203.445641 58.634963 
L 203.699659 59.170514 
L 204.15689 60.19826 
L 204.207693 60.128959 
L 204.664925 58.922675 
L 204.918942 57.964996 
L 205.020549 57.970592 
L 205.782601 59.105254 
L 205.884208 58.989589 
L 206.087422 58.675907 
L 206.290636 58.683398 
L 206.544653 58.45421 
L 206.951081 57.441265 
L 207.205099 57.203069 
L 207.255902 57.25367 
L 207.763937 58.279736 
L 207.81474 58.28424 
L 208.119561 57.310096 
L 208.373579 56.685688 
L 208.424382 56.768067 
L 208.729203 57.391914 
L 209.745272 57.910971 
L 210.253307 57.481897 
L 210.507325 56.894039 
L 210.761342 56.762395 
L 210.964556 56.608517 
L 211.828215 57.280304 
L 212.183839 57.523846 
L 212.387053 57.652704 
L 212.844285 57.622413 
L 213.352319 57.671058 
L 213.961961 57.596303 
L 214.82562 57.600775 
L 216.654545 57.58849 
L 216.654545 57.58849 
" clip-path="url(#pa342be5d8e)" style="fill: none; stroke: #3d576e; stroke-linecap: square"/>
   </g>
  </g>
 </g>
 <defs>
  <clipPath id="pa342be5d8e">
   <rect x="3.6" y="3.6" width="223.2" height="110.88"/>
  </clipPath>
 </defs>
</svg>
