<svg width="1320" height="1320" xmlns="http://www.w3.org/2000/svg" xmlns:xlink="http://www.w3.org/1999/xlink" xml:space="preserve" overflow="hidden"><defs><clipPath id="clip0"><rect x="1447" y="390" width="1320" height="1320"/></clipPath></defs><g clip-path="url(#clip0)" transform="translate(-1447 -390)"><rect x="1447" y="390" width="1320" height="1320" fill="#FFFFFF"/><rect x="1645" y="1276" width="741" height="194" fill="#E7E6E6"/><path d="M1645.5 1280.5 2386.99 1280.5" stroke="#000000" stroke-width="6.875" stroke-miterlimit="8" fill="none" fill-rule="evenodd"/><path d="M1906.5 647C1906.5 586.525 1954.41 537.5 2013.5 537.5 2072.59 537.5 2120.5 586.525 2120.5 647 2120.5 707.475 2072.59 756.5 2013.5 756.5 1954.41 756.5 1906.5 707.475 1906.5 647Z" stroke="#000000" stroke-width="6.875" stroke-miterlimit="8" fill="none" fill-rule="evenodd"/><path d="M1978.97 634.715C1980.67 634.715 1982.02 635.276 1983.01 636.397 1983.99 637.518 1984.48 638.984 1984.48 640.794 1984.48 642.28 1984.17 643.861 1983.55 645.536L1984.04 645.698C1986.52 641.997 1989 639.248 1991.46 637.451 1993.91 635.654 1996.4 634.756 1998.91 634.756 2001.51 634.756 2003.48 635.492 2004.83 636.965 2006.18 638.437 2006.86 640.565 2006.86 643.348L2006.86 643.915C2006.86 644.104 2006.84 644.307 2006.81 644.523 2009.14 641.227 2011.46 638.775 2013.77 637.167 2016.08 635.56 2018.47 634.756 2020.96 634.756 2023.44 634.756 2025.36 635.472 2026.71 636.904 2028.06 638.336 2028.74 640.349 2028.74 642.942 2028.74 644.644 2028.35 647.063 2027.56 650.197L2024.93 660.815C2024.2 663.76 2023.84 665.84 2023.84 667.056 2023.84 668.137 2024.01 668.92 2024.36 669.407 2024.71 669.893 2025.27 670.136 2026.02 670.136 2026.84 670.136 2027.7 669.805 2028.62 669.143 2029.54 668.481 2030.83 667.218 2032.51 665.354L2034.82 667.623C2032.5 670.082 2030.47 671.892 2028.74 673.054 2027.01 674.216 2025.04 674.797 2022.82 674.797 2021.07 674.797 2019.66 674.169 2018.61 672.912 2017.55 671.656 2017.03 670.055 2017.03 668.11 2017.03 666.354 2017.47 663.773 2018.37 660.369L2020.15 653.358C2020.8 650.818 2021.22 648.94 2021.43 647.725 2021.63 646.509 2021.73 645.523 2021.73 644.766 2021.73 642.902 2021.42 641.558 2020.8 640.734 2020.18 639.91 2019.16 639.497 2017.76 639.497 2016.62 639.497 2015.41 639.923 2014.11 640.774 2012.81 641.625 2011.45 642.949 2010.02 644.746 2008.58 646.542 2007.42 648.312 2006.51 650.055 2005.61 651.798 2004.88 653.925 2004.34 656.438L2000.65 674.148 1993.64 674.148 1998.3 653.56C1998.87 651.048 1999.26 649.19 1999.46 647.988 1999.66 646.786 1999.76 645.752 1999.76 644.888 1999.76 642.942 1999.42 641.558 1998.73 640.734 1998.04 639.91 1996.97 639.497 1995.51 639.497 1994.48 639.497 1993.31 639.923 1992 640.774 1990.69 641.625 1989.29 642.99 1987.81 644.867 1986.32 646.745 1985.16 648.549 1984.32 650.278 1983.48 652.007 1982.78 654.114 1982.21 656.6L1978.36 674.148 1971.35 674.148 1977.27 648.454C1977.86 645.86 1978.16 643.861 1978.16 642.456 1978.16 641.375 1977.99 640.592 1977.64 640.105 1977.28 639.619 1976.73 639.376 1975.97 639.376 1975.14 639.376 1974.25 639.72 1973.32 640.409 1972.39 641.098 1971.11 642.348 1969.49 644.158L1967.18 641.889C1969.56 639.403 1971.6 637.586 1973.32 636.438 1975.03 635.289 1976.92 634.715 1978.97 634.715Z" fill-rule="evenodd"/><text fill="#000000" fill-opacity="0" font-family="Arial,Arial_MSFontService,sans-serif" font-size="40.0815" x="1967.18" y="669.787">𝑚</text><path d="M2053.31 652.42C2055.38 652.42 2057.14 652.654 2058.6 653.12 2060.06 653.587 2061.24 654.217 2062.16 655.012 2063.07 655.806 2063.73 656.759 2064.14 657.871 2064.55 658.983 2064.75 660.184 2064.75 661.475 2064.75 662.249 2064.69 662.969 2064.58 663.634 2064.48 664.3 2064.29 664.955 2064.02 665.6 2063.75 666.246 2063.4 666.896 2062.96 667.551 2062.52 668.206 2061.98 668.901 2061.32 669.636 2060.83 670.272 2060.18 671.006 2059.39 671.84 2058.59 672.674 2057.72 673.568 2056.78 674.521 2055.84 675.474 2054.85 676.467 2053.82 677.499 2052.79 678.532 2051.78 679.555 2050.81 680.567 2049.84 681.58 2048.94 682.563 2048.13 683.516 2047.31 684.469 2046.65 685.343 2046.13 686.137L2057.15 686.137C2058.09 686.137 2058.83 686.102 2059.39 686.033 2059.94 685.963 2060.41 685.81 2060.77 685.571 2061.14 685.333 2061.45 684.971 2061.71 684.484 2061.97 683.998 2062.27 683.327 2062.6 682.474L2065.37 682.474C2065.27 683.883 2065.18 685.303 2065.09 686.733 2065 688.163 2064.91 689.582 2064.81 690.992L2039.58 690.992 2039.58 689.443C2040.06 688.371 2040.61 687.314 2041.25 686.271 2041.88 685.229 2042.6 684.171 2043.39 683.099 2044.19 682.027 2045.09 680.92 2046.1 679.778 2047.12 678.636 2048.24 677.45 2049.47 676.219 2051.34 674.352 2052.85 672.759 2054.03 671.438 2055.2 670.118 2056.12 668.941 2056.8 667.909 2057.47 666.876 2057.93 665.923 2058.18 665.049 2058.43 664.176 2058.55 663.242 2058.55 662.249 2058.55 661.237 2058.41 660.303 2058.12 659.45 2057.83 658.596 2057.42 657.871 2056.89 657.275 2056.35 656.68 2055.67 656.213 2054.85 655.875 2054.02 655.538 2053.07 655.369 2052 655.369 2050.15 655.369 2048.61 655.87 2047.35 656.873 2046.1 657.876 2045.13 659.331 2044.44 661.237L2040.53 661.237 2040.53 655.429C2043.08 654.376 2045.41 653.612 2047.55 653.135 2049.68 652.659 2051.6 652.42 2053.31 652.42Z" fill-rule="evenodd"/><text fill="#000000" fill-opacity="0" font-family="Arial,Arial_MSFontService,sans-serif" font-size="38.5718" x="2039.58" y="686.171">2</text><path d="M2016.5 756.5 2016.5 1280.03" stroke="#000000" stroke-width="6.875" stroke-miterlimit="8" fill="none" fill-rule="evenodd"/><path d="M2061.17 784.822 2063.52 784.822 2055.58 820.202 2056.87 820.202C2058.9 820.202 2061.18 819.318 2063.7 817.548 2066.23 815.778 2068.25 814.137 2069.76 812.624 2071.27 811.111 2072.03 809.652 2072.03 808.247 2072.03 806.923 2071.11 806.18 2069.28 806.018L2069.72 804.032 2082.85 804.032 2083.62 806.018C2081.38 808.044 2079 810.03 2076.49 811.975L2066.44 819.757 2070.41 834.387C2070.73 835.63 2071.02 836.528 2071.28 837.082 2071.54 837.636 2071.84 838.048 2072.17 838.318 2072.51 838.588 2072.96 838.723 2073.53 838.723 2074.23 838.723 2075.07 838.345 2076.04 837.589 2077.02 836.832 2078.12 835.738 2079.37 834.306L2081.68 836.575C2079.24 839.142 2077.23 840.925 2075.64 841.925 2074.04 842.925 2072.5 843.424 2071.02 843.424 2069.18 843.424 2067.72 842.904 2066.64 841.864 2065.56 840.824 2064.71 839.088 2064.09 836.656L2061.41 826.119C2061.14 825.066 2060.87 824.336 2060.6 823.931 2060.33 823.526 2060.02 823.255 2059.67 823.12 2059.32 822.985 2058.7 822.918 2057.81 822.918L2055.01 822.918 2050.79 842.776 2043.78 842.776 2054.2 796.453C2054.55 794.886 2054.8 793.664 2054.95 792.786 2055.1 791.907 2055.17 791.131 2055.17 790.455 2055.17 789.32 2054.83 788.523 2054.14 788.064 2053.45 787.605 2052.21 787.348 2050.43 787.294L2050.92 785.187Z" fill-rule="evenodd"/><text fill="#000000" fill-opacity="0" font-family="Arial,Arial_MSFontService,sans-serif" font-size="58.6025" x="2043.78" y="836.099">𝑘</text><path d="M2103.1 821.048C2105.16 821.048 2106.92 821.281 2108.38 821.748 2109.84 822.215 2111.03 822.845 2111.94 823.639 2112.86 824.434 2113.52 825.387 2113.92 826.499 2114.33 827.611 2114.53 828.812 2114.53 830.103 2114.53 830.877 2114.48 831.597 2114.37 832.262 2114.26 832.927 2114.07 833.583 2113.8 834.228 2113.54 834.873 2113.18 835.524 2112.75 836.179 2112.31 836.834 2111.76 837.529 2111.11 838.264 2110.61 838.899 2109.97 839.634 2109.17 840.468 2108.38 841.302 2107.51 842.195 2106.57 843.149 2105.62 844.102 2104.64 845.095 2103.6 846.127 2102.57 847.16 2101.57 848.182 2100.6 849.195 2099.62 850.208 2098.73 851.191 2097.91 852.144 2097.1 853.097 2096.44 853.971 2095.92 854.765L2106.94 854.765C2107.87 854.765 2108.62 854.73 2109.17 854.661 2109.73 854.591 2110.19 854.437 2110.56 854.199 2110.93 853.961 2111.24 853.598 2111.5 853.112 2111.75 852.625 2112.05 851.955 2112.39 851.101L2115.16 851.101C2115.06 852.511 2114.97 853.931 2114.88 855.361 2114.79 856.79 2114.69 858.21 2114.59 859.62L2089.37 859.62 2089.37 858.071C2089.84 856.999 2090.4 855.941 2091.03 854.899 2091.67 853.856 2092.38 852.799 2093.18 851.727 2093.97 850.654 2094.88 849.547 2095.89 848.406 2096.9 847.264 2098.02 846.078 2099.25 844.846 2101.12 842.98 2102.64 841.386 2103.81 840.066 2104.98 838.745 2105.91 837.569 2106.58 836.536 2107.26 835.504 2107.72 834.551 2107.97 833.677 2108.22 832.803 2108.34 831.87 2108.34 830.877 2108.34 829.864 2108.2 828.931 2107.91 828.077 2107.62 827.224 2107.21 826.499 2106.67 825.903 2106.14 825.307 2105.46 824.841 2104.63 824.503 2103.81 824.166 2102.86 823.997 2101.79 823.997 2099.94 823.997 2098.39 824.498 2097.14 825.501 2095.89 826.504 2094.92 827.958 2094.22 829.864L2090.32 829.864 2090.32 824.056C2092.86 823.004 2095.2 822.239 2097.33 821.763 2099.47 821.286 2101.39 821.048 2103.1 821.048Z" fill-rule="evenodd"/><text fill="#000000" fill-opacity="0" font-family="Arial,Arial_MSFontService,sans-serif" font-size="38.5718" x="2089.37" y="854.798">2</text><path d="M1906.5 1003C1906.5 942.525 1954.41 893.5 2013.5 893.5 2072.59 893.5 2120.5 942.525 2120.5 1003 2120.5 1063.47 2072.59 1112.5 2013.5 1112.5 1954.41 1112.5 1906.5 1063.47 1906.5 1003Z" stroke="#000000" stroke-width="6.875" stroke-miterlimit="8" fill="#FFFFFF" fill-rule="evenodd"/><path d="M1979.92 990.556C1981.63 990.556 1982.97 991.116 1983.96 992.237 1984.94 993.359 1985.44 994.824 1985.44 996.635 1985.44 998.121 1985.12 999.701 1984.5 1001.38L1984.99 1001.54C1987.48 997.837 1989.95 995.088 1992.41 993.291 1994.86 991.494 1997.35 990.596 1999.86 990.596 2002.46 990.596 2004.43 991.332 2005.78 992.805 2007.13 994.277 2007.81 996.405 2007.81 999.188L2007.81 999.755C2007.81 999.944 2007.79 1000.15 2007.77 1000.36 2010.09 997.067 2012.41 994.615 2014.72 993.007 2017.03 991.4 2019.42 990.596 2021.91 990.596 2024.4 990.596 2026.31 991.312 2027.67 992.744 2029.02 994.176 2029.69 996.189 2029.69 998.783 2029.69 1000.48 2029.3 1002.9 2028.52 1006.04L2025.88 1016.66C2025.15 1019.6 2024.79 1021.68 2024.79 1022.9 2024.79 1023.98 2024.96 1024.76 2025.31 1025.25 2025.67 1025.73 2026.22 1025.98 2026.98 1025.98 2027.79 1025.98 2028.65 1025.65 2029.57 1024.98 2030.49 1024.32 2031.79 1023.06 2033.46 1021.19L2035.77 1023.46C2033.45 1025.92 2031.42 1027.73 2029.69 1028.89 2027.96 1030.06 2025.99 1030.64 2023.77 1030.64 2022.02 1030.64 2020.61 1030.01 2019.56 1028.75 2018.51 1027.5 2017.98 1025.9 2017.98 1023.95 2017.98 1022.19 2018.42 1019.61 2019.32 1016.21L2021.1 1009.2C2021.75 1006.66 2022.17 1004.78 2022.38 1003.56 2022.58 1002.35 2022.68 1001.36 2022.68 1000.61 2022.68 998.742 2022.37 997.398 2021.75 996.574 2021.13 995.75 2020.11 995.338 2018.71 995.338 2017.57 995.338 2016.36 995.763 2015.06 996.614 2013.76 997.465 2012.4 998.789 2010.97 1000.59 2009.54 1002.38 2008.37 1004.15 2007.46 1005.9 2006.56 1007.64 2005.83 1009.77 2005.29 1012.28L2001.61 1029.99 1994.59 1029.99 1999.26 1009.4C1999.82 1006.89 2000.21 1005.03 2000.41 1003.83 2000.61 1002.63 2000.71 1001.59 2000.71 1000.73 2000.71 998.783 2000.37 997.398 1999.68 996.574 1998.99 995.75 1997.92 995.338 1996.46 995.338 1995.43 995.338 1994.26 995.763 1992.95 996.614 1991.64 997.465 1990.24 998.83 1988.76 1000.71 1987.27 1002.59 1986.11 1004.39 1985.27 1006.12 1984.44 1007.85 1983.73 1009.95 1983.17 1012.44L1979.32 1029.99 1972.3 1029.99 1978.22 1004.29C1978.82 1001.7 1979.11 999.701 1979.11 998.296 1979.11 997.216 1978.94 996.432 1978.59 995.946 1978.24 995.459 1977.68 995.216 1976.92 995.216 1976.09 995.216 1975.2 995.561 1974.27 996.25 1973.34 996.939 1972.06 998.188 1970.44 999.998L1968.13 997.729C1970.51 995.243 1972.55 993.426 1974.27 992.278 1975.99 991.13 1977.87 990.556 1979.92 990.556Z" fill-rule="evenodd"/><text fill="#000000" fill-opacity="0" font-family="Arial,Arial_MSFontService,sans-serif" font-size="40.0815" x="1968.13" y="1025.63">𝑚</text><path d="M2054.68 1008.47 2056.5 1008.47C2056.46 1009.56 2056.43 1010.54 2056.41 1011.4 2056.39 1012.27 2056.38 1013.11 2056.37 1013.92 2056.36 1014.73 2056.35 1015.54 2056.35 1016.33L2056.35 1038.97C2056.35 1039.58 2056.37 1040.12 2056.41 1040.56 2056.45 1041.01 2056.52 1041.39 2056.6 1041.69 2056.69 1042 2056.81 1042.27 2056.96 1042.48 2057.11 1042.7 2057.28 1042.89 2057.48 1043.05 2057.72 1043.29 2058.04 1043.47 2058.44 1043.6 2058.83 1043.73 2059.34 1043.84 2059.96 1043.93 2060.57 1044.02 2061.31 1044.09 2062.17 1044.14 2063.04 1044.19 2064.08 1044.22 2065.29 1044.24L2065.29 1046.83 2041.67 1046.83 2041.67 1044.24C2042.84 1044.2 2043.83 1044.16 2044.65 1044.11 2045.46 1044.06 2046.16 1043.99 2046.73 1043.9 2047.31 1043.81 2047.77 1043.71 2048.12 1043.6 2048.46 1043.49 2048.77 1043.36 2049.02 1043.2 2049.3 1043.02 2049.54 1042.83 2049.74 1042.62 2049.94 1042.41 2050.1 1042.15 2050.22 1041.83 2050.33 1041.51 2050.43 1041.12 2050.5 1040.67 2050.57 1040.21 2050.6 1039.64 2050.6 1038.97L2050.6 1017.61C2050.6 1016.84 2050.45 1016.29 2050.16 1015.97 2049.86 1015.66 2049.43 1015.5 2048.88 1015.5 2048.26 1015.5 2047.35 1015.82 2046.14 1016.45 2044.92 1017.09 2043.36 1018.03 2041.43 1019.28 2041.17 1018.82 2040.93 1018.37 2040.71 1017.91 2040.5 1017.45 2040.27 1016.99 2040.03 1016.51 2042.49 1015.16 2044.93 1013.82 2047.34 1012.48 2049.75 1011.13 2052.2 1009.8 2054.68 1008.47Z" fill-rule="evenodd"/><text fill="#000000" fill-opacity="0" font-family="Arial,Arial_MSFontService,sans-serif" font-size="38.3633" x="2040.03" y="1042.04">1</text><path d="M2062.12 1140.7 2064.47 1140.7 2056.53 1176.08 2057.82 1176.08C2059.85 1176.08 2062.13 1175.19 2064.65 1173.42 2067.18 1171.65 2069.2 1170.01 2070.71 1168.5 2072.23 1166.99 2072.98 1165.53 2072.98 1164.12 2072.98 1162.8 2072.06 1162.06 2070.23 1161.89L2070.67 1159.91 2083.8 1159.91 2084.57 1161.89C2082.33 1163.92 2079.95 1165.91 2077.44 1167.85L2067.39 1175.63 2071.36 1190.26C2071.69 1191.51 2071.98 1192.4 2072.23 1192.96 2072.49 1193.51 2072.79 1193.92 2073.12 1194.19 2073.46 1194.46 2073.91 1194.6 2074.48 1194.6 2075.18 1194.6 2076.02 1194.22 2076.99 1193.46 2077.97 1192.71 2079.07 1191.61 2080.32 1190.18L2082.63 1192.45C2080.2 1195.02 2078.18 1196.8 2076.59 1197.8 2074.99 1198.8 2073.45 1199.3 2071.97 1199.3 2070.13 1199.3 2068.67 1198.78 2067.59 1197.74 2066.51 1196.7 2065.66 1194.96 2065.04 1192.53L2062.36 1182C2062.09 1180.94 2061.82 1180.21 2061.55 1179.81 2061.28 1179.4 2060.97 1179.13 2060.62 1179 2060.27 1178.86 2059.65 1178.79 2058.76 1178.79L2055.96 1178.79 2051.75 1198.65 2044.73 1198.65 2055.15 1152.33C2055.5 1150.76 2055.75 1149.54 2055.9 1148.66 2056.05 1147.78 2056.12 1147.01 2056.12 1146.33 2056.12 1145.2 2055.78 1144.4 2055.09 1143.94 2054.4 1143.48 2053.16 1143.22 2051.38 1143.17L2051.87 1141.06Z" fill-rule="evenodd"/><text fill="#000000" fill-opacity="0" font-family="Arial,Arial_MSFontService,sans-serif" font-size="58.6025" x="2044.73" y="1191.98">𝑘</text><path d="M2104.47 1177.13 2106.29 1177.13C2106.25 1178.22 2106.22 1179.2 2106.2 1180.07 2106.18 1180.93 2106.16 1181.77 2106.15 1182.58 2106.14 1183.4 2106.14 1184.2 2106.14 1185L2106.14 1207.63C2106.14 1208.25 2106.16 1208.78 2106.2 1209.23 2106.24 1209.67 2106.3 1210.05 2106.39 1210.36 2106.48 1210.67 2106.6 1210.93 2106.75 1211.15 2106.9 1211.37 2107.07 1211.55 2107.27 1211.71 2107.51 1211.95 2107.82 1212.14 2108.22 1212.26 2108.62 1212.39 2109.13 1212.5 2109.74 1212.59 2110.36 1212.68 2111.1 1212.75 2111.96 1212.8 2112.82 1212.85 2113.86 1212.88 2115.07 1212.9L2115.07 1215.5 2091.45 1215.5 2091.45 1212.9C2092.62 1212.86 2093.62 1212.82 2094.43 1212.77 2095.25 1212.72 2095.94 1212.65 2096.52 1212.56 2097.09 1212.47 2097.55 1212.37 2097.9 1212.26 2098.25 1212.15 2098.55 1212.02 2098.81 1211.86 2099.09 1211.68 2099.33 1211.49 2099.52 1211.28 2099.72 1211.07 2099.88 1210.81 2100 1210.49 2100.12 1210.17 2100.21 1209.79 2100.28 1209.33 2100.35 1208.87 2100.39 1208.31 2100.39 1207.63L2100.39 1186.28C2100.39 1185.5 2100.24 1184.96 2099.94 1184.64 2099.64 1184.32 2099.22 1184.16 2098.66 1184.16 2098.05 1184.16 2097.13 1184.48 2095.92 1185.11 2094.71 1185.75 2093.14 1186.69 2091.21 1187.94 2090.96 1187.49 2090.72 1187.03 2090.5 1186.57 2090.28 1186.12 2090.05 1185.65 2089.81 1185.17 2092.28 1183.82 2094.71 1182.48 2097.13 1181.14 2099.54 1179.8 2101.99 1178.46 2104.47 1177.13Z" fill-rule="evenodd"/><text fill="#000000" fill-opacity="0" font-family="Arial,Arial_MSFontService,sans-serif" font-size="38.3633" x="2089.81" y="1210.7">1</text><path d="M2074.25 1472.94 2016.5 1472.94 2016.5 1466.06 2074.25 1466.06ZM2069.67 1446.58 2115.5 1469.5 2069.67 1492.42Z"/><path d="M0 0 0.000360892 154.547" stroke="#000000" stroke-width="6.875" stroke-miterlimit="8" fill="none" fill-rule="evenodd" transform="matrix(1 0 0 -1 2016.5 1546.05)"/><path d="M2172.14 649.937 2120.5 649.937 2120.5 643.062 2172.14 643.062ZM2167.56 623.583 2213.39 646.5 2167.56 669.417Z"/><path d="M2120.5 694.883 2120.5 599.5" stroke="#000000" stroke-width="6.875" stroke-miterlimit="8" fill="none" fill-rule="evenodd"/><path d="M2171.14 1005.94 2119.5 1005.94 2119.5 999.062 2171.14 999.062ZM2166.56 979.583 2212.39 1002.5 2166.56 1025.42Z"/><path d="M2119.5 1050.88 2119.5 955.5" stroke="#000000" stroke-width="6.875" stroke-miterlimit="8" fill="none" fill-rule="evenodd"/><path d="M2175.22 1449.56C2176.95 1449.56 2178.32 1450.14 2179.32 1451.3 2180.32 1452.46 2180.82 1454.03 2180.82 1456 2180.82 1458.13 2180.4 1460.8 2179.56 1463.98L2177.78 1471C2177.32 1472.78 2176.99 1474.17 2176.78 1475.17 2176.58 1476.17 2176.43 1477.03 2176.34 1477.76 2176.24 1478.49 2176.2 1479.1 2176.2 1479.59 2176.2 1481.45 2176.51 1482.8 2177.13 1483.62 2177.75 1484.44 2178.76 1484.86 2180.17 1484.86 2181.3 1484.86 2182.52 1484.4 2183.83 1483.5 2185.15 1482.59 2186.54 1481.23 2188.01 1479.4 2189.48 1477.58 2190.66 1475.81 2191.56 1474.1 2192.45 1472.38 2193.18 1470.27 2193.74 1467.75L2197.59 1450.2 2204.6 1450.2 2198.69 1475.9C2198.09 1478.49 2197.8 1480.49 2197.8 1481.9 2197.8 1482.98 2197.97 1483.76 2198.32 1484.25 2198.67 1484.73 2199.23 1484.98 2199.98 1484.98 2200.8 1484.98 2201.66 1484.65 2202.58 1483.98 2203.5 1483.32 2204.79 1482.06 2206.47 1480.19L2208.78 1482.46C2206.32 1485.09 2204.23 1486.94 2202.5 1488.02 2200.77 1489.1 2198.93 1489.64 2196.99 1489.64 2195.31 1489.64 2193.97 1489.08 2192.97 1487.98 2191.97 1486.87 2191.47 1485.4 2191.47 1483.56 2191.47 1482.1 2191.8 1480.51 2192.45 1478.78L2191.96 1478.61C2189.29 1482.37 2186.75 1485.14 2184.36 1486.92 2181.97 1488.71 2179.52 1489.6 2177.01 1489.6 2174.49 1489.6 2172.56 1488.87 2171.21 1487.43 2169.86 1485.98 2169.18 1483.98 2169.18 1481.41 2169.18 1479.71 2169.58 1477.29 2170.36 1474.16L2172.99 1463.54C2173.72 1460.59 2174.09 1458.51 2174.09 1457.3 2174.09 1456.22 2173.91 1455.43 2173.56 1454.95 2173.21 1454.46 2172.66 1454.22 2171.9 1454.22 2171.06 1454.22 2170.18 1454.56 2169.24 1455.25 2168.31 1455.94 2167.04 1457.19 2165.42 1459L2163.1 1456.73C2165.4 1454.41 2167.13 1452.81 2168.29 1451.95 2169.45 1451.08 2170.57 1450.47 2171.64 1450.1 2172.7 1449.74 2173.9 1449.56 2175.22 1449.56Z" fill-rule="evenodd"/><text fill="#000000" fill-opacity="0" font-family="Arial,Arial_MSFontService,sans-serif" font-size="40.0815" x="2163.1" y="1484.63">𝑢</text><path d="M2283.31 1426.88C2291.2 1428.96 2297.26 1433.45 2301.49 1440.35 2305.72 1447.25 2307.83 1455.58 2307.83 1465.34 2307.83 1475.12 2305.73 1483.44 2301.51 1490.32 2297.3 1497.2 2291.23 1501.68 2283.31 1503.76L2282.34 1500.63C2288.58 1498.55 2293.22 1494.45 2296.26 1488.31 2299.3 1482.18 2300.82 1474.39 2300.82 1464.93 2300.82 1455.8 2299.31 1448.21 2296.28 1442.17 2293.26 1436.14 2288.57 1432.08 2282.22 1430ZM2243.58 1426.88 2244.68 1430C2238.36 1432.08 2233.68 1436.14 2230.64 1442.17 2227.6 1448.21 2226.08 1455.8 2226.08 1464.93 2226.08 1474.39 2227.6 1482.18 2230.64 1488.31 2233.68 1494.45 2238.32 1498.55 2244.56 1500.63L2243.58 1503.76C2235.67 1501.68 2229.6 1497.2 2225.39 1490.32 2221.17 1483.44 2219.06 1475.12 2219.06 1465.34 2219.06 1455.58 2221.18 1447.25 2225.41 1440.35 2229.64 1433.45 2235.69 1428.96 2243.58 1426.88Z" fill-rule="evenodd"/><path d="M2261.85 1440.23 2267.45 1440.23 2265.22 1450.25 2277.54 1450.25 2276.65 1454.34 2264.33 1454.34 2260.72 1470.06C2260.02 1473.12 2259.57 1475.31 2259.38 1476.65 2259.19 1477.99 2259.1 1479.06 2259.1 1479.87 2259.1 1483.22 2260.49 1484.9 2263.27 1484.9 2264.46 1484.9 2265.72 1484.44 2267.06 1483.54 2268.4 1482.63 2269.99 1481.09 2271.82 1478.9L2274.17 1481.33C2271.82 1484.17 2269.56 1486.26 2267.39 1487.61 2265.21 1488.96 2262.93 1489.64 2260.56 1489.64 2254.91 1489.64 2252.09 1486.79 2252.09 1481.09 2252.09 1479.28 2252.32 1477.37 2252.78 1475.37L2257.56 1454.34 2250.75 1454.34 2251.36 1451.54C2252.95 1451.52 2254.16 1451.39 2254.98 1451.18 2255.81 1450.96 2256.5 1450.66 2257.05 1450.29 2257.6 1449.91 2258.11 1449.37 2258.57 1448.66 2259.03 1447.96 2259.48 1447.06 2259.91 1445.97 2260.34 1444.88 2260.99 1442.96 2261.85 1440.23Z" fill-rule="evenodd"/><text fill="#000000" fill-opacity="0" font-family="Arial,Arial_MSFontService,sans-serif" font-size="49.4028" x="2250.75" y="1483.46">𝑡</text><path d="M2255.89 624.019C2257 624.019 2257.95 624.167 2258.73 624.465 2259.27 624.681 2259.81 625.039 2260.35 625.539 2260.89 626.038 2261.37 626.734 2261.79 627.626 2262.21 628.517 2262.57 629.517 2262.88 630.625 2263.19 631.732 2263.54 633.327 2263.92 635.407 2264.57 638.892 2265.19 642.56 2265.8 646.41 2266.41 650.26 2266.93 653.833 2267.36 657.13 2269.98 653.347 2272.2 649.646 2274.03 646.025 2275.85 642.405 2277.16 639.257 2277.96 636.582 2278.76 633.907 2279.16 631.732 2279.16 630.057 2279.16 628.787 2278.88 627.923 2278.34 627.464 2277.8 627.004 2276.89 626.734 2275.59 626.653L2275.99 624.667 2286.65 624.667 2287.75 626.694C2285.69 632.313 2282.91 638.325 2279.4 644.728 2275.94 650.996 2271.98 657.238 2267.52 663.452 2263.25 669.369 2259.7 673.651 2256.86 676.299 2254.89 678.109 2252.99 679.406 2251.15 680.19 2249.69 680.784 2248.14 681.081 2246.49 681.081 2245.92 681.081 2245.27 681.034 2244.52 680.939 2243.78 680.845 2243.21 680.716 2242.8 680.554L2244.54 672.692 2247.75 672.692C2247.75 674.421 2248.34 675.286 2249.53 675.286 2251.1 675.286 2252.92 674.306 2255 672.348 2257.08 670.389 2259.53 667.437 2262.34 663.492 2261.55 658.764 2260.49 653.063 2259.13 646.39 2257.7 639.257 2256.76 634.84 2256.3 633.137 2255.73 631.084 2255.14 629.774 2254.51 629.206 2254.14 628.855 2253.66 628.679 2253.1 628.679 2252.23 628.679 2251.42 629.031 2250.66 629.733 2249.91 630.436 2248.98 631.651 2247.87 633.381L2245.23 631.638C2247.1 628.855 2248.84 626.889 2250.46 625.741 2252.08 624.593 2253.89 624.019 2255.89 624.019Z" fill-rule="evenodd"/><text fill="#000000" fill-opacity="0" font-family="Arial,Arial_MSFontService,sans-serif" font-size="57.0625" x="2242.8" y="673.948">𝑦</text><path d="M2304.21 641.683C2306.27 641.683 2308.04 641.917 2309.5 642.383 2310.95 642.85 2312.14 643.48 2313.05 644.275 2313.97 645.069 2314.63 646.022 2315.04 647.134 2315.44 648.246 2315.65 649.447 2315.65 650.738 2315.65 651.512 2315.59 652.232 2315.48 652.897 2315.37 653.563 2315.18 654.218 2314.92 654.863 2314.65 655.509 2314.3 656.159 2313.86 656.814 2313.42 657.469 2312.88 658.164 2312.22 658.899 2311.72 659.535 2311.08 660.269 2310.28 661.103 2309.49 661.937 2308.62 662.831 2307.68 663.784 2306.74 664.737 2305.75 665.73 2304.71 666.762 2303.68 667.795 2302.68 668.818 2301.71 669.83 2300.73 670.843 2299.84 671.826 2299.03 672.779 2298.21 673.732 2297.55 674.606 2297.03 675.4L2308.05 675.4C2308.98 675.4 2309.73 675.365 2310.28 675.296 2310.84 675.226 2311.3 675.072 2311.67 674.834 2312.04 674.596 2312.35 674.234 2312.61 673.747 2312.87 673.26 2313.16 672.59 2313.5 671.737L2316.27 671.737C2316.17 673.146 2316.08 674.566 2315.99 675.996 2315.9 677.425 2315.8 678.845 2315.71 680.255L2290.48 680.255 2290.48 678.706C2290.95 677.634 2291.51 676.577 2292.15 675.534 2292.78 674.492 2293.5 673.434 2294.29 672.362 2295.08 671.29 2295.99 670.183 2297 669.041 2298.01 667.899 2299.13 666.713 2300.37 665.482 2302.23 663.615 2303.75 662.022 2304.92 660.701 2306.09 659.381 2307.02 658.204 2307.69 657.172 2308.37 656.139 2308.83 655.186 2309.08 654.312 2309.33 653.438 2309.45 652.505 2309.45 651.512 2309.45 650.5 2309.31 649.566 2309.02 648.713 2308.73 647.859 2308.32 647.134 2307.78 646.538 2307.25 645.943 2306.57 645.476 2305.74 645.138 2304.92 644.801 2303.97 644.632 2302.9 644.632 2301.05 644.632 2299.5 645.133 2298.25 646.136 2297 647.139 2296.03 648.593 2295.33 650.5L2291.43 650.5 2291.43 644.692C2293.97 643.639 2296.31 642.875 2298.44 642.398 2300.58 641.922 2302.5 641.683 2304.21 641.683Z" fill-rule="evenodd"/><text fill="#000000" fill-opacity="0" font-family="Arial,Arial_MSFontService,sans-serif" font-size="38.5718" x="2290.48" y="675.434">2</text><path d="M2396.33 601.297C2404.22 603.378 2410.28 607.869 2414.51 614.773 2418.74 621.676 2420.85 630.004 2420.85 639.758 2420.85 649.538 2418.75 657.867 2414.53 664.743 2410.32 671.619 2404.25 676.097 2396.33 678.178L2395.36 675.057C2401.6 672.977 2406.24 668.87 2409.28 662.737 2412.32 656.604 2413.84 648.809 2413.84 639.352 2413.84 630.22 2412.33 622.635 2409.3 616.596 2406.28 610.558 2401.59 606.498 2395.24 604.418ZM2356.6 601.297 2357.7 604.418C2351.38 606.498 2346.69 610.558 2343.65 616.596 2340.61 622.635 2339.1 630.22 2339.1 639.352 2339.1 648.809 2340.61 656.604 2343.65 662.737 2346.69 668.87 2351.33 672.977 2357.58 675.057L2356.6 678.178C2348.69 676.097 2342.62 671.619 2338.41 664.743 2334.19 657.867 2332.08 649.538 2332.08 639.758 2332.08 630.004 2334.2 621.676 2338.43 614.773 2342.65 607.869 2348.71 603.378 2356.6 601.297Z" fill-rule="evenodd"/><path d="M2374.87 614.657 2380.47 614.657 2378.24 624.667 2390.56 624.667 2389.67 628.76 2377.34 628.76 2373.74 644.485C2373.04 647.538 2372.59 649.733 2372.4 651.071 2372.21 652.408 2372.12 653.482 2372.12 654.293 2372.12 657.643 2373.51 659.318 2376.29 659.318 2377.48 659.318 2378.74 658.865 2380.08 657.96 2381.42 657.055 2383.01 655.508 2384.84 653.32L2387.19 655.752C2384.84 658.589 2382.58 660.682 2380.4 662.033 2378.23 663.384 2375.95 664.06 2373.58 664.06 2367.93 664.06 2365.11 661.209 2365.11 655.508 2365.11 653.698 2365.34 651.793 2365.79 649.794L2370.58 628.76 2363.77 628.76 2364.38 625.964C2365.97 625.937 2367.18 625.815 2368 625.599 2368.83 625.383 2369.52 625.086 2370.07 624.708 2370.62 624.329 2371.13 623.789 2371.59 623.087 2372.05 622.384 2372.5 621.486 2372.93 620.392 2373.36 619.297 2374.01 617.386 2374.87 614.657Z" fill-rule="evenodd"/><text fill="#000000" fill-opacity="0" font-family="Arial,Arial_MSFontService,sans-serif" font-size="49.4028" x="2363.77" y="657.884">𝑡</text><path d="M2263.99 977.544C2265.1 977.544 2266.05 977.692 2266.83 977.99 2267.37 978.206 2267.91 978.564 2268.45 979.064 2268.99 979.563 2269.47 980.259 2269.89 981.151 2270.31 982.042 2270.67 983.042 2270.98 984.15 2271.29 985.258 2271.64 986.852 2272.02 988.932 2272.67 992.417 2273.29 996.085 2273.9 999.935 2274.51 1003.79 2275.03 1007.36 2275.46 1010.65 2278.08 1006.87 2280.3 1003.17 2282.13 999.55 2283.95 995.93 2285.26 992.782 2286.06 990.107 2286.86 987.432 2287.26 985.258 2287.26 983.582 2287.26 982.313 2286.99 981.448 2286.44 980.989 2285.9 980.529 2284.99 980.259 2283.69 980.178L2284.09 978.192 2294.75 978.192 2295.85 980.219C2293.79 985.838 2291.01 991.85 2287.5 998.253 2284.04 1004.52 2280.08 1010.76 2275.62 1016.98 2271.36 1022.89 2267.8 1027.18 2264.97 1029.82 2262.99 1031.63 2261.09 1032.93 2259.25 1033.71 2257.79 1034.31 2256.24 1034.61 2254.59 1034.61 2254.02 1034.61 2253.37 1034.56 2252.62 1034.46 2251.88 1034.37 2251.31 1034.24 2250.9 1034.08L2252.65 1026.22 2255.85 1026.22C2255.85 1027.95 2256.44 1028.81 2257.63 1028.81 2259.2 1028.81 2261.02 1027.83 2263.1 1025.87 2265.18 1023.91 2267.63 1020.96 2270.44 1017.02 2269.65 1012.29 2268.59 1006.59 2267.23 999.915 2265.8 992.782 2264.86 988.365 2264.4 986.662 2263.83 984.609 2263.24 983.299 2262.61 982.731 2262.24 982.38 2261.76 982.204 2261.2 982.204 2260.33 982.204 2259.52 982.556 2258.76 983.258 2258.01 983.961 2257.08 985.176 2255.97 986.906L2253.33 985.163C2255.2 982.38 2256.94 980.414 2258.56 979.266 2260.18 978.118 2261.99 977.544 2263.99 977.544Z" fill-rule="evenodd"/><text fill="#000000" fill-opacity="0" font-family="Arial,Arial_MSFontService,sans-serif" font-size="57.0625" x="2250.9" y="1027.47">𝑦</text><path d="M2312.73 995.417 2314.55 995.417C2314.51 996.509 2314.48 997.487 2314.46 998.351 2314.44 999.214 2314.42 1000.05 2314.41 1000.87 2314.4 1001.68 2314.4 1002.49 2314.4 1003.28L2314.4 1025.92C2314.4 1026.53 2314.42 1027.06 2314.46 1027.51 2314.5 1027.96 2314.56 1028.33 2314.65 1028.64 2314.74 1028.95 2314.86 1029.21 2315.01 1029.43 2315.16 1029.65 2315.33 1029.84 2315.53 1030 2315.77 1030.24 2316.09 1030.42 2316.48 1030.55 2316.88 1030.68 2317.39 1030.79 2318 1030.88 2318.62 1030.97 2319.36 1031.03 2320.22 1031.08 2321.08 1031.13 2322.12 1031.17 2323.33 1031.19L2323.33 1033.78 2299.71 1033.78 2299.71 1031.19C2300.89 1031.15 2301.88 1031.1 2302.69 1031.05 2303.51 1031.01 2304.2 1030.94 2304.78 1030.85 2305.35 1030.76 2305.81 1030.66 2306.16 1030.55 2306.51 1030.44 2306.81 1030.31 2307.07 1030.15 2307.35 1029.97 2307.59 1029.77 2307.79 1029.57 2307.98 1029.36 2308.14 1029.09 2308.26 1028.78 2308.38 1028.46 2308.48 1028.07 2308.55 1027.61 2308.61 1027.16 2308.65 1026.59 2308.65 1025.92L2308.65 1004.56C2308.65 1003.79 2308.5 1003.24 2308.2 1002.92 2307.9 1002.61 2307.48 1002.45 2306.92 1002.45 2306.31 1002.45 2305.39 1002.76 2304.18 1003.4 2302.97 1004.03 2301.4 1004.98 2299.48 1006.23 2299.22 1005.77 2298.98 1005.32 2298.76 1004.86 2298.54 1004.4 2298.31 1003.94 2298.08 1003.46 2300.54 1002.11 2302.98 1000.76 2305.39 999.423 2307.8 998.083 2310.25 996.747 2312.73 995.417Z" fill-rule="evenodd"/><text fill="#000000" fill-opacity="0" font-family="Arial,Arial_MSFontService,sans-serif" font-size="38.3633" x="2298.08" y="1028.98">1</text><path d="M2402.53 954.822C2410.42 956.903 2416.48 961.394 2420.71 968.298 2424.94 975.201 2427.05 983.529 2427.05 993.283 2427.05 1003.06 2424.94 1011.39 2420.73 1018.27 2416.51 1025.14 2410.45 1029.62 2402.53 1031.7L2401.56 1028.58C2407.8 1026.5 2412.44 1022.39 2415.48 1016.26 2418.52 1010.13 2420.04 1002.33 2420.04 992.878 2420.04 983.745 2418.53 976.16 2415.5 970.121 2412.47 964.083 2407.79 960.023 2401.44 957.943ZM2362.8 954.822 2363.9 957.943C2357.57 960.023 2352.89 964.083 2349.85 970.121 2346.81 976.16 2345.29 983.745 2345.29 992.878 2345.29 1002.33 2346.81 1010.13 2349.85 1016.26 2352.89 1022.39 2357.53 1026.5 2363.77 1028.58L2362.8 1031.7C2354.89 1029.62 2348.82 1025.14 2344.6 1018.27 2340.39 1011.39 2338.28 1003.06 2338.28 993.283 2338.28 983.529 2340.4 975.201 2344.62 968.298 2348.85 961.394 2354.91 956.903 2362.8 954.822Z" fill-rule="evenodd"/><path d="M2381.07 968.182 2386.66 968.182 2384.43 978.192 2396.76 978.192 2395.86 982.286 2383.54 982.286 2379.94 998.01C2379.23 1001.06 2378.79 1003.26 2378.6 1004.6 2378.41 1005.93 2378.32 1007.01 2378.32 1007.82 2378.32 1011.17 2379.71 1012.84 2382.49 1012.84 2383.68 1012.84 2384.94 1012.39 2386.28 1011.49 2387.62 1010.58 2389.2 1009.03 2391.04 1006.85L2393.39 1009.28C2391.04 1012.11 2388.78 1014.21 2386.6 1015.56 2384.43 1016.91 2382.15 1017.58 2379.77 1017.58 2374.13 1017.58 2371.3 1014.73 2371.3 1009.03 2371.3 1007.22 2371.53 1005.32 2371.99 1003.32L2376.78 982.286 2369.97 982.286 2370.57 979.489C2372.17 979.462 2373.38 979.341 2374.2 979.124 2375.03 978.908 2375.71 978.611 2376.27 978.233 2376.82 977.855 2377.33 977.314 2377.79 976.612 2378.25 975.909 2378.69 975.011 2379.13 973.917 2379.56 972.822 2380.21 970.911 2381.07 968.182Z" fill-rule="evenodd"/><text fill="#000000" fill-opacity="0" font-family="Arial,Arial_MSFontService,sans-serif" font-size="49.4028" x="2369.97" y="1011.41">𝑡</text></g></svg>