<svg width="1320" height="1320" xmlns="http://www.w3.org/2000/svg" xmlns:xlink="http://www.w3.org/1999/xlink" xml:space="preserve" overflow="hidden"><defs><clipPath id="clip0"><rect x="323" y="165" width="1320" height="1320"/></clipPath></defs><g clip-path="url(#clip0)" transform="translate(-323 -165)"><rect x="323" y="165" width="1320" height="1320" fill="#FFFFFF"/><rect x="621" y="569" width="195" height="547" fill="#E7E6E6"/><rect x="1002.5" y="722.5" width="352" height="245" stroke="#000000" stroke-width="6.875" stroke-miterlimit="8" fill="none"/><path d="M1138.64 831.013C1140.71 831.013 1142.35 831.695 1143.55 833.059 1144.75 834.424 1145.35 836.207 1145.35 838.41 1145.35 840.218 1144.97 842.142 1144.21 844.18L1144.8 844.377C1147.83 839.873 1150.84 836.528 1153.83 834.341 1156.82 832.155 1159.85 831.062 1162.9 831.062 1166.06 831.062 1168.46 831.958 1170.1 833.75 1171.75 835.541 1172.57 838.13 1172.57 841.517L1172.57 842.207C1172.57 842.438 1172.55 842.684 1172.52 842.947 1175.35 838.936 1178.17 835.952 1180.98 833.996 1183.79 832.04 1186.71 831.062 1189.73 831.062 1192.76 831.062 1195.09 831.933 1196.73 833.676 1198.38 835.418 1199.2 837.867 1199.2 841.024 1199.2 843.095 1198.72 846.038 1197.77 849.851L1194.56 862.772C1193.68 866.356 1193.23 868.888 1193.23 870.367 1193.23 871.682 1193.45 872.636 1193.87 873.227 1194.3 873.819 1194.98 874.115 1195.9 874.115 1196.88 874.115 1197.93 873.712 1199.05 872.907 1200.17 872.101 1201.75 870.564 1203.79 868.296L1206.6 871.057C1203.77 874.049 1201.3 876.252 1199.2 877.666 1197.1 879.08 1194.7 879.786 1192 879.786 1189.86 879.786 1188.15 879.022 1186.87 877.493 1185.59 875.964 1184.95 874.016 1184.95 871.649 1184.95 869.512 1185.49 866.372 1186.58 862.23L1188.75 853.698C1189.53 850.608 1190.05 848.323 1190.3 846.843 1190.55 845.364 1190.67 844.164 1190.67 843.243 1190.67 840.974 1190.29 839.339 1189.53 838.336 1188.78 837.333 1187.55 836.832 1185.84 836.832 1184.45 836.832 1182.98 837.35 1181.4 838.385 1179.82 839.421 1178.16 841.032 1176.42 843.218 1174.67 845.405 1173.25 847.558 1172.15 849.679 1171.05 851.799 1170.17 854.388 1169.51 857.446L1165.02 878.997 1156.49 878.997 1162.16 853.945C1162.85 850.887 1163.32 848.627 1163.57 847.164 1163.82 845.701 1163.94 844.443 1163.94 843.391 1163.94 841.024 1163.52 839.339 1162.68 838.336 1161.84 837.333 1160.54 836.832 1158.76 836.832 1157.51 836.832 1156.09 837.35 1154.49 838.385 1152.9 839.421 1151.2 841.081 1149.39 843.366 1147.58 845.651 1146.17 847.846 1145.15 849.95 1144.13 852.054 1143.28 854.619 1142.58 857.643L1137.9 878.997 1129.37 878.997 1136.57 847.731C1137.29 844.575 1137.65 842.142 1137.65 840.432 1137.65 839.117 1137.44 838.163 1137.01 837.572 1136.58 836.98 1135.91 836.684 1134.99 836.684 1133.97 836.684 1132.89 837.103 1131.76 837.941 1130.63 838.78 1129.07 840.3 1127.1 842.503L1124.29 839.742C1127.18 836.717 1129.67 834.506 1131.76 833.108 1133.85 831.711 1136.14 831.013 1138.64 831.013Z" fill-rule="evenodd"/><text fill="#000000" fill-opacity="0" font-family="Arial,Arial_MSFontService,sans-serif" font-size="48.7739" x="1124.29" y="873.69">𝑚</text><path d="M812.5 569.5 812.5 1116.73" stroke="#000000" stroke-width="6.875" stroke-miterlimit="8" fill="none" fill-rule="evenodd"/><path d="M812.5 784.846 853.015 784.846 866.636 744.5 893.762 825.192 921.005 744.654 947.898 825.5 961.403 785 1002.5 785" stroke="#000000" stroke-width="6.875" stroke-miterlimit="8" fill="none" fill-rule="evenodd"/><path d="M892.734 865.5 966.5 865.5 966.5 946.5 892.5 946.5" stroke="#000000" stroke-width="6.875" stroke-miterlimit="8" fill="none" fill-rule="evenodd"/><path d="M812.5 906.5 919.098 906.5" stroke="#000000" stroke-width="6.875" stroke-miterlimit="8" fill="none" fill-rule="evenodd"/><path d="M920.5 880.5 920.5 932.587" stroke="#000000" stroke-width="6.875" stroke-miterlimit="8" fill="none" fill-rule="evenodd"/><path d="M966.5 906.5 1002.79 906.5" stroke="#000000" stroke-width="6.875" stroke-miterlimit="8" fill="none" fill-rule="evenodd"/><path d="M927.843 984.24C932.216 984.24 936.243 984.733 939.925 985.719L937.509 996.865 932.331 996.865C932.265 994.366 932.059 992.558 931.714 991.44 931.369 990.322 930.81 989.483 930.037 988.925 929.265 988.366 928.172 988.086 926.758 988.086 923.437 988.086 920.454 989.409 917.807 992.056 915.16 994.703 912.999 998.451 911.322 1003.3 909.645 1008.15 908.807 1012.81 908.807 1017.28 908.807 1020.64 909.464 1023.13 910.779 1024.75 912.094 1026.38 914.067 1027.19 916.697 1027.19 919.689 1027.19 922.278 1026.63 924.465 1025.49 926.651 1024.36 928.961 1022.57 931.394 1020.14L934.402 1023.15C931.311 1026.57 928.196 1029.07 925.056 1030.65 921.917 1032.22 918.538 1033.01 914.922 1033.01 910.155 1033.01 906.538 1031.6 904.072 1028.77 901.606 1025.94 900.374 1021.84 900.374 1016.44 900.374 1012.93 901.031 1009.06 902.346 1004.85 903.661 1000.65 905.585 996.947 908.116 993.758 910.648 990.568 913.607 988.185 916.993 986.607 920.38 985.029 923.996 984.24 927.843 984.24Z" fill-rule="evenodd"/><text fill="#000000" fill-opacity="0" font-family="Arial,Arial_MSFontService,sans-serif" font-size="48.7739" x="900.374" y="1026.92">𝑐</text><path d="M916.432 609.777 919.293 609.777 909.627 652.83 911.205 652.83C913.671 652.83 916.441 651.754 919.515 649.6 922.589 647.447 925.046 645.449 926.887 643.608 928.729 641.767 929.649 639.992 929.649 638.282 929.649 636.671 928.531 635.767 926.296 635.57L926.838 633.153 942.817 633.153 943.754 635.57C941.025 638.035 938.132 640.452 935.074 642.819L922.843 652.288 927.676 670.091C928.071 671.604 928.424 672.697 928.737 673.371 929.049 674.045 929.411 674.546 929.822 674.875 930.233 675.204 930.783 675.368 931.474 675.368 932.329 675.368 933.348 674.908 934.531 673.987 935.715 673.067 937.063 671.735 938.575 669.992L941.386 672.754C938.427 675.878 935.978 678.047 934.038 679.264 932.099 680.48 930.224 681.089 928.416 681.089 926.181 681.089 924.405 680.456 923.09 679.19 921.775 677.924 920.739 675.812 919.983 672.853L916.728 660.031C916.399 658.748 916.071 657.861 915.742 657.367 915.413 656.874 915.035 656.546 914.608 656.381 914.18 656.217 913.424 656.135 912.339 656.135L908.936 656.135 903.807 680.3 895.276 680.3 907.95 623.931C908.377 622.024 908.681 620.536 908.862 619.468 909.043 618.399 909.133 617.454 909.133 616.632 909.133 615.251 908.714 614.281 907.876 613.722 907.038 613.164 905.533 612.851 903.363 612.785L903.955 610.221Z" fill-rule="evenodd"/><text fill="#000000" fill-opacity="0" font-family="Arial,Arial_MSFontService,sans-serif" font-size="71.3115" x="895.276" y="672.175">𝑘</text></g></svg>