<?xml version="1.0" encoding="UTF-8" standalone="no"?>
<!-- Generator: Adobe Illustrator 12.0.1, SVG Export Plug-In  -->

<svg
   xmlns:dc="http://purl.org/dc/elements/1.1/"
   xmlns:cc="http://creativecommons.org/ns#"
   xmlns:rdf="http://www.w3.org/1999/02/22-rdf-syntax-ns#"
   xmlns:svg="http://www.w3.org/2000/svg"
   xmlns="http://www.w3.org/2000/svg"
   xmlns:xlink="http://www.w3.org/1999/xlink"
   xmlns:sodipodi="http://sodipodi.sourceforge.net/DTD/sodipodi-0.dtd"
   xmlns:inkscape="http://www.inkscape.org/namespaces/inkscape"
   version="1.1"
   width="258.582"
   height="206.668"
   viewBox="0 0 258.582 206.668"
   enable-background="new 0 0 288 288"
   xml:space="preserve"
   id="svg2"
   inkscape:version="0.47 r22583"
   sodipodi:docname="Caltrans.svg"><metadata
   id="metadata27"><rdf:RDF><cc:Work
       rdf:about=""><dc:format>image/svg+xml</dc:format><dc:type
         rdf:resource="http://purl.org/dc/dcmitype/StillImage" /></cc:Work></rdf:RDF></metadata><sodipodi:namedview
   pagecolor="#ffffff"
   bordercolor="#666666"
   borderopacity="1"
   objecttolerance="10"
   gridtolerance="10"
   guidetolerance="10"
   inkscape:pageopacity="0"
   inkscape:pageshadow="2"
   inkscape:window-width="640"
   inkscape:window-height="481"
   id="namedview25"
   showgrid="false"
   showguides="true"
   inkscape:guide-bbox="true"
   inkscape:zoom="0.81944444"
   inkscape:cx="133.999"
   inkscape:cy="104.089"
   inkscape:window-x="0"
   inkscape:window-y="0"
   inkscape:window-maximized="0"
   inkscape:current-layer="svg2" />
<defs
   id="defs4"><inkscape:perspective
   sodipodi:type="inkscape:persp3d"
   inkscape:vp_x="0 : 144 : 1"
   inkscape:vp_y="0 : 1000 : 0"
   inkscape:vp_z="288 : 144 : 1"
   inkscape:persp3d-origin="144 : 96 : 1"
   id="perspective29" />
</defs>
<g
   id="g6"
   transform="translate(-10.001,-41.421)">
	<defs
   id="defs8">
		<rect
   id="XMLID_1_"
   x="10.001"
   y="41.419998"
   width="269.99701"
   height="206.66901" />
	</defs>
	<clipPath
   id="XMLID_5_">
		<use
   xlink:href="#XMLID_1_"
   id="use12"
   x="0"
   y="0"
   width="288"
   height="288" />
	</clipPath>
	<path
   clip-path="url(#XMLID_5_)"
   d="m 67.362,41.421 h 97.829 L 150.573,78.162 H 91.014 l -18.68,45.215 h 59.219 l -14.215,35.29 c 0,0 -57.767,0.138 -91.665,0 -10.124,-0.034 -18.63,-10.59 -14.689,-21.551 1.459,-4.051 28.34,-69.471 33.167,-79.587 4.107,-8.619 14.31,-15.62 23.211,-16.108"
   id="path14"
   style="fill:#07b1af" />
	<path
   clip-path="url(#XMLID_5_)"
   d="m 171.106,41.421 h 53.297 c 0,0 0.267,0.356 0.474,0.473 l -16.105,40.268 59.811,0.068 -15.28,35.698 h -59.451 c -5.463,12.215 -11.136,27.152 -13.029,31.74 -1.275,3.084 -1.651,4.498 -2.306,6.26 -0.376,1.027 -0.769,3.228 1.475,2.979 2.622,-0.287 3.438,-2.672 4.445,-5.114 5.599,-13.489 7.569,-18.26 12.733,-30.416 h 53.768 c 0,0 -17.322,40.941 -18.949,45.007 -4.466,11.139 -9.275,17.794 -18.718,23.447 -3.386,2.028 -5.795,2.317 -9.712,2.844 -27.305,-0.018 -34.032,-0.018 -65.049,0 -3.39,0.003 -11.396,-0.579 -14.537,-3.792 -3.934,-4.031 -5.67,-7.294 -6.579,-12.857 -1.095,-6.701 1.47,-11.546 3.735,-16.999 6.913,-16.633 17.77,-42.682 17.77,-42.682 -4.688,0.259 -58.748,0.056 -58.748,0.056 -0.117,-0.205 -0.267,-0.353 -0.472,-0.473 l 14.687,-35.292 59.908,-0.039 16.832,-41.176"
   id="path16"
   style="fill:#149cd8" />
	<path
   clip-path="url(#XMLID_5_)"
   clip-rule="evenodd"
   d="m 157.862,227.601 7.145,0.045 c -2.105,4.643 -5.054,10.795 -4.046,11.979 h -8.26 c -0.929,-0.084 -1.203,-1.571 -0.996,-1.604 0,-1.983 0.621,-2.937 1.33,-4.723 0.486,-1.232 0.771,-2.26 1.509,-3.333 0.894,-1.272 1.727,-2.319 3.318,-2.364 m -84.341,0 7.145,0.045 c -2.108,4.643 -5.06,10.795 -4.046,11.979 h -8.268 c -0.926,-0.084 -1.197,-1.571 -0.99,-1.604 0,-1.983 0.624,-2.937 1.332,-4.723 0.484,-1.232 0.771,-2.26 1.512,-3.333 0.888,-1.272 1.724,-2.319 3.315,-2.364 m 144.07,20.344 c 2.257,-0.03 4.677,-0.454 8.454,-2.417 3.771,-1.972 5.373,-5.339 5.373,-5.339 l 4.638,-10.461 H 220.04 c 0,0 -0.738,1.29 0.417,-0.676 1.16,-1.966 3.882,-2.442 3.882,-2.442 h 13.069 l 3.476,-7.759 c 0,0 -17.371,0.025 -18.905,0 -1.542,-0.027 -4.45,0.786 -5.718,1.879 -3.216,2.787 -3.814,4.87 -3.814,4.87 l -4.214,10.033 h 15.854 c 0,0 -0.2,0.733 -0.257,0.838 -1.497,3.069 -5.648,2.957 -5.648,2.957 0,0 -11.196,0.112 -13.072,0 -1.871,-0.11 -1.722,-1.789 -1.263,-2.957 1.186,-2.993 2.128,-4.944 3.121,-7.501 0.988,-2.558 0.188,-4.862 -1.687,-7.422 -1.876,-2.557 -5.144,-2.612 -5.144,-2.612 h -16.864 l -9.188,20.659 c 0,0 -0.409,0.029 -2.285,0 -1.871,-0.025 -1.568,-1.819 -1.093,-2.949 2.917,-6.875 7.337,-17.71 7.337,-17.71 h -18.638 c 0,0 -4.657,0.14 -6.493,1.266 -1.831,1.122 -4.907,2.754 -6.913,7.419 -2.003,4.667 -1.562,4.365 -3.338,8.285 -0.968,2.135 -1.23,5.142 -0.112,7.451 1.115,2.298 2.333,4.558 6.823,4.588 4.485,0.027 5.647,0 5.647,0 0,0 2.68,-0.364 4.052,-2.277 1.369,-1.916 2.186,-3.124 2.186,-3.124 0,0 0.846,2.45 3.143,3.822 2.298,1.382 3.166,1.549 4.955,1.579 1.794,0.027 10.879,0 10.879,0 l 8.937,-20.324 h 7.509 c 0,0 1.242,0.14 0.592,1.773 -0.656,1.624 -3.034,6.91 -3.034,6.91 0,0 -1.354,3.625 0.35,6.606 1.709,2.979 4.895,5.062 11.113,5.034 4.636,-0.021 9.633,0.029 11.889,0.001 m -79.434,-17.121 c 0,0 1.584,-3.652 3.882,-3.627 2.292,0.024 3.371,0 3.371,0 l 3.749,-8.235 h -6.411 c 0,0 -3.238,-0.362 -5.326,0.676 -2.091,1.038 -5.483,2.617 -7.863,8.155 -2.779,6.464 -4.959,11.832 -4.959,11.832 h -6.491 c 0,0 -2.782,-0.424 -1.958,-2.22 0.529,-1.152 4.174,-9.76 4.174,-9.76 h 8.914 l 3.123,-8.684 h -8.265 l 4.872,-11.917 h -9.779 l -5.126,11.917 H 110.1 l -3.63,8.574 h 4.286 l -3.545,8.011 c 0,0 -1.365,2.674 -0.586,5.311 0.776,2.645 2.971,7.115 8.37,7.115 h 15.767 l 7.395,-17.148 z m -50.441,8.772 c -1.874,-0.025 -1.667,-1.852 -1.125,-2.949 3.35,-6.803 7.978,-17.71 7.978,-17.71 H 75.295 c 0,0 -4.658,0.14 -6.494,1.266 -1.839,1.122 -4.915,2.754 -6.916,7.419 -2.006,4.667 -1.559,4.365 -3.34,8.285 -0.481,1.072 -0.674,2.319 -0.719,3.635 l -7.412,0.047 c -0.569,0.063 -0.97,-0.064 -1.402,-0.441 -0.629,-0.544 -0.741,-1.183 -0.519,-2.065 0.299,-1.186 0.484,-1.937 0.973,-3.106 2.353,-5.68 3.607,-8.778 6.114,-14.316 0.092,-0.34 0.16,-0.529 0.31,-0.849 0.883,-1.849 2.427,-2.43 4.443,-2.794 0.719,-0.132 1.869,-0.09 1.869,-0.09 h 14.162 l 4.052,-9.021 c -8.517,-0.061 -11.865,-0.063 -17.371,0 -5.855,0.064 -11.516,1.591 -14.721,8.122 -3.206,6.531 -9.046,21.053 -9.046,21.053 0,0 -0.938,3.315 -0.818,4.608 0.217,2.447 1.709,7.244 8.781,7.244 4.273,0 13.656,0.072 23.677,0.013 0,0 2.667,-0.364 4.037,-2.277 1.367,-1.916 2.19,-3.124 2.19,-3.124 0,0 0.846,2.45 3.143,3.822 2.292,1.382 3.164,1.549 4.955,1.579 l 1.838,0.122 c 3.65,0.035 8.884,0.015 8.884,0.015 l 17.503,-41.092 -9.824,0.042 -14.033,32.503 -1.895,0.059 z"
   id="path18"
   style="fill:#010101;fill-rule:evenodd" />
</g>
<path
   d="m 233.117,180.991 c 0,-2.545 2.068,-4.421 4.506,-4.421 2.417,0 4.478,1.876 4.478,4.421 0,2.569 -2.061,4.445 -4.478,4.445 -2.437,0 -4.506,-1.876 -4.506,-4.445 m 4.506,3.707 c 2.001,0 3.587,-1.571 3.587,-3.707 0,-2.096 -1.586,-3.683 -3.587,-3.683 -2.028,0 -3.612,1.587 -3.612,3.683 0,2.136 1.584,3.707 3.612,3.707 m -0.943,-1.138 h -0.771 v -5.114 h 1.946 c 1.212,0 1.806,0.449 1.806,1.457 0,0.913 -0.576,1.313 -1.324,1.402 l 1.451,2.255 h -0.865 l -1.348,-2.215 h -0.896 v 2.215 z m 0.93,-2.874 c 0.656,0 1.242,-0.045 1.242,-0.833 0,-0.631 -0.573,-0.751 -1.117,-0.751 h -1.056 v 1.584 h 0.931 z"
   id="path20"
   style="fill:#010101" />
<path
   d="m 261.016,43.725 c 0,-2.544 2.061,-4.419 4.503,-4.419 2.415,0 4.48,1.875 4.48,4.419 0,2.567 -2.065,4.446 -4.48,4.446 -2.443,0 -4.503,-1.879 -4.503,-4.446 m 4.503,3.705 c 2.004,0 3.59,-1.569 3.59,-3.705 0,-2.098 -1.586,-3.681 -3.59,-3.681 -2.03,0 -3.612,1.583 -3.612,3.681 -10e-4,2.136 1.581,3.705 3.612,3.705 m -0.941,-1.138 h -0.775 V 41.18 h 1.945 c 1.215,0 1.812,0.447 1.812,1.455 0,0.914 -0.576,1.312 -1.327,1.407 l 1.452,2.25 h -0.868 l -1.345,-2.214 h -0.894 v 2.214 z m 0.928,-2.871 c 0.659,0 1.245,-0.049 1.245,-0.832 0,-0.634 -0.578,-0.752 -1.117,-0.752 h -1.056 v 1.584 h 0.928 z"
   id="path22"
   style="fill:#010101" />
<rect
   id="_x3C_Slice_x3E__1_"
   width="288"
   height="288"
   x="-10.001"
   y="-41.421001"
   style="fill:none" />
</svg>