<?xml version="1.0" encoding="utf-8"?>
<!-- Generator: Adobe Illustrator 26.1.0, SVG Export Plug-In . SVG Version: 6.00 Build 0)  -->
<svg version="1.1" id="a" xmlns="http://www.w3.org/2000/svg" xmlns:xlink="http://www.w3.org/1999/xlink" x="0px" y="0px"
	 viewBox="0 0 94.9 95.8" style="enable-background:new 0 0 94.9 95.8;" xml:space="preserve">
<style type="text/css">
	.st0{fill:#0060A9;}
	.st1{fill:#FFFFFF;}
	.st2{fill:#FFDAAC;}
	.st3{clip-path:url(#SVGID_00000078034678878716179880000017986437997168107171_);}
	.st4{fill-rule:evenodd;clip-rule:evenodd;fill:#0060A9;}
</style>
<rect x="61.6" y="-3.3" transform="matrix(0.7071 -0.7071 0.7071 0.7071 1.4996 53.3952)" class="st0" width="7.3" height="56.3"/>
<polygon class="st0" points="86.4,45.4 48.7,83 54,88.2 93.7,48.5 88.5,43.2 "/>
<rect x="26.6" y="43.5" transform="matrix(0.7071 -0.7071 0.7071 0.7071 -41.7992 42.3451)" class="st0" width="7.3" height="56.2"/>
<polygon class="st0" points="9.7,50.9 47,13.6 41.7,8.4 1.9,48.2 7.1,53.4 "/>
<path class="st1" d="M9,46.3l0.1-0.1c0.4-0.4,0.7-0.8,0.2-1.2c-0.4-0.5-0.8-0.1-1.2,0.2L8,45.4L9,46.3z M10.5,47.8l-0.4,0.4
	l-2.8-2.8L7.8,45c0.8-1,1.4-0.8,1.9-0.4c0.6,0.6,0.4,1.2-0.1,1.8l-0.2,0.2C9.3,46.7,10.5,47.8,10.5,47.8z"/>
<path class="st1" d="M14,40l0.6,1.7l1-1L14,40z M14.9,42.1l0.4,1l-0.4,0.4l-1.6-4.2l4.2,1.6l-0.4,0.4l-1.1-0.4
	C16.1,40.8,14.9,42.1,14.9,42.1z"/>
<path class="st1" d="M20.9,32.9c-0.4,0-0.7,0.2-1,0.5c-0.6,0.6-0.6,1.6,0,2.2c0.6,0.7,1.7,0.7,2.3,0.1c0.2-0.4,0.5-0.7,0.5-1.1
	L23,35c-0.1,0.2-0.2,0.6-0.5,0.8c-0.8,0.8-2.2,0.8-2.9,0c-0.8-0.7-0.8-2,0-2.9c0.2-0.2,0.5-0.5,0.8-0.5
	C20.5,32.5,20.9,32.9,20.9,32.9z"/>
<rect x="25.5" y="27.8" transform="matrix(0.7071 -0.7071 0.7071 0.7071 -13.4891 26.9437)" class="st1" width="0.5" height="3.9"/>
<polygon class="st1" points="29.1,24.2 30,25 30.9,24 31.2,24.4 30.2,25.3 31.7,26.6 31.3,27 28.5,24.2 29.9,22.9 30.2,23.2 "/>
<rect x="35" y="18.3" transform="matrix(0.7071 -0.7071 0.7071 0.7071 -4.0014 30.8755)" class="st1" width="0.5" height="3.9"/>
<path class="st1" d="M40.5,13.3c-0.4,0-0.7,0.1-1.1,0.4c-0.6,0.7-0.6,1.7,0.1,2.3c0.6,0.6,1.6,0.7,2.2,0c0.4-0.2,0.5-0.6,0.5-1
	l0.4,0.4c0,0.4-0.2,0.7-0.5,1c-0.8,0.8-2,0.8-2.9,0s-0.8-2.2,0-2.9c0.2-0.4,0.6-0.5,0.8-0.6C40.1,12.8,40.5,13.3,40.5,13.3z"/>
<polygon class="st1" points="49.3,6.7 50.9,8.3 50.5,8.6 49.4,7.4 48.6,8.3 49.7,9.4 49.4,9.7 48.2,8.5 47.3,9.6 48.3,10.8 48.1,11 
	46.5,9.6 "/>
<path class="st1" d="M52.9,11.5l-1.7,0.7l1,1C52.2,13.2,52.9,11.5,52.9,11.5z M50.7,12.4l-1,0.4l-0.4-0.4l4.2-1.6l-1.6,4.3l-0.4-0.5
	l0.4-1C52.1,13.7,50.7,12.4,50.7,12.4z"/>
<path class="st1" d="M55.3,15.4l0.1,0.1c0.4,0.4,0.8,0.7,1.2,0.2c0.5-0.5,0.1-1-0.2-1.3h-0.1C56.3,14.4,55.3,15.4,55.3,15.4z
	 M55.2,18.2l-0.4-0.5l0.4-1.9l-0.2-0.2l-1.1,1.2l-0.4-0.4l2.8-2.8l0.5,0.5c0.2,0.2,0.5,0.5,0.6,0.8c0,0.4-0.1,0.7-0.4,1
	c-0.4,0.5-1,0.5-1.4,0.1C55.5,16.1,55.2,18.2,55.2,18.2z"/>
<polygon class="st1" points="57.3,20.4 57,20 59.5,17.5 58.8,16.9 59.1,16.6 60.8,18.2 60.5,18.6 59.9,17.9 "/>
<polygon class="st1" points="62.7,22.4 63.9,21.4 64.3,21.7 61.4,24.5 61.2,24.1 62.5,22.8 61.2,21.5 59.7,22.8 59.5,22.4 
	62.3,19.7 62.6,20 61.4,21.1 "/>
<path class="st1" d="M65.9,27.6c0.4,0,0.8-0.1,1.1-0.5c0.6-0.6,0.7-1.6,0-2.2c-0.6-0.7-1.6-0.6-2.3,0c-0.6,0.6-0.6,1.7,0,2.3
	l0.7,0.4v-1.3l0.5,0.5C65.9,26.8,65.9,27.6,65.9,27.6z M65.4,28.6v-0.5c-0.4-0.1-0.7-0.2-1-0.6c-0.8-0.7-0.8-2,0-2.9
	c0.7-0.8,2-0.8,2.9,0s0.8,2.2,0,2.9c-0.4,0.5-1,0.6-1.4,0.6v0.8C65.9,28.9,65.4,28.6,65.4,28.6z"/>
<path class="st1" d="M70.5,28l-1.7,1.7c-0.5,0.5-0.7,1-0.2,1.6c0.6,0.5,1.2,0.2,1.6-0.2l1.7-1.7l0.4,0.4l-1.8,1.8
	c-0.6,0.6-1.4,0.7-2,0c-0.7-0.6-0.6-1.4,0-2l1.8-1.8L70.5,28z"/>
<path class="st1" d="M74.3,33l-1.6,0.6l1,1.1L74.3,33z M72.2,33.8l-1.1,0.4l-0.4-0.4l4.3-1.6l-1.7,4.2l-0.4-0.4l0.5-1L72.2,33.8z"/>
<polygon class="st1" points="79.2,36.7 79.7,37.1 77.1,37.1 76.9,40 76.4,39.5 76.7,37.1 76.4,37.1 75.2,38.3 74.9,37.9 77.7,35.2 
	78.1,35.5 76.8,36.7 "/>
<polygon class="st1" points="81.1,38.5 82.7,40.1 82.3,40.3 81.1,39.2 80.4,40 81.5,41.2 81.1,41.4 80,40.3 78.9,41.4 80.1,42.5 
	79.8,42.8 78.3,41.3 "/>
<polygon class="st1" points="14.7,53.5 16.2,55.1 15.9,55.3 14.7,54.2 14,55 15.1,56 14.7,56.4 13.7,55.3 12.6,56.4 13.8,57.5 
	13.4,57.8 12,56.3 "/>
<polygon class="st1" points="17.9,56.4 17.7,60.7 19.8,58.7 20.1,59 17.3,61.9 17.4,57.6 15.3,59.6 15,59.3 "/>
<path class="st1" d="M22.9,64.6v0.1c-0.8,0.7-1.9,0.7-2.8,0c-0.7-0.8-0.7-2,0.1-2.9c0.7-0.8,2-0.8,2.9,0c0.4,0.5,0.6,1.1,0.6,1.7
	h-0.5c0-0.5-0.1-1-0.5-1.3c-0.6-0.6-1.6-0.6-2.2,0s-0.7,1.6-0.1,2.2c0.5,0.5,1.3,0.6,1.8,0.1l-0.7-0.7l0.2-0.2L22.9,64.6L22.9,64.6z
	"/>
<polygon class="st1" points="23.4,67.7 23,67.4 25.8,64.6 26.1,64.9 "/>
<polygon class="st1" points="27.9,66.4 27.8,70.7 29.9,68.6 30.2,69 27.3,71.9 27.3,67.6 25.3,69.7 24.9,69.4 "/>
<polygon class="st1" points="31.8,70.6 33.3,72.1 33,72.5 31.8,71.3 31.1,72 32.1,73.2 31.9,73.4 30.7,72.4 29.7,73.4 30.8,74.6 
	30.5,74.9 29,73.4 "/>
<polygon class="st1" points="34.9,73.7 36.3,75.1 36.1,75.5 34.9,74.3 34.1,75.1 35.3,76.2 34.9,76.6 33.8,75.5 32.7,76.4 
	33.9,77.6 33.6,78 32,76.4 "/>
<path class="st1" d="M36.9,78.4l0.1,0.1c0.4,0.4,0.8,0.7,1.2,0.2c0.5-0.5,0.1-1-0.2-1.3h-0.1L36.9,78.4z M36.8,81.2l-0.4-0.5
	l0.4-1.9l-0.1-0.1l-1.2,1.1l-0.4-0.4l2.8-2.8l0.5,0.5c0.2,0.2,0.5,0.5,0.6,0.8c0,0.4-0.1,0.7-0.4,1.1c-0.4,0.4-1,0.4-1.4,0
	C37.2,79.1,36.8,81.2,36.8,81.2z"/>
<rect x="37.9" y="81.1" transform="matrix(0.7071 -0.7071 0.7071 0.7071 -45.8665 51.9897)" class="st1" width="3.9" height="0.5"/>
<polygon class="st1" points="43.1,81.6 43.1,85.9 45.1,83.9 45.5,84.2 42.5,87.1 42.6,82.8 40.5,85 40.2,84.6 "/>
<path class="st1" d="M48.2,89.8l-0.1,0.1c-0.8,0.7-1.9,0.8-2.6,0c-0.8-0.7-0.8-2,0-2.9c0.8-0.7,2-0.7,2.9,0c0.5,0.5,0.7,1.1,0.6,1.7
	h-0.5c0.1-0.5-0.1-1-0.4-1.3c-0.7-0.6-1.7-0.6-2.3,0s-0.7,1.7-0.1,2.3c0.5,0.4,1.3,0.5,1.8,0.1l-0.7-0.8l0.4-0.2L48.2,89.8
	L48.2,89.8z"/>
<path class="st1" d="M54.8,82.2l0.1-0.1c0.4-0.4,0.6-0.8,0.2-1.2c-0.5-0.5-1-0.1-1.3,0.2l-0.1,0.1C53.7,81.2,54.8,82.2,54.8,82.2z
	 M57.7,82.3l-0.5,0.4l-2-0.4l-0.1,0.1l1.2,1.2L55.9,84l-2.8-2.8l0.4-0.5c0.2-0.2,0.6-0.5,0.8-0.6c0.5-0.1,0.8,0.1,1.1,0.4
	c0.4,0.4,0.5,1,0.1,1.4L57.7,82.3z"/>
<polygon class="st1" points="57.6,76.8 59,75.2 59.4,75.6 58.3,76.7 59,77.5 60.1,76.4 60.5,76.7 59.4,77.9 60.3,78.8 61.5,77.8 
	61.9,78 60.3,79.6 "/>
<path class="st1" d="M63.7,71.6c-0.2,0-0.5,0-0.7,0.2s-0.2,0.6,0,0.8s0.5,0.1,0.7,0l0.4-0.1c0.5-0.2,1.1-0.4,1.4,0.1
	c0.6,0.5,0.5,1.3,0,1.8s-1.1,0.5-1.6,0.1l0.2-0.5c0.2,0.4,0.7,0.2,1.1,0c0.2-0.4,0.2-0.7,0-1.1c-0.4-0.2-0.7-0.1-1.1,0l-0.2,0.1
	c-0.5,0.1-1,0.2-1.3-0.1c-0.5-0.5-0.4-1.2,0.1-1.6c0.2-0.4,0.7-0.4,1.1-0.4C63.8,71.2,63.7,71.6,63.7,71.6z"/>
<polygon class="st1" points="66.5,67.9 67.9,66.5 68.3,66.7 67.1,67.9 67.9,68.6 69,67.6 69.3,67.9 68.1,69 69.2,70.1 70.4,68.9 
	70.7,69.2 69.2,70.7 "/>
<path class="st1" d="M72.5,63.1l0.6,1.7l1.1-1L72.5,63.1z M73.3,65.3l0.4,1l-0.4,0.4l-1.6-4.2l4.2,1.6l-0.4,0.4L74.5,64L73.3,65.3z"
	/>
<path class="st1" d="M77.5,59.5l0.1-0.1c0.4-0.4,0.7-0.8,0.2-1.3c-0.5-0.4-1-0.1-1.3,0.2v0.1L77.5,59.5z M80.4,59.5L79.9,60L78,59.6
	l-0.1,0.1l1.1,1.2l-0.4,0.4l-2.8-2.9l0.5-0.4c0.2-0.2,0.5-0.5,0.8-0.6s0.7,0,1.1,0.2c0.4,0.5,0.4,1.1,0,1.4
	C78.2,59.2,80.4,59.5,80.4,59.5z"/>
<path class="st1" d="M82.9,52.6c-0.4,0-0.7,0.1-1.1,0.5c-0.6,0.6-0.5,1.6,0.1,2.2c0.6,0.6,1.6,0.7,2.2,0.1c0.4-0.4,0.5-0.7,0.5-1.1
	l0.5,0.4c-0.1,0.4-0.4,0.7-0.6,1c-0.8,0.8-2,0.8-2.9,0s-0.8-2.2,0-2.9c0.2-0.2,0.6-0.5,0.8-0.6L82.9,52.6L82.9,52.6z"/>
<polygon class="st1" points="87.9,48.6 86.9,47.5 87.2,47.2 90,49.9 89.6,50.3 88.3,49 87,50.3 88.3,51.6 87.9,52 85.2,49.2 
	85.5,48.8 86.6,49.9 "/>
<rect x="23.7" y="24.2" transform="matrix(0.7071 -0.7071 0.7071 0.7071 -20.1168 47.8886)" class="st2" width="48" height="48"/>
<g>
	<defs>
		<polygon id="SVGID_1_" points="47.6,14.4 47.5,14.5 13.8,48.2 47.6,82.1 47.9,82.2 47.9,82.1 81.7,48.2 47.9,14.4 		"/>
	</defs>
	<clipPath id="SVGID_00000056426320310112305160000017758929773613534651_">
		<use xlink:href="#SVGID_1_"  style="overflow:visible;"/>
	</clipPath>
	<g style="clip-path:url(#SVGID_00000056426320310112305160000017758929773613534651_);">
		<rect x="15.6" y="48.1" class="st0" width="3.6" height="34.1"/>
		<path class="st4" d="M20.7,48.1h3.6v34.1h-3.6V48.1z M18.9,14.3h0.8v67.9h-0.8V14.3z"/>
		<path class="st4" d="M26,45h3.6v37.2H26V45z M24.2,14.3h0.8v67.9h-0.8C24.2,82.2,24.2,14.3,24.2,14.3z"/>
		<path class="st4" d="M31.2,37.7h3.6v44.5h-3.6V37.7z M29.4,14.3h0.8v67.9h-0.8C29.4,82.2,29.4,14.3,29.4,14.3z"/>
		<path class="st4" d="M36.5,29h3.6v53.2h-3.6V29z M34.7,14.3h0.7v67.9h-0.7C34.7,82.2,34.7,14.3,34.7,14.3z"/>
		<path class="st4" d="M41.6,41.8h3.6v40.4h-3.6V41.8z M39.8,14.3h0.8v67.9h-0.8V14.3z"/>
		<path class="st4" d="M46.9,53.9h3.6v28.3h-3.6V53.9z M45,14.3h0.8v67.9H45C45,82.2,45,14.3,45,14.3z"/>
		<path class="st4" d="M52.1,67.3h3.6v14.9h-3.6V67.3z M50.3,14.3h0.8v67.9h-0.8C50.3,82.2,50.3,14.3,50.3,14.3z"/>
		<path class="st4" d="M57.3,60.1h3.6v22.1h-3.6V60.1z M55.4,14.3h0.8v67.9h-0.8C55.4,82.2,55.4,14.3,55.4,14.3z"/>
		<path class="st4" d="M62.5,51.2h3.6v31h-3.6V51.2z M60.6,14.3h0.8v67.9h-0.8C60.6,82.2,60.6,14.3,60.6,14.3z"/>
		<path class="st4" d="M67.8,48.1h3.6v34.1h-3.6V48.1z M65.9,14.3h0.8v67.9h-0.8V14.3z"/>
		<path class="st4" d="M72.9,48.1h3.6v34.1h-3.6V48.1z M71,14.3h0.8v67.9H71V14.3z"/>
		<path class="st4" d="M78.2,48.1h3.5v34.1h-3.5V48.1z M76.3,14.3H77v67.9h-0.7V14.3z"/>
		<rect x="81.5" y="14.3" class="st0" width="0.2" height="67.9"/>
	</g>
</g>
</svg>
